Sazanami-Light.ufo
<glyph name=".notdef" format="1">
  <advance width="1024"/>
  <unicode hex="0000"/>
  <outline>
    <contour>
      <point x="384" y="240" type="line" smooth="no"/>
      <point x="640" y="240" type="line" smooth="no"/>
      <point x="640" y="496" type="line" smooth="no"/>
      <point x="384" y="496" type="line" smooth="no"/>
    </contour>
  </outline>
</glyph>
<glyph name="exclam" format="1">
  <advance width="512"/>
  <unicode hex="0021"/>
  <outline>
    <contour>
      <point x="319" y="756" type="line" smooth="no"/>
      <point x="319" y="692"/>
      <point x="287" y="276"/>
      <point x="287" y="190" type="qcurve" smooth="no"/>
      <point x="227" y="190" type="line" smooth="no"/>
      <point x="227" y="276"/>
      <point x="195" y="692"/>
      <point x="195" y="756" type="qcurve" smooth="no"/>
    </contour>
    <contour>
      <point x="202" y="-56" type="line" smooth="no"/>
      <point x="202" y="58" type="line" smooth="no"/>
      <point x="310" y="58" type="line" smooth="no"/>
      <point x="310" y="-56" type="line" smooth="no"/>
    </contour>
  </outline>
</glyph>
<glyph name="quotedbl" format="1">
  <advance width="512"/>
  <unicode hex="0022"/>
  <outline>
    <contour>
      <point x="72" y="620" type="line" smooth="no"/>
      <point x="132" y="820" type="line" smooth="no"/>
      <point x="244" y="820" type="line" smooth="no"/>
      <point x="120" y="620" type="line" smooth="no"/>
    </contour>
    <contour>
      <point x="220" y="620" type="line" smooth="no"/>
      <point x="304" y="820" type="line" smooth="no"/>
      <point x="424" y="820" type="line" smooth="no"/>
      <point x="268" y="620" type="line" smooth="no"/>
    </contour>
  </outline>
</glyph>
<glyph name="numbersign" format="1">
  <advance width="512"/>
  <unicode hex="0023"/>
  <outline>
    <contour>
      <point x="134" y="-51" type="line" smooth="no"/>
      <point x="77" y="-51" type="line" smooth="no"/>
      <point x="100" y="166" type="line" smooth="no"/>
      <point x="2" y="166" type="line" smooth="no"/>
      <point x="8" y="242" type="line" smooth="no"/>
      <point x="109" y="242" type="line" smooth="no"/>
      <point x="141" y="541" type="line" smooth="no"/>
      <point x="29" y="541" type="line" smooth="no"/>
      <point x="35" y="617" type="line" smooth="no"/>
      <point x="149" y="617" type="line" smooth="no"/>
      <point x="170" y="810" type="line" smooth="no"/>
      <point x="227" y="810" type="line" smooth="no"/>
      <point x="206" y="617" type="line" smooth="no"/>
      <point x="338" y="617" type="line" smooth="no"/>
      <point x="359" y="810" type="line" smooth="no"/>
      <point x="416" y="810" type="line" smooth="no"/>
      <point x="395" y="617" type="line" smooth="no"/>
      <point x="510" y="617" type="line" smooth="no"/>
      <point x="504" y="541" type="line" smooth="no"/>
      <point x="387" y="541" type="line" smooth="no"/>
      <point x="355" y="242" type="line" smooth="no"/>
      <point x="483" y="242" type="line" smooth="no"/>
      <point x="477" y="166" type="line" smooth="no"/>
      <point x="346" y="166" type="line" smooth="no"/>
      <point x="323" y="-51" type="line" smooth="no"/>
      <point x="266" y="-51" type="line" smooth="no"/>
      <point x="289" y="166" type="line" smooth="no"/>
      <point x="157" y="166" type="line" smooth="no"/>
    </contour>
    <contour>
      <point x="198" y="541" type="line" smooth="no"/>
      <point x="166" y="242" type="line" smooth="no"/>
      <point x="298" y="242" type="line" smooth="no"/>
      <point x="330" y="541" type="line" smooth="no"/>
    </contour>
  </outline>
</glyph>
<glyph name="dollar" format="1">
  <advance width="512"/>
  <unicode hex="0024"/>
  <outline>
    <contour>
      <point x="31" y="226" type="qcurve" smooth="no"/>
      <point x="123" y="226" type="line" smooth="no"/>
      <point x="123" y="168"/>
      <point x="190" y="113"/>
      <point x="226" y="106" type="qcurve" smooth="no"/>
      <point x="226" y="358" type="line" smooth="no"/>
      <point x="125" y="383"/>
      <point x="91" y="436" type="qcurve" smooth="yes"/>
      <point x="57" y="489"/>
      <point x="57" y="550" type="qcurve" smooth="yes"/>
      <point x="57" y="610"/>
      <point x="160" y="721"/>
      <point x="226" y="730" type="qcurve" smooth="no"/>
      <point x="226" y="830" type="line" smooth="no"/>
      <point x="280" y="830" type="line" smooth="no"/>
      <point x="280" y="731" type="line" smooth="no"/>
      <point x="354" y="725"/>
      <point x="459" y="630"/>
      <point x="459" y="550" type="qcurve" smooth="no"/>
      <point x="367" y="550" type="line" smooth="no"/>
      <point x="367" y="600"/>
      <point x="317" y="645"/>
      <point x="280" y="650" type="qcurve" smooth="no"/>
      <point x="280" y="423" type="line" smooth="no"/>
      <point x="366" y="405"/>
      <point x="483" y="307"/>
      <point x="483" y="226" type="qcurve" smooth="yes"/>
      <point x="483" y="144"/>
      <point x="375" y="28"/>
      <point x="280" y="23" type="qcurve" smooth="no"/>
      <point x="280" y="-108" type="line" smooth="no"/>
      <point x="226" y="-108" type="line" smooth="no"/>
      <point x="226" y="24" type="line" smooth="no"/>
      <point x="147" y="32"/>
      <point x="31" y="144"/>
    </contour>
    <contour>
      <point x="391" y="226" type="qcurve" smooth="yes"/>
      <point x="391" y="277"/>
      <point x="322" y="326"/>
      <point x="280" y="341" type="qcurve" smooth="no"/>
      <point x="280" y="104" type="line" smooth="no"/>
      <point x="337" y="109"/>
      <point x="391" y="174"/>
    </contour>
    <contour>
      <point x="149" y="550" type="qcurve" smooth="yes"/>
      <point x="149" y="497"/>
      <point x="168" y="474" type="qcurve" smooth="no"/>
      <point x="188" y="452"/>
      <point x="226" y="438" type="qcurve" smooth="no"/>
      <point x="226" y="648" type="line" smooth="no"/>
      <point x="195" y="642"/>
      <point x="149" y="596"/>
    </contour>
  </outline>
</glyph>
<glyph name="percent" format="1">
  <advance width="512"/>
  <unicode hex="0025"/>
  <outline>
    <contour>
      <point x="435" y="817" type="line" smooth="no"/>
      <point x="487" y="800" type="line" smooth="no"/>
      <point x="90" y="-105" type="line" smooth="no"/>
      <point x="37" y="-91" type="line" smooth="no"/>
    </contour>
    <contour>
      <point x="4" y="562" type="qcurve" smooth="yes"/>
      <point x="4" y="640"/>
      <point x="69" y="752"/>
      <point x="129" y="752" type="qcurve" smooth="yes"/>
      <point x="188" y="752"/>
      <point x="254" y="640"/>
      <point x="254" y="562" type="qcurve" smooth="yes"/>
      <point x="254" y="483"/>
      <point x="188" y="372"/>
      <point x="129" y="372" type="qcurve" smooth="yes"/>
      <point x="69" y="372"/>
      <point x="4" y="483"/>
    </contour>
    <contour>
      <point x="77" y="562" type="qcurve" smooth="yes"/>
      <point x="77" y="511"/>
      <point x="104" y="447"/>
      <point x="129" y="447" type="qcurve" smooth="yes"/>
      <point x="153" y="447"/>
      <point x="181" y="511"/>
      <point x="181" y="613"/>
      <point x="153" y="678"/>
      <point x="129" y="678" type="qcurve" smooth="yes"/>
      <point x="104" y="678"/>
      <point x="77" y="613"/>
    </contour>
    <contour>
      <point x="262" y="166" type="qcurve" smooth="yes"/>
      <point x="262" y="244"/>
      <point x="327" y="356"/>
      <point x="387" y="356" type="qcurve" smooth="yes"/>
      <point x="446" y="356"/>
      <point x="479" y="300" type="qcurve" smooth="yes"/>
      <point x="512" y="244"/>
      <point x="512" y="166" type="qcurve" smooth="yes"/>
      <point x="512" y="87"/>
      <point x="446" y="-24"/>
      <point x="387" y="-24" type="qcurve" smooth="yes"/>
      <point x="327" y="-24"/>
      <point x="262" y="87"/>
    </contour>
    <contour>
      <point x="335" y="166" type="qcurve" smooth="yes"/>
      <point x="335" y="115"/>
      <point x="362" y="51"/>
      <point x="387" y="51" type="qcurve" smooth="yes"/>
      <point x="411" y="51"/>
      <point x="439" y="115"/>
      <point x="439" y="217"/>
      <point x="411" y="282"/>
      <point x="387" y="282" type="qcurve" smooth="yes"/>
      <point x="362" y="282"/>
      <point x="335" y="217"/>
    </contour>
  </outline>
</glyph>
<glyph name="ampersand" format="1">
  <advance width="512"/>
  <unicode hex="0026"/>
  <outline>
    <contour>
      <point x="508" y="58" type="qcurve" smooth="no"/>
      <point x="509" y="47" type="line" smooth="no"/>
      <point x="479" y="26"/>
      <point x="428" y="-27" type="qcurve" smooth="no"/>
      <point x="337" y="64" type="line" smooth="no"/>
      <point x="325" y="52"/>
      <point x="288" y="25" type="qcurve" smooth="yes"/>
      <point x="251" y="-2"/>
      <point x="186" y="-2" type="qcurve" smooth="yes"/>
      <point x="110" y="-2"/>
      <point x="60" y="64" type="qcurve" smooth="yes"/>
      <point x="11" y="130"/>
      <point x="11" y="196" type="qcurve" smooth="yes"/>
      <point x="11" y="271"/>
      <point x="82" y="359"/>
      <point x="119" y="389" type="qcurve" smooth="no"/>
      <point x="99" y="436"/>
      <point x="68" y="539"/>
      <point x="68" y="589" type="qcurve" smooth="yes"/>
      <point x="68" y="655"/>
      <point x="153" y="756"/>
      <point x="228" y="756" type="qcurve" smooth="no"/>
      <point x="294" y="754"/>
      <point x="381" y="659"/>
      <point x="383" y="593" type="qcurve" smooth="no"/>
      <point x="383" y="514"/>
      <point x="283" y="417"/>
      <point x="216" y="368" type="qcurve" smooth="no"/>
      <point x="260" y="280"/>
      <point x="335" y="198" type="qcurve" smooth="no"/>
      <point x="357" y="251"/>
      <point x="361" y="326" type="qcurve" smooth="no"/>
      <point x="443" y="326" type="line" smooth="no"/>
      <point x="439" y="224"/>
      <point x="398" y="142" type="qcurve" smooth="no"/>
      <point x="444" y="103"/>
    </contour>
    <contour>
      <point x="97" y="196" type="qcurve" smooth="yes"/>
      <point x="97" y="142"/>
      <point x="138" y="79"/>
      <point x="186" y="79" type="qcurve" smooth="yes"/>
      <point x="243" y="79"/>
      <point x="281" y="113"/>
      <point x="287" y="119" type="qcurve" smooth="no"/>
      <point x="269" y="140"/>
      <point x="194" y="236"/>
      <point x="153" y="317" type="qcurve" smooth="no"/>
      <point x="137" y="302"/>
      <point x="97" y="254"/>
    </contour>
    <contour>
      <point x="301" y="593" type="qcurve" smooth="no"/>
      <point x="299" y="638"/>
      <point x="278" y="660" type="qcurve" smooth="yes"/>
      <point x="256" y="683"/>
      <point x="226" y="683" type="qcurve" smooth="yes"/>
      <point x="195" y="683"/>
      <point x="148" y="646"/>
      <point x="148" y="589" type="qcurve" smooth="yes"/>
      <point x="148" y="543"/>
      <point x="164" y="479"/>
      <point x="185" y="433" type="qcurve" smooth="no"/>
      <point x="228" y="462"/>
      <point x="301" y="528"/>
    </contour>
  </outline>
</glyph>
<glyph name="quotesingle" format="1">
  <advance width="512"/>
  <unicode hex="0027"/>
  <outline>
    <contour>
      <point x="306" y="738" type="line" smooth="no"/>
      <point x="218" y="584" type="line" smooth="no"/>
      <point x="186" y="584" type="line" smooth="no"/>
      <point x="232" y="712" type="line" smooth="no"/>
      <point x="180" y="712" type="line" smooth="no"/>
      <point x="180" y="836" type="line" smooth="no"/>
      <point x="306" y="836" type="line" smooth="no"/>
    </contour>
  </outline>
</glyph>
<glyph name="parenleft" format="1">
  <advance width="512"/>
  <unicode hex="0028"/>
  <outline>
    <contour>
      <point x="404" y="-75" type="qcurve" smooth="no"/>
      <point x="338" y="-107" type="line" smooth="no"/>
      <point x="232" y="5"/>
      <point x="172" y="118" type="qcurve" smooth="yes"/>
      <point x="112" y="231"/>
      <point x="112" y="515"/>
      <point x="232" y="741"/>
      <point x="338" y="853" type="qcurve" smooth="no"/>
      <point x="404" y="821" type="line" smooth="no"/>
      <point x="294" y="711"/>
      <point x="196" y="515"/>
      <point x="196" y="373" type="qcurve" smooth="yes"/>
      <point x="196" y="231"/>
      <point x="245" y="133" type="qcurve" smooth="yes"/>
      <point x="294" y="35"/>
    </contour>
  </outline>
</glyph>
<glyph name="parenright" format="1">
  <advance width="512"/>
  <unicode hex="0029"/>
  <outline>
    <contour>
      <point x="102" y="-75" type="line" smooth="no"/>
      <point x="212" y="35"/>
      <point x="310" y="231"/>
      <point x="310" y="515"/>
      <point x="212" y="711"/>
      <point x="102" y="821" type="qcurve" smooth="no"/>
      <point x="168" y="853" type="line" smooth="no"/>
      <point x="274" y="741"/>
      <point x="394" y="515"/>
      <point x="394" y="373" type="qcurve" smooth="yes"/>
      <point x="394" y="231"/>
      <point x="334" y="118" type="qcurve" smooth="yes"/>
      <point x="274" y="5"/>
      <point x="168" y="-107" type="qcurve" smooth="no"/>
    </contour>
  </outline>
</glyph>
<glyph name="asterisk" format="1">
  <advance width="512"/>
  <unicode hex="002a"/>
  <outline>
    <contour>
      <point x="292" y="672" type="line" smooth="no"/>
      <point x="292" y="648"/>
      <point x="277" y="484"/>
      <point x="275" y="417" type="qcurve" smooth="no"/>
      <point x="325" y="458"/>
      <point x="443" y="570"/>
      <point x="462" y="585" type="qcurve" smooth="no"/>
      <point x="507" y="526" type="line" smooth="no"/>
      <point x="489" y="511"/>
      <point x="349" y="421"/>
      <point x="294" y="381" type="qcurve" smooth="no"/>
      <point x="294" y="378" type="line" smooth="no"/>
      <point x="349" y="338"/>
      <point x="489" y="248"/>
      <point x="507" y="233" type="qcurve" smooth="no"/>
      <point x="462" y="174" type="line" smooth="no"/>
      <point x="443" y="189"/>
      <point x="325" y="301"/>
      <point x="275" y="342" type="qcurve" smooth="no"/>
      <point x="277" y="276"/>
      <point x="284" y="196" type="qcurve" smooth="yes"/>
      <point x="292" y="115"/>
      <point x="292" y="91" type="qcurve" smooth="no"/>
      <point x="218" y="91" type="line" smooth="no"/>
      <point x="218" y="115"/>
      <point x="233" y="276"/>
      <point x="235" y="342" type="qcurve" smooth="no"/>
      <point x="185" y="301"/>
      <point x="67" y="189"/>
      <point x="48" y="174" type="qcurve" smooth="no"/>
      <point x="3" y="233" type="line" smooth="no"/>
      <point x="21" y="248"/>
      <point x="161" y="338"/>
      <point x="216" y="378" type="qcurve" smooth="no"/>
      <point x="216" y="381" type="line" smooth="no"/>
      <point x="161" y="421"/>
      <point x="21" y="511"/>
      <point x="3" y="526" type="qcurve" smooth="no"/>
      <point x="48" y="585" type="line" smooth="no"/>
      <point x="67" y="570"/>
      <point x="185" y="458"/>
      <point x="235" y="417" type="qcurve" smooth="no"/>
      <point x="233" y="484"/>
      <point x="218" y="648"/>
      <point x="218" y="672" type="qcurve" smooth="no"/>
    </contour>
  </outline>
</glyph>
<glyph name="plus" format="1">
  <advance width="512"/>
  <unicode hex="002b"/>
  <outline>
    <contour>
      <point x="28" y="431" type="line" smooth="no"/>
      <point x="230" y="431" type="line" smooth="no"/>
      <point x="230" y="720" type="line" smooth="no"/>
      <point x="303" y="720" type="line" smooth="no"/>
      <point x="303" y="431" type="line" smooth="no"/>
      <point x="490" y="431" type="line" smooth="no"/>
      <point x="490" y="359" type="line" smooth="no"/>
      <point x="303" y="359" type="line" smooth="no"/>
      <point x="303" y="25" type="line" smooth="no"/>
      <point x="230" y="25" type="line" smooth="no"/>
      <point x="230" y="359" type="line" smooth="no"/>
      <point x="28" y="359" type="line" smooth="no"/>
    </contour>
  </outline>
</glyph>
<glyph name="comma" format="1">
  <advance width="512"/>
  <unicode hex="002c"/>
  <outline>
    <contour>
      <point x="278" y="-18" type="line" smooth="no"/>
      <point x="190" y="-144" type="line" smooth="no"/>
      <point x="158" y="-144" type="line" smooth="no"/>
      <point x="204" y="-44" type="line" smooth="no"/>
      <point x="152" y="-44" type="line" smooth="no"/>
      <point x="152" y="80" type="line" smooth="no"/>
      <point x="278" y="80" type="line" smooth="no"/>
    </contour>
  </outline>
</glyph>
<glyph name="hyphen" format="1">
  <advance width="512"/>
  <unicode hex="002d"/>
  <outline>
    <contour>
      <point x="32" y="431" type="line" smooth="no"/>
      <point x="486" y="431" type="line" smooth="no"/>
      <point x="486" y="359" type="line" smooth="no"/>
      <point x="32" y="359" type="line" smooth="no"/>
    </contour>
  </outline>
</glyph>
<glyph name="period" format="1">
  <advance width="512"/>
  <unicode hex="002e"/>
  <outline>
    <contour>
      <point x="278" y="-44" type="line" smooth="no"/>
      <point x="152" y="-44" type="line" smooth="no"/>
      <point x="152" y="80" type="line" smooth="no"/>
      <point x="278" y="80" type="line" smooth="no"/>
    </contour>
  </outline>
</glyph>
<glyph name="slash" format="1">
  <advance width="512"/>
  <unicode hex="002f"/>
  <outline>
    <contour>
      <point x="454" y="814" type="line" smooth="no"/>
      <point x="510" y="793" type="line" smooth="no"/>
      <point x="56" y="-67" type="line" smooth="no"/>
      <point x="-1" y="-50" type="line" smooth="no"/>
    </contour>
  </outline>
</glyph>
<glyph name="zero" format="1">
  <advance width="512"/>
  <unicode hex="0030"/>
  <outline>
    <contour>
      <point x="46" y="378" type="qcurve" smooth="yes"/>
      <point x="46" y="528"/>
      <point x="175" y="756"/>
      <point x="343" y="756"/>
      <point x="473" y="528"/>
      <point x="473" y="377" type="qcurve" smooth="yes"/>
      <point x="473" y="226"/>
      <point x="408" y="112" type="qcurve" smooth="yes"/>
      <point x="343" y="-2"/>
      <point x="175" y="-2"/>
      <point x="46" y="226"/>
    </contour>
    <contour>
      <point x="138" y="377" type="qcurve" smooth="yes"/>
      <point x="138" y="238"/>
      <point x="176" y="158" type="qcurve" smooth="yes"/>
      <point x="214" y="79"/>
      <point x="304" y="79"/>
      <point x="381" y="238"/>
      <point x="381" y="378" type="qcurve" smooth="yes"/>
      <point x="381" y="521"/>
      <point x="304" y="675"/>
      <point x="214" y="675"/>
      <point x="138" y="521"/>
    </contour>
  </outline>
</glyph>
<glyph name="one" format="1">
  <advance width="512"/>
  <unicode hex="0031"/>
  <outline>
    <contour>
      <point x="307" y="-12" type="line" smooth="no"/>
      <point x="221" y="-12" type="line" smooth="no"/>
      <point x="221" y="600" type="line" smooth="yes"/>
      <point x="221" y="631"/>
      <point x="185" y="631" type="qcurve" smooth="yes"/>
      <point x="114" y="631" type="line" smooth="no"/>
      <point x="114" y="688" type="line" smooth="no"/>
      <point x="235" y="695"/>
      <point x="256" y="761" type="qcurve" smooth="no"/>
      <point x="307" y="761" type="line" smooth="no"/>
      <point x="307" y="699" type="line" smooth="no"/>
    </contour>
  </outline>
</glyph>
<glyph name="two" format="1">
  <advance width="512"/>
  <unicode hex="0032"/>
  <outline>
    <contour>
      <point x="261" y="756" type="qcurve" smooth="yes"/>
      <point x="350" y="756"/>
      <point x="459" y="650"/>
      <point x="459" y="552" type="qcurve" smooth="yes"/>
      <point x="459" y="459"/>
      <point x="372" y="360" type="qcurve" smooth="no"/>
      <point x="131" y="94" type="line" smooth="no"/>
      <point x="452" y="94" type="line" smooth="no"/>
      <point x="439" y="4" type="line" smooth="no"/>
      <point x="46" y="4" type="line" smooth="no"/>
      <point x="46" y="106" type="line" smooth="no"/>
      <point x="288" y="378" type="line" smooth="no"/>
      <point x="367" y="457"/>
      <point x="367" y="553" type="qcurve" smooth="yes"/>
      <point x="367" y="630"/>
      <point x="303" y="675"/>
      <point x="261" y="675" type="qcurve" smooth="yes"/>
      <point x="218" y="675"/>
      <point x="149" y="635"/>
      <point x="149" y="544" type="qcurve" smooth="no"/>
      <point x="63" y="544" type="line" smooth="no"/>
      <point x="63" y="658"/>
      <point x="181" y="756"/>
    </contour>
  </outline>
</glyph>
<glyph name="three" format="1">
  <advance width="512"/>
  <unicode hex="0033"/>
  <outline>
    <contour>
      <point x="261" y="756" type="qcurve" smooth="yes"/>
      <point x="346" y="756"/>
      <point x="459" y="634"/>
      <point x="459" y="560" type="qcurve" smooth="yes"/>
      <point x="459" y="513"/>
      <point x="396" y="414"/>
      <point x="352" y="402" type="qcurve" smooth="no"/>
      <point x="396" y="392"/>
      <point x="483" y="287"/>
      <point x="483" y="210" type="qcurve" smooth="yes"/>
      <point x="483" y="128"/>
      <point x="424" y="63" type="qcurve" smooth="yes"/>
      <point x="366" y="-2"/>
      <point x="261" y="-2" type="qcurve" smooth="yes"/>
      <point x="169" y="-2"/>
      <point x="108" y="50" type="qcurve" smooth="yes"/>
      <point x="47" y="102"/>
      <point x="47" y="210" type="qcurve" smooth="no"/>
      <point x="133" y="210" type="line" smooth="no"/>
      <point x="133" y="125"/>
      <point x="170" y="102" type="qcurve" smooth="yes"/>
      <point x="206" y="79"/>
      <point x="261" y="79" type="qcurve" smooth="yes"/>
      <point x="319" y="79"/>
      <point x="391" y="140"/>
      <point x="391" y="209" type="qcurve" smooth="yes"/>
      <point x="391" y="285"/>
      <point x="293" y="368"/>
      <point x="228" y="368" type="qcurve" smooth="no"/>
      <point x="228" y="432" type="line" smooth="no"/>
      <point x="294" y="432"/>
      <point x="367" y="517"/>
      <point x="367" y="561" type="qcurve" smooth="yes"/>
      <point x="367" y="614"/>
      <point x="303" y="675"/>
      <point x="261" y="675" type="qcurve" smooth="yes"/>
      <point x="218" y="675"/>
      <point x="149" y="629"/>
      <point x="149" y="544" type="qcurve" smooth="no"/>
      <point x="63" y="544" type="line" smooth="no"/>
      <point x="63" y="660"/>
      <point x="185" y="756"/>
    </contour>
  </outline>
</glyph>
<glyph name="four" format="1">
  <advance width="512"/>
  <unicode hex="0034"/>
  <outline>
    <contour>
      <point x="377" y="-12" type="line" smooth="no"/>
      <point x="291" y="-12" type="line" smooth="no"/>
      <point x="291" y="164" type="line" smooth="no"/>
      <point x="21" y="164" type="line" smooth="no"/>
      <point x="21" y="210" type="line" smooth="no"/>
      <point x="302" y="761" type="line" smooth="no"/>
      <point x="377" y="761" type="line" smooth="no"/>
      <point x="377" y="254" type="line" smooth="no"/>
      <point x="488" y="254" type="line" smooth="no"/>
      <point x="488" y="164" type="line" smooth="no"/>
      <point x="377" y="164" type="line" smooth="no"/>
    </contour>
    <contour>
      <point x="291" y="575" type="line" smooth="no"/>
      <point x="124" y="254" type="line" smooth="no"/>
      <point x="291" y="254" type="line" smooth="no"/>
    </contour>
  </outline>
</glyph>
<glyph name="five" format="1">
  <advance width="512"/>
  <unicode hex="0035"/>
  <outline>
    <contour>
      <point x="277" y="478" type="qcurve" smooth="yes"/>
      <point x="366" y="478"/>
      <point x="483" y="356"/>
      <point x="483" y="248" type="qcurve" smooth="yes"/>
      <point x="483" y="144"/>
      <point x="350" y="-2"/>
      <point x="239" y="-2" type="qcurve" smooth="yes"/>
      <point x="147" y="-2"/>
      <point x="47" y="112"/>
      <point x="47" y="186" type="qcurve" smooth="no"/>
      <point x="133" y="186" type="line" smooth="no"/>
      <point x="133" y="135"/>
      <point x="192" y="79"/>
      <point x="239" y="79" type="qcurve" smooth="yes"/>
      <point x="303" y="79"/>
      <point x="391" y="168"/>
      <point x="391" y="248" type="qcurve" smooth="yes"/>
      <point x="391" y="324"/>
      <point x="325" y="397"/>
      <point x="277" y="397" type="qcurve" smooth="yes"/>
      <point x="228" y="397"/>
      <point x="161" y="368"/>
      <point x="149" y="341" type="qcurve" smooth="no"/>
      <point x="71" y="341" type="line" smooth="no"/>
      <point x="95" y="750" type="line" smooth="no"/>
      <point x="444" y="750" type="line" smooth="no"/>
      <point x="425" y="660" type="line" smooth="no"/>
      <point x="167" y="660" type="line" smooth="no"/>
      <point x="155" y="444" type="line" smooth="no"/>
      <point x="215" y="478"/>
    </contour>
  </outline>
</glyph>
<glyph name="six" format="1">
  <advance width="512"/>
  <unicode hex="0036"/>
  <outline>
    <contour>
      <point x="277" y="478" type="qcurve" smooth="yes"/>
      <point x="352" y="478"/>
      <point x="483" y="354"/>
      <point x="483" y="240" type="qcurve" smooth="yes"/>
      <point x="483" y="144"/>
      <point x="352" y="-2"/>
      <point x="255" y="-2" type="qcurve" smooth="yes"/>
      <point x="163" y="-2"/>
      <point x="31" y="142"/>
      <point x="31" y="376" type="qcurve" smooth="yes"/>
      <point x="31" y="558"/>
      <point x="170" y="756"/>
      <point x="271" y="756" type="qcurve" smooth="yes"/>
      <point x="349" y="756"/>
      <point x="459" y="658"/>
      <point x="459" y="602" type="qcurve" smooth="no"/>
      <point x="365" y="602" type="line" smooth="no"/>
      <point x="365" y="639"/>
      <point x="306" y="675"/>
      <point x="271" y="675" type="qcurve" smooth="yes"/>
      <point x="221" y="675"/>
      <point x="129" y="558"/>
      <point x="124" y="420" type="qcurve" smooth="no"/>
      <point x="187" y="478"/>
    </contour>
    <contour>
      <point x="255" y="79" type="qcurve" smooth="yes"/>
      <point x="315" y="79"/>
      <point x="391" y="160"/>
      <point x="391" y="240" type="qcurve" smooth="yes"/>
      <point x="391" y="324"/>
      <point x="325" y="397"/>
      <point x="277" y="397" type="qcurve" smooth="yes"/>
      <point x="204" y="397"/>
      <point x="136" y="332"/>
      <point x="126" y="281" type="qcurve" smooth="no"/>
      <point x="133" y="156"/>
      <point x="204" y="79"/>
    </contour>
  </outline>
</glyph>
<glyph name="seven" format="1">
  <advance width="512"/>
  <unicode hex="0037"/>
  <outline>
    <contour>
      <point x="68" y="750" type="line" smooth="no"/>
      <point x="460" y="750" type="line" smooth="no"/>
      <point x="460" y="668" type="line" smooth="no"/>
      <point x="228" y="-12" type="line" smooth="no"/>
      <point x="140" y="-12" type="line" smooth="no"/>
      <point x="361" y="660" type="line" smooth="no"/>
      <point x="68" y="660" type="line" smooth="no"/>
    </contour>
  </outline>
</glyph>
<glyph name="eight" format="1">
  <advance width="512"/>
  <unicode hex="0038"/>
  <outline>
    <contour>
      <point x="23" y="210" type="qcurve" smooth="yes"/>
      <point x="23" y="291"/>
      <point x="101" y="372"/>
      <point x="146" y="393" type="qcurve" smooth="no"/>
      <point x="99" y="419"/>
      <point x="55" y="505"/>
      <point x="55" y="566" type="qcurve" smooth="yes"/>
      <point x="55" y="638"/>
      <point x="171" y="756"/>
      <point x="343" y="756"/>
      <point x="459" y="638"/>
      <point x="459" y="566" type="qcurve" smooth="yes"/>
      <point x="459" y="505"/>
      <point x="433" y="462" type="qcurve" smooth="yes"/>
      <point x="407" y="420"/>
      <point x="360" y="391" type="qcurve" smooth="no"/>
      <point x="403" y="369"/>
      <point x="491" y="291"/>
      <point x="491" y="210" type="qcurve" smooth="yes"/>
      <point x="491" y="120"/>
      <point x="351" y="-2"/>
      <point x="163" y="-2"/>
      <point x="23" y="120"/>
    </contour>
    <contour>
      <point x="115" y="210" type="qcurve" smooth="yes"/>
      <point x="115" y="144"/>
      <point x="194" y="79"/>
      <point x="320" y="79"/>
      <point x="399" y="144"/>
      <point x="399" y="210" type="qcurve" smooth="yes"/>
      <point x="399" y="271"/>
      <point x="323" y="326"/>
      <point x="240" y="355" type="qcurve" smooth="no"/>
      <point x="184" y="336"/>
      <point x="115" y="266"/>
    </contour>
    <contour>
      <point x="367" y="566" type="qcurve" smooth="yes"/>
      <point x="367" y="618"/>
      <point x="308" y="675"/>
      <point x="206" y="675"/>
      <point x="147" y="618"/>
      <point x="147" y="566" type="qcurve" smooth="yes"/>
      <point x="147" y="509"/>
      <point x="181" y="457"/>
      <point x="276" y="426" type="qcurve" smooth="no"/>
      <point x="315" y="442"/>
      <point x="367" y="509"/>
    </contour>
  </outline>
</glyph>
<glyph name="nine" format="1">
  <advance width="512"/>
  <unicode hex="0039"/>
  <outline>
    <contour>
      <point x="237" y="276" type="qcurve" smooth="yes"/>
      <point x="162" y="276"/>
      <point x="31" y="400"/>
      <point x="31" y="514" type="qcurve" smooth="yes"/>
      <point x="31" y="610"/>
      <point x="162" y="756"/>
      <point x="259" y="756" type="qcurve" smooth="yes"/>
      <point x="351" y="756"/>
      <point x="483" y="612"/>
      <point x="483" y="378" type="qcurve" smooth="yes"/>
      <point x="483" y="196"/>
      <point x="414" y="97" type="qcurve" smooth="yes"/>
      <point x="344" y="-2"/>
      <point x="243" y="-2" type="qcurve" smooth="yes"/>
      <point x="165" y="-2"/>
      <point x="110" y="47" type="qcurve" smooth="yes"/>
      <point x="55" y="96"/>
      <point x="55" y="152" type="qcurve" smooth="no"/>
      <point x="149" y="152" type="line" smooth="no"/>
      <point x="149" y="115"/>
      <point x="208" y="79"/>
      <point x="243" y="79" type="qcurve" smooth="yes"/>
      <point x="293" y="79"/>
      <point x="385" y="196"/>
      <point x="390" y="334" type="qcurve" smooth="no"/>
      <point x="327" y="276"/>
    </contour>
    <contour>
      <point x="259" y="675" type="qcurve" smooth="yes"/>
      <point x="199" y="675"/>
      <point x="161" y="634" type="qcurve" smooth="yes"/>
      <point x="123" y="594"/>
      <point x="123" y="514" type="qcurve" smooth="yes"/>
      <point x="123" y="430"/>
      <point x="189" y="357"/>
      <point x="237" y="357" type="qcurve" smooth="yes"/>
      <point x="310" y="357"/>
      <point x="378" y="422"/>
      <point x="388" y="473" type="qcurve" smooth="no"/>
      <point x="381" y="598"/>
      <point x="310" y="675"/>
    </contour>
  </outline>
</glyph>
<glyph name="colon" format="1">
  <advance width="512"/>
  <unicode hex="003a"/>
  <outline>
    <contour>
      <point x="318" y="422" type="line" smooth="no"/>
      <point x="192" y="422" type="line" smooth="no"/>
      <point x="192" y="546" type="line" smooth="no"/>
      <point x="318" y="546" type="line" smooth="no"/>
    </contour>
    <contour>
      <point x="318" y="76" type="line" smooth="no"/>
      <point x="192" y="76" type="line" smooth="no"/>
      <point x="192" y="200" type="line" smooth="no"/>
      <point x="318" y="200" type="line" smooth="no"/>
    </contour>
  </outline>
</glyph>
<glyph name="semicolon" format="1">
  <advance width="512"/>
  <unicode hex="003b"/>
  <outline>
    <contour>
      <point x="318" y="422" type="line" smooth="no"/>
      <point x="192" y="422" type="line" smooth="no"/>
      <point x="192" y="546" type="line" smooth="no"/>
      <point x="318" y="546" type="line" smooth="no"/>
    </contour>
    <contour>
      <point x="318" y="94" type="line" smooth="no"/>
      <point x="246" y="-52" type="line" smooth="no"/>
      <point x="214" y="-52" type="line" smooth="no"/>
      <point x="244" y="76" type="line" smooth="no"/>
      <point x="192" y="76" type="line" smooth="no"/>
      <point x="192" y="200" type="line" smooth="no"/>
      <point x="318" y="200" type="line" smooth="no"/>
    </contour>
  </outline>
</glyph>
<glyph name="less" format="1">
  <advance width="512"/>
  <unicode hex="003c"/>
  <outline>
    <contour>
      <point x="507" y="-55" type="line" smooth="no"/>
      <point x="461" y="-103" type="line" smooth="no"/>
      <point x="23" y="340" type="line" smooth="no"/>
      <point x="5" y="360"/>
      <point x="23" y="380" type="qcurve" smooth="no"/>
      <point x="461" y="823" type="line" smooth="no"/>
      <point x="507" y="775" type="line" smooth="no"/>
      <point x="97" y="361" type="line" smooth="no"/>
    </contour>
  </outline>
</glyph>
<glyph name="equal" format="1">
  <advance width="512"/>
  <unicode hex="003d"/>
  <outline>
    <contour>
      <point x="28" y="503" type="line" smooth="no"/>
      <point x="490" y="503" type="line" smooth="no"/>
      <point x="490" y="431" type="line" smooth="no"/>
      <point x="28" y="431" type="line" smooth="no"/>
    </contour>
    <contour>
      <point x="28" y="293" type="line" smooth="no"/>
      <point x="490" y="293" type="line" smooth="no"/>
      <point x="490" y="221" type="line" smooth="no"/>
      <point x="28" y="221" type="line" smooth="no"/>
    </contour>
  </outline>
</glyph>
<glyph name="greater" format="1">
  <advance width="512"/>
  <unicode hex="003e"/>
  <outline>
    <contour>
      <point x="11" y="-55" type="line" smooth="no"/>
      <point x="421" y="361" type="line" smooth="no"/>
      <point x="11" y="775" type="line" smooth="no"/>
      <point x="57" y="823" type="line" smooth="no"/>
      <point x="495" y="380" type="line" smooth="no"/>
      <point x="513" y="360"/>
      <point x="495" y="340" type="qcurve" smooth="no"/>
      <point x="57" y="-103" type="line" smooth="no"/>
    </contour>
  </outline>
</glyph>
<glyph name="question" format="1">
  <advance width="512"/>
  <unicode hex="003f"/>
  <outline>
    <contour>
      <point x="198" y="-56" type="line" smooth="no"/>
      <point x="198" y="58" type="line" smooth="no"/>
      <point x="306" y="58" type="line" smooth="no"/>
      <point x="306" y="-56" type="line" smooth="no"/>
    </contour>
    <contour>
      <point x="266" y="777" type="qcurve" smooth="no"/>
      <point x="334" y="779"/>
      <point x="452" y="723"/>
      <point x="503" y="641"/>
      <point x="503" y="595" type="qcurve" smooth="yes"/>
      <point x="503" y="510"/>
      <point x="449" y="465" type="qcurve" smooth="yes"/>
      <point x="395" y="420"/>
      <point x="307" y="365"/>
      <point x="294" y="290"/>
      <point x="294" y="240" type="qcurve" smooth="yes"/>
      <point x="294" y="181" type="line" smooth="no"/>
      <point x="209" y="181" type="line" smooth="no"/>
      <point x="209" y="240" type="line" smooth="yes"/>
      <point x="209" y="290"/>
      <point x="233" y="386"/>
      <point x="332" y="463"/>
      <point x="403" y="529"/>
      <point x="403" y="594" type="qcurve" smooth="yes"/>
      <point x="403" y="634"/>
      <point x="363" y="683"/>
      <point x="313" y="704"/>
      <point x="219" y="704"/>
      <point x="156" y="680"/>
      <point x="120" y="612"/>
      <point x="120" y="570" type="qcurve" smooth="yes"/>
      <point x="120" y="524" type="line" smooth="no"/>
      <point x="16" y="524" type="line" smooth="no"/>
      <point x="16" y="570" type="line" smooth="yes"/>
      <point x="16" y="612"/>
      <point x="73" y="716"/>
      <point x="185" y="777"/>
    </contour>
  </outline>
</glyph>
<glyph name="at" format="1">
  <advance width="512"/>
  <unicode hex="0040"/>
  <outline>
    <contour>
      <point x="2" y="360" type="qcurve" smooth="yes"/>
      <point x="2" y="534"/>
      <point x="162" y="785"/>
      <point x="271" y="785" type="qcurve" smooth="yes"/>
      <point x="386" y="785"/>
      <point x="508" y="550"/>
      <point x="508" y="396" type="qcurve" smooth="yes"/>
      <point x="508" y="294"/>
      <point x="415" y="134"/>
      <point x="371" y="134" type="qcurve" smooth="yes"/>
      <point x="329" y="134"/>
      <point x="294" y="160"/>
      <point x="287" y="190" type="qcurve" smooth="no"/>
      <point x="264" y="162"/>
      <point x="216" y="130"/>
      <point x="142" y="154"/>
      <point x="94" y="245"/>
      <point x="96" y="363"/>
      <point x="132" y="492"/>
      <point x="207" y="591"/>
      <point x="275" y="615"/>
      <point x="317" y="598"/>
      <point x="330" y="577" type="qcurve" smooth="no"/>
      <point x="338" y="631" type="line" smooth="no"/>
      <point x="398" y="631" type="line" smooth="no"/>
      <point x="353" y="720"/>
      <point x="272" y="720" type="qcurve" smooth="yes"/>
      <point x="189" y="720"/>
      <point x="70" y="523"/>
      <point x="70" y="197"/>
      <point x="165" y="5"/>
      <point x="261" y="5" type="qcurve" smooth="yes"/>
      <point x="319" y="5"/>
      <point x="404" y="64"/>
      <point x="453" y="153" type="qcurve" smooth="no"/>
      <point x="511" y="127" type="line" smooth="no"/>
      <point x="473" y="46"/>
      <point x="351" y="-61"/>
      <point x="261" y="-61" type="qcurve" smooth="yes"/>
      <point x="138" y="-61"/>
      <point x="2" y="185"/>
    </contour>
    <contour>
      <point x="360" y="281" type="line" smooth="no"/>
      <point x="352" y="234"/>
      <point x="360" y="207"/>
      <point x="377" y="207" type="qcurve" smooth="yes"/>
      <point x="391" y="207"/>
      <point x="443" y="305"/>
      <point x="443" y="396" type="qcurve" smooth="yes"/>
      <point x="443" y="528"/>
      <point x="405" y="616" type="qcurve" smooth="no"/>
    </contour>
    <contour>
      <point x="290" y="288" type="qcurve" smooth="no"/>
      <point x="321" y="507" type="line" smooth="no"/>
      <point x="312" y="538"/>
      <point x="280" y="556"/>
      <point x="236" y="542"/>
      <point x="189" y="468"/>
      <point x="160" y="363"/>
      <point x="159" y="261"/>
      <point x="178" y="209"/>
      <point x="220" y="199"/>
      <point x="270" y="227"/>
    </contour>
  </outline>
</glyph>
<glyph name="B" format="1">
  <advance width="512"/>
  <unicode hex="0042"/>
  <outline>
    <contour>
      <point x="407" y="216" type="qcurve" smooth="yes"/>
      <point x="407" y="281"/>
      <point x="310" y="342"/>
      <point x="202" y="342" type="qcurve" smooth="yes"/>
      <point x="130" y="342" type="line" smooth="no"/>
      <point x="130" y="77" type="line" smooth="no"/>
      <point x="192" y="77" type="line" smooth="no"/>
      <point x="192" y="78" type="line" smooth="no"/>
      <point x="331" y="78"/>
      <point x="407" y="161"/>
    </contour>
    <contour>
      <point x="381" y="546" type="qcurve" smooth="yes"/>
      <point x="381" y="601"/>
      <point x="313" y="660"/>
      <point x="192" y="660" type="qcurve" smooth="yes"/>
      <point x="130" y="660" type="line" smooth="no"/>
      <point x="130" y="432" type="line" smooth="no"/>
      <point x="202" y="432" type="line" smooth="yes"/>
      <point x="310" y="432"/>
      <point x="381" y="491"/>
    </contour>
    <contour>
      <point x="44" y="-12" type="line" smooth="no"/>
      <point x="44" y="750" type="line" smooth="no"/>
      <point x="192" y="750" type="line" smooth="yes"/>
      <point x="352" y="750"/>
      <point x="473" y="646"/>
      <point x="473" y="546" type="qcurve" smooth="yes"/>
      <point x="473" y="462"/>
      <point x="396" y="392" type="qcurve" smooth="no"/>
      <point x="499" y="322"/>
      <point x="499" y="216" type="qcurve" smooth="yes"/>
      <point x="499" y="116"/>
      <point x="438" y="52" type="qcurve" smooth="yes"/>
      <point x="378" y="-12"/>
      <point x="192" y="-12" type="qcurve" smooth="yes"/>
    </contour>
  </outline>
</glyph>
<glyph name="D" format="1">
  <advance width="512"/>
  <unicode hex="0044"/>
  <outline>
    <contour>
      <point x="44" y="-12" type="line" smooth="no"/>
      <point x="44" y="750" type="line" smooth="no"/>
      <point x="208" y="750" type="line" smooth="yes"/>
      <point x="368" y="750"/>
      <point x="497" y="540"/>
      <point x="497" y="198"/>
      <point x="368" y="-12"/>
      <point x="208" y="-12" type="qcurve" smooth="yes"/>
    </contour>
    <contour>
      <point x="405" y="369" type="qcurve" smooth="yes"/>
      <point x="405" y="503"/>
      <point x="321" y="660"/>
      <point x="208" y="660" type="qcurve" smooth="yes"/>
      <point x="130" y="660" type="line" smooth="no"/>
      <point x="130" y="78" type="line" smooth="no"/>
      <point x="208" y="78" type="line" smooth="yes"/>
      <point x="321" y="78"/>
      <point x="405" y="235"/>
    </contour>
  </outline>
</glyph>
<glyph name="E" format="1">
  <advance width="512"/>
  <unicode hex="0045"/>
  <outline>
    <contour>
      <point x="468" y="750" type="line" smooth="no"/>
      <point x="468" y="660" type="line" smooth="no"/>
      <point x="130" y="660" type="line" smooth="no"/>
      <point x="130" y="432" type="line" smooth="no"/>
      <point x="412" y="432" type="line" smooth="no"/>
      <point x="412" y="342" type="line" smooth="no"/>
      <point x="130" y="342" type="line" smooth="no"/>
      <point x="130" y="78" type="line" smooth="no"/>
      <point x="468" y="78" type="line" smooth="no"/>
      <point x="468" y="-12" type="line" smooth="no"/>
      <point x="44" y="-12" type="line" smooth="no"/>
      <point x="44" y="750" type="line" smooth="no"/>
    </contour>
  </outline>
</glyph>
<glyph name="G" format="1">
  <advance width="512"/>
  <unicode hex="0047"/>
  <outline>
    <contour>
      <point x="14" y="378" type="qcurve" smooth="yes"/>
      <point x="14" y="528"/>
      <point x="151" y="756"/>
      <point x="259" y="756" type="qcurve" smooth="yes"/>
      <point x="345" y="756"/>
      <point x="479" y="642"/>
      <point x="493" y="496" type="qcurve" smooth="no"/>
      <point x="397" y="496" type="line" smooth="no"/>
      <point x="387" y="609"/>
      <point x="312" y="675"/>
      <point x="259" y="675" type="qcurve" smooth="yes"/>
      <point x="198" y="675"/>
      <point x="106" y="521"/>
      <point x="106" y="377" type="qcurve" smooth="yes"/>
      <point x="106" y="230"/>
      <point x="198" y="71"/>
      <point x="259" y="71" type="qcurve" smooth="yes"/>
      <point x="318" y="71"/>
      <point x="402" y="142"/>
      <point x="410" y="256" type="qcurve" smooth="no"/>
      <point x="410" y="320" type="line" smooth="no"/>
      <point x="274" y="320" type="line" smooth="no"/>
      <point x="274" y="400" type="line" smooth="no"/>
      <point x="490" y="400" type="line" smooth="no"/>
      <point x="490" y="-28" type="line" smooth="no"/>
      <point x="426" y="-28" type="line" smooth="no"/>
      <point x="405" y="40" type="line" smooth="no"/>
      <point x="344" y="-10"/>
      <point x="259" y="-10" type="qcurve" smooth="yes"/>
      <point x="151" y="-10"/>
      <point x="14" y="218"/>
    </contour>
  </outline>
</glyph>
<glyph name="H" format="1">
  <advance width="512"/>
  <unicode hex="0048"/>
  <outline>
    <contour>
      <point x="130" y="-12" type="line" smooth="no"/>
      <point x="44" y="-12" type="line" smooth="no"/>
      <point x="44" y="750" type="line" smooth="no"/>
      <point x="130" y="750" type="line" smooth="no"/>
      <point x="130" y="432" type="line" smooth="no"/>
      <point x="400" y="432" type="line" smooth="no"/>
      <point x="400" y="750" type="line" smooth="no"/>
      <point x="486" y="750" type="line" smooth="no"/>
      <point x="486" y="-12" type="line" smooth="no"/>
      <point x="400" y="-12" type="line" smooth="no"/>
      <point x="400" y="342" type="line" smooth="no"/>
      <point x="130" y="342" type="line" smooth="no"/>
    </contour>
  </outline>
</glyph>
<glyph name="I" format="1">
  <advance width="512"/>
  <unicode hex="0049"/>
  <outline>
    <contour>
      <point x="300" y="-12" type="line" smooth="no"/>
      <point x="214" y="-12" type="line" smooth="no"/>
      <point x="214" y="750" type="line" smooth="no"/>
      <point x="300" y="750" type="line" smooth="no"/>
    </contour>
  </outline>
</glyph>
<glyph name="J" format="1">
  <advance width="512"/>
  <unicode hex="004a"/>
  <outline>
    <contour>
      <point x="207" y="28" type="qcurve" smooth="yes"/>
      <point x="243" y="28"/>
      <point x="286" y="79"/>
      <point x="286" y="170" type="qcurve" smooth="yes"/>
      <point x="286" y="750" type="line" smooth="no"/>
      <point x="372" y="750" type="line" smooth="no"/>
      <point x="372" y="170" type="line" smooth="yes"/>
      <point x="372" y="23"/>
      <point x="280" y="-64"/>
      <point x="207" y="-64" type="qcurve" smooth="yes"/>
      <point x="135" y="-64"/>
      <point x="43" y="33"/>
      <point x="43" y="138" type="qcurve" smooth="no"/>
      <point x="133" y="138" type="line" smooth="no"/>
      <point x="133" y="81"/>
      <point x="152" y="54" type="qcurve" smooth="no"/>
      <point x="172" y="28"/>
    </contour>
  </outline>
</glyph>
<glyph name="K" format="1">
  <advance width="512"/>
  <unicode hex="004b"/>
  <outline>
    <contour>
      <point x="130" y="-12" type="line" smooth="no"/>
      <point x="44" y="-12" type="line" smooth="no"/>
      <point x="44" y="750" type="line" smooth="no"/>
      <point x="130" y="750" type="line" smooth="no"/>
      <point x="130" y="418" type="line" smooth="no"/>
      <point x="352" y="750" type="line" smooth="no"/>
      <point x="458" y="750" type="line" smooth="no"/>
      <point x="275" y="479" type="line" smooth="no"/>
      <point x="492" y="-12" type="line" smooth="no"/>
      <point x="386" y="-12" type="line" smooth="no"/>
      <point x="214" y="388" type="line" smooth="no"/>
      <point x="130" y="264" type="line" smooth="no"/>
    </contour>
  </outline>
</glyph>
<glyph name="L" format="1">
  <advance width="512"/>
  <unicode hex="004c"/>
  <outline>
    <contour>
      <point x="44" y="750" type="line" smooth="no"/>
      <point x="130" y="750" type="line" smooth="no"/>
      <point x="130" y="78" type="line" smooth="no"/>
      <point x="468" y="78" type="line" smooth="no"/>
      <point x="468" y="-12" type="line" smooth="no"/>
      <point x="130" y="-12" type="line" smooth="no"/>
      <point x="44" y="-12" type="line" smooth="no"/>
      <point x="44" y="78" type="line" smooth="no"/>
    </contour>
  </outline>
</glyph>
<glyph name="M" format="1">
  <advance width="512"/>
  <unicode hex="004d"/>
  <outline>
    <contour>
      <point x="98" y="-12" type="line" smooth="no"/>
      <point x="12" y="-12" type="line" smooth="no"/>
      <point x="12" y="750" type="line" smooth="no"/>
      <point x="122" y="750" type="line" smooth="no"/>
      <point x="252" y="206" type="line" smooth="no"/>
      <point x="262" y="206" type="line" smooth="no"/>
      <point x="392" y="750" type="line" smooth="no"/>
      <point x="502" y="750" type="line" smooth="no"/>
      <point x="502" y="-12" type="line" smooth="no"/>
      <point x="416" y="-12" type="line" smooth="no"/>
      <point x="416" y="552" type="line" smooth="no"/>
      <point x="411" y="552" type="line" smooth="no"/>
      <point x="289" y="-9" type="line" smooth="no"/>
      <point x="225" y="-9" type="line" smooth="no"/>
      <point x="103" y="552" type="line" smooth="no"/>
      <point x="98" y="552" type="line" smooth="no"/>
    </contour>
  </outline>
</glyph>
<glyph name="N" format="1">
  <advance width="512"/>
  <unicode hex="004e"/>
  <outline>
    <contour>
      <point x="130" y="-12" type="line" smooth="no"/>
      <point x="44" y="-12" type="line" smooth="no"/>
      <point x="44" y="750" type="line" smooth="no"/>
      <point x="154" y="750" type="line" smooth="no"/>
      <point x="400" y="163" type="line" smooth="no"/>
      <point x="400" y="750" type="line" smooth="no"/>
      <point x="486" y="750" type="line" smooth="no"/>
      <point x="486" y="-12" type="line" smooth="no"/>
      <point x="376" y="-12" type="line" smooth="no"/>
      <point x="130" y="580" type="line" smooth="no"/>
    </contour>
  </outline>
</glyph>
<glyph name="P" format="1">
  <advance width="512"/>
  <unicode hex="0050"/>
  <outline>
    <contour>
      <point x="130" y="-12" type="line" smooth="no"/>
      <point x="44" y="-12" type="line" smooth="no"/>
      <point x="44" y="750" type="line" smooth="no"/>
      <point x="208" y="750" type="line" smooth="yes"/>
      <point x="384" y="750"/>
      <point x="497" y="638"/>
      <point x="497" y="454"/>
      <point x="384" y="342"/>
      <point x="208" y="342" type="qcurve" smooth="yes"/>
      <point x="130" y="342" type="line" smooth="no"/>
    </contour>
    <contour>
      <point x="405" y="546" type="qcurve" smooth="yes"/>
      <point x="405" y="601"/>
      <point x="337" y="660"/>
      <point x="208" y="660" type="qcurve" smooth="yes"/>
      <point x="130" y="660" type="line" smooth="no"/>
      <point x="130" y="432" type="line" smooth="no"/>
      <point x="208" y="432" type="line" smooth="yes"/>
      <point x="337" y="432"/>
      <point x="405" y="491"/>
    </contour>
  </outline>
</glyph>
<glyph name="Q" format="1">
  <advance width="512"/>
  <unicode hex="0051"/>
  <outline>
    <contour>
      <point x="14" y="378" type="qcurve" smooth="yes"/>
      <point x="14" y="528"/>
      <point x="151" y="756"/>
      <point x="367" y="756"/>
      <point x="505" y="528"/>
      <point x="505" y="377" type="qcurve" smooth="yes"/>
      <point x="505" y="219"/>
      <point x="437" y="106" type="qcurve" smooth="no"/>
      <point x="503" y="6" type="line" smooth="no"/>
      <point x="420" y="-44" type="line" smooth="no"/>
      <point x="373" y="30" type="line" smooth="no"/>
      <point x="323" y="-10"/>
      <point x="259" y="-10" type="qcurve" smooth="yes"/>
      <point x="151" y="-10"/>
      <point x="14" y="218"/>
    </contour>
    <contour>
      <point x="106" y="377" type="qcurve" smooth="yes"/>
      <point x="106" y="230"/>
      <point x="198" y="71"/>
      <point x="259" y="71" type="qcurve" smooth="yes"/>
      <point x="296" y="71"/>
      <point x="328" y="101" type="qcurve" smooth="no"/>
      <point x="254" y="217" type="line" smooth="no"/>
      <point x="335" y="259" type="line" smooth="no"/>
      <point x="384" y="186" type="line" smooth="no"/>
      <point x="413" y="259"/>
      <point x="413" y="378" type="qcurve" smooth="yes"/>
      <point x="413" y="521"/>
      <point x="320" y="675"/>
      <point x="198" y="675"/>
      <point x="106" y="521"/>
    </contour>
  </outline>
</glyph>
<glyph name="S" format="1">
  <advance width="512"/>
  <unicode hex="0053"/>
  <outline>
    <contour>
      <point x="23" y="202" type="qcurve" smooth="no"/>
      <point x="115" y="202" type="line" smooth="no"/>
      <point x="115" y="136"/>
      <point x="194" y="71"/>
      <point x="257" y="71" type="qcurve" smooth="yes"/>
      <point x="332" y="71"/>
      <point x="399" y="142"/>
      <point x="399" y="202" type="qcurve" smooth="yes"/>
      <point x="399" y="261"/>
      <point x="315" y="330"/>
      <point x="117" y="399"/>
      <point x="49" y="505"/>
      <point x="49" y="566" type="qcurve" smooth="yes"/>
      <point x="49" y="634"/>
      <point x="171" y="756"/>
      <point x="257" y="756" type="qcurve" smooth="yes"/>
      <point x="347" y="756"/>
      <point x="467" y="654"/>
      <point x="467" y="566" type="qcurve" smooth="no"/>
      <point x="375" y="566" type="line" smooth="no"/>
      <point x="375" y="624"/>
      <point x="310" y="675"/>
      <point x="204" y="675"/>
      <point x="141" y="620"/>
      <point x="141" y="566" type="qcurve" smooth="yes"/>
      <point x="141" y="513"/>
      <point x="189" y="457"/>
      <point x="376" y="397"/>
      <point x="491" y="291"/>
      <point x="491" y="202" type="qcurve" smooth="yes"/>
      <point x="491" y="112"/>
      <point x="369" y="-10"/>
      <point x="257" y="-10" type="qcurve" smooth="yes"/>
      <point x="149" y="-10"/>
      <point x="23" y="112"/>
    </contour>
  </outline>
</glyph>
<glyph name="U" format="1">
  <advance width="512"/>
  <unicode hex="0055"/>
  <outline>
    <contour>
      <point x="263" y="71" type="qcurve" smooth="yes"/>
      <point x="318" y="71"/>
      <point x="390" y="152"/>
      <point x="390" y="253" type="qcurve" smooth="yes"/>
      <point x="390" y="750" type="line" smooth="no"/>
      <point x="476" y="750" type="line" smooth="no"/>
      <point x="476" y="253" type="line" smooth="yes"/>
      <point x="476" y="104"/>
      <point x="355" y="-10"/>
      <point x="171" y="-10"/>
      <point x="110" y="47" type="qcurve" smooth="yes"/>
      <point x="50" y="104"/>
      <point x="50" y="253" type="qcurve" smooth="yes"/>
      <point x="50" y="750" type="line" smooth="no"/>
      <point x="136" y="750" type="line" smooth="no"/>
      <point x="136" y="253" type="line" smooth="yes"/>
      <point x="136" y="152"/>
      <point x="208" y="71"/>
    </contour>
  </outline>
</glyph>
<glyph name="V" format="1">
  <advance width="512"/>
  <unicode hex="0056"/>
  <outline>
    <contour>
      <point x="502" y="750" type="line" smooth="no"/>
      <point x="306" y="-12" type="line" smooth="no"/>
      <point x="294" y="-12" type="line" smooth="no"/>
      <point x="218" y="-12" type="line" smooth="no"/>
      <point x="206" y="-12" type="line" smooth="no"/>
      <point x="10" y="750" type="line" smooth="no"/>
      <point x="98" y="750" type="line" smooth="no"/>
      <point x="252" y="152" type="line" smooth="no"/>
      <point x="260" y="152" type="line" smooth="no"/>
      <point x="414" y="750" type="line" smooth="no"/>
    </contour>
  </outline>
</glyph>
<glyph name="X" format="1">
  <advance width="512"/>
  <unicode hex="0058"/>
  <outline>
    <contour>
      <point x="504" y="-12" type="line" smooth="no"/>
      <point x="408" y="-12" type="line" smooth="no"/>
      <point x="247" y="297" type="line" smooth="no"/>
      <point x="102" y="-12" type="line" smooth="no"/>
      <point x="6" y="-12" type="line" smooth="no"/>
      <point x="197" y="394" type="line" smooth="no"/>
      <point x="12" y="750" type="line" smooth="no"/>
      <point x="108" y="750" type="line" smooth="no"/>
      <point x="259" y="458" type="line" smooth="no"/>
      <point x="402" y="750" type="line" smooth="no"/>
      <point x="498" y="750" type="line" smooth="no"/>
      <point x="309" y="363" type="line" smooth="no"/>
    </contour>
  </outline>
</glyph>
<glyph name="Y" format="1">
  <advance width="512"/>
  <unicode hex="0059"/>
  <outline>
    <contour>
      <point x="300" y="-12" type="line" smooth="no"/>
      <point x="214" y="-12" type="line" smooth="no"/>
      <point x="214" y="286" type="line" smooth="no"/>
      <point x="12" y="744" type="line" smooth="no"/>
      <point x="100" y="744" type="line" smooth="no"/>
      <point x="257" y="388" type="line" smooth="no"/>
      <point x="414" y="744" type="line" smooth="no"/>
      <point x="502" y="744" type="line" smooth="no"/>
      <point x="300" y="286" type="line" smooth="no"/>
    </contour>
  </outline>
</glyph>
<glyph name="Z" format="1">
  <advance width="512"/>
  <unicode hex="005a"/>
  <outline>
    <contour>
      <point x="60" y="750" type="line" smooth="no"/>
      <point x="460" y="750" type="line" smooth="no"/>
      <point x="460" y="660" type="line" smooth="no"/>
      <point x="134" y="78" type="line" smooth="no"/>
      <point x="476" y="78" type="line" smooth="no"/>
      <point x="476" y="-12" type="line" smooth="no"/>
      <point x="36" y="-12" type="line" smooth="no"/>
      <point x="36" y="78" type="line" smooth="no"/>
      <point x="362" y="660" type="line" smooth="no"/>
      <point x="60" y="660" type="line" smooth="no"/>
    </contour>
  </outline>
</glyph>
<glyph name="bracketleft" format="1">
  <advance width="512"/>
  <unicode hex="005b"/>
  <outline>
    <contour>
      <point x="175" y="826" type="line" smooth="no"/>
      <point x="412" y="826" type="line" smooth="no"/>
      <point x="412" y="753" type="line" smooth="no"/>
      <point x="249" y="753" type="line" smooth="no"/>
      <point x="249" y="-25" type="line" smooth="no"/>
      <point x="412" y="-25" type="line" smooth="no"/>
      <point x="412" y="-97" type="line" smooth="no"/>
      <point x="175" y="-97" type="line" smooth="no"/>
    </contour>
  </outline>
</glyph>
<glyph name="backslash" format="1">
  <advance width="512"/>
  <unicode hex="005c"/>
  <outline>
    <contour>
      <point x="56" y="814" type="line" smooth="no"/>
      <point x="511" y="-50" type="line" smooth="no"/>
      <point x="454" y="-67" type="line" smooth="no"/>
      <point x="0" y="793" type="line" smooth="no"/>
    </contour>
  </outline>
</glyph>
<glyph name="bracketright" format="1">
  <advance width="512"/>
  <unicode hex="005d"/>
  <outline>
    <contour>
      <point x="335" y="826" type="line" smooth="no"/>
      <point x="335" y="-97" type="line" smooth="no"/>
      <point x="98" y="-97" type="line" smooth="no"/>
      <point x="98" y="-25" type="line" smooth="no"/>
      <point x="261" y="-25" type="line" smooth="no"/>
      <point x="261" y="753" type="line" smooth="no"/>
      <point x="98" y="753" type="line" smooth="no"/>
      <point x="98" y="826" type="line" smooth="no"/>
    </contour>
  </outline>
</glyph>
<glyph name="asciicircum" format="1">
  <advance width="512"/>
  <unicode hex="005e"/>
  <outline>
    <contour>
      <point x="236" y="836" type="line" smooth="no"/>
      <point x="276" y="836" type="line" smooth="no"/>
      <point x="415" y="695" type="line" smooth="no"/>
      <point x="364" y="660" type="line" smooth="no"/>
      <point x="256" y="773" type="line" smooth="no"/>
      <point x="148" y="660" type="line" smooth="no"/>
      <point x="97" y="695" type="line" smooth="no"/>
    </contour>
  </outline>
</glyph>
<glyph name="underscore" format="1">
  <advance width="512"/>
  <unicode hex="005f"/>
  <outline>
    <contour>
      <point x="4" y="-50" type="line" smooth="no"/>
      <point x="505" y="-50" type="line" smooth="no"/>
      <point x="505" y="-121" type="line" smooth="no"/>
      <point x="4" y="-121" type="line" smooth="no"/>
    </contour>
  </outline>
</glyph>
<glyph name="grave" format="1">
  <advance width="512"/>
  <unicode hex="0060"/>
  <outline>
    <contour>
      <point x="84" y="730" type="line" smooth="no"/>
      <point x="84" y="836" type="line" smooth="no"/>
      <point x="210" y="836" type="line" smooth="no"/>
      <point x="210" y="712" type="line" smooth="no"/>
      <point x="158" y="712" type="line" smooth="no"/>
      <point x="188" y="584" type="line" smooth="no"/>
      <point x="156" y="584" type="line" smooth="no"/>
    </contour>
  </outline>
</glyph>
<glyph name="a" format="1">
  <advance width="512"/>
  <unicode hex="0061"/>
  <outline>
    <contour>
      <point x="260" y="532" type="qcurve" smooth="yes"/>
      <point x="348" y="532"/>
      <point x="453" y="439"/>
      <point x="453" y="350" type="qcurve" smooth="yes"/>
      <point x="453" y="104" type="line" smooth="yes"/>
      <point x="453" y="42"/>
      <point x="476" y="-10" type="qcurve" smooth="no"/>
      <point x="380" y="-10" type="line" smooth="no"/>
      <point x="373" y="23"/>
      <point x="370" y="52" type="qcurve" smooth="no"/>
      <point x="343" y="22"/>
      <point x="260" y="-9"/>
      <point x="220" y="-10" type="qcurve" smooth="no"/>
      <point x="144" y="-10"/>
      <point x="100" y="30" type="qcurve" smooth="yes"/>
      <point x="55" y="70"/>
      <point x="55" y="135" type="qcurve" smooth="yes"/>
      <point x="55" y="184"/>
      <point x="112" y="276"/>
      <point x="237" y="333"/>
      <point x="367" y="358" type="qcurve" smooth="no"/>
      <point x="367" y="378" type="line" smooth="yes"/>
      <point x="367" y="416"/>
      <point x="314" y="471"/>
      <point x="260" y="471" type="qcurve" smooth="yes"/>
      <point x="217" y="471"/>
      <point x="170" y="426"/>
      <point x="162" y="385" type="qcurve" smooth="no"/>
      <point x="74" y="385" type="line" smooth="no"/>
      <point x="82" y="452"/>
      <point x="184" y="532"/>
    </contour>
    <contour>
      <point x="367" y="295" type="line" smooth="no"/>
      <point x="275" y="275"/>
      <point x="177" y="235"/>
      <point x="147" y="179"/>
      <point x="147" y="136" type="qcurve" smooth="yes"/>
      <point x="147" y="99"/>
      <point x="166" y="80" type="qcurve" smooth="yes"/>
      <point x="186" y="61"/>
      <point x="221" y="61" type="qcurve" smooth="yes"/>
      <point x="256" y="62"/>
      <point x="334" y="95"/>
      <point x="367" y="161" type="qcurve" smooth="no"/>
    </contour>
  </outline>
</glyph>
<glyph name="b" format="1">
  <advance width="512"/>
  <unicode hex="0062"/>
  <outline>
    <contour>
      <point x="156" y="-12" type="line" smooth="no"/>
      <point x="70" y="-12" type="line" smooth="no"/>
      <point x="70" y="750" type="line" smooth="no"/>
      <point x="156" y="750" type="line" smooth="no"/>
      <point x="156" y="471" type="line" smooth="no"/>
      <point x="217" y="532"/>
      <point x="277" y="532" type="qcurve" smooth="yes"/>
      <point x="358" y="532"/>
      <point x="475" y="404"/>
      <point x="475" y="272" type="qcurve" smooth="yes"/>
      <point x="475" y="160"/>
      <point x="360" y="-6"/>
      <point x="255" y="-10" type="qcurve" smooth="no"/>
      <point x="199" y="-10"/>
      <point x="156" y="27" type="qcurve" smooth="no"/>
    </contour>
    <contour>
      <point x="255" y="71" type="qcurve" smooth="no"/>
      <point x="313" y="75"/>
      <point x="383" y="184"/>
      <point x="383" y="272" type="qcurve" smooth="yes"/>
      <point x="383" y="380"/>
      <point x="311" y="451"/>
      <point x="267" y="451" type="qcurve" smooth="yes"/>
      <point x="218" y="451"/>
      <point x="162" y="364"/>
      <point x="156" y="319" type="qcurve" smooth="no"/>
      <point x="156" y="137" type="line" smooth="no"/>
      <point x="172" y="105"/>
      <point x="214" y="71"/>
    </contour>
  </outline>
</glyph>
<glyph name="c" format="1">
  <advance width="512"/>
  <unicode hex="0063"/>
  <outline>
    <contour>
      <point x="23" y="260" type="qcurve" smooth="yes"/>
      <point x="23" y="368"/>
      <point x="154" y="532"/>
      <point x="248" y="532" type="qcurve" smooth="yes"/>
      <point x="350" y="532"/>
      <point x="470" y="418"/>
      <point x="478" y="336" type="qcurve" smooth="no"/>
      <point x="386" y="336" type="line" smooth="no"/>
      <point x="378" y="399"/>
      <point x="307" y="451"/>
      <point x="248" y="451" type="qcurve" smooth="yes"/>
      <point x="199" y="451"/>
      <point x="115" y="361"/>
      <point x="115" y="259" type="qcurve" smooth="yes"/>
      <point x="115" y="166"/>
      <point x="203" y="71"/>
      <point x="301" y="71"/>
      <point x="368" y="102"/>
      <point x="386" y="172" type="qcurve" smooth="no"/>
      <point x="482" y="172" type="line" smooth="no"/>
      <point x="468" y="90"/>
      <point x="348" y="-10"/>
      <point x="156" y="-10"/>
      <point x="23" y="154"/>
    </contour>
  </outline>
</glyph>
<glyph name="f" format="1">
  <advance width="512"/>
  <unicode hex="0066"/>
  <outline>
    <contour>
      <point x="341" y="675" type="qcurve" smooth="yes"/>
      <point x="303" y="675"/>
      <point x="280" y="623"/>
      <point x="280" y="554" type="qcurve" smooth="yes"/>
      <point x="280" y="518" type="line" smooth="no"/>
      <point x="424" y="518" type="line" smooth="no"/>
      <point x="424" y="444" type="line" smooth="no"/>
      <point x="280" y="444" type="line" smooth="no"/>
      <point x="280" y="-12" type="line" smooth="no"/>
      <point x="194" y="-12" type="line" smooth="no"/>
      <point x="194" y="444" type="line" smooth="no"/>
      <point x="116" y="444" type="line" smooth="no"/>
      <point x="116" y="518" type="line" smooth="no"/>
      <point x="194" y="518" type="line" smooth="no"/>
      <point x="194" y="554" type="line" smooth="yes"/>
      <point x="194" y="677"/>
      <point x="276" y="756"/>
      <point x="341" y="756" type="qcurve" smooth="yes"/>
      <point x="403" y="756"/>
      <point x="444" y="739" type="qcurve" smooth="no"/>
      <point x="444" y="650" type="line" smooth="no"/>
      <point x="387" y="675"/>
    </contour>
  </outline>
</glyph>
<glyph name="g" format="1">
  <advance width="512"/>
  <unicode hex="0067"/>
  <outline>
    <contour>
      <point x="78" y="370" type="qcurve" smooth="yes"/>
      <point x="78" y="432"/>
      <point x="167" y="532"/>
      <point x="259" y="532" type="qcurve" smooth="yes"/>
      <point x="320" y="532"/>
      <point x="360" y="510" type="qcurve" smooth="no"/>
      <point x="418" y="542"/>
      <point x="488" y="552" type="qcurve" smooth="no"/>
      <point x="488" y="482" type="line" smooth="no"/>
      <point x="438" y="484"/>
      <point x="402" y="474" type="qcurve" smooth="no"/>
      <point x="441" y="427"/>
      <point x="441" y="369" type="qcurve" smooth="yes"/>
      <point x="441" y="306"/>
      <point x="351" y="206"/>
      <point x="259" y="206" type="qcurve" smooth="yes"/>
      <point x="222" y="206"/>
      <point x="193" y="214" type="qcurve" smooth="no"/>
      <point x="167" y="195"/>
      <point x="167" y="185" type="qcurve" smooth="yes"/>
      <point x="167" y="176"/>
      <point x="240" y="160"/>
      <point x="342" y="144"/>
      <point x="434" y="111"/>
      <point x="495" y="42"/>
      <point x="495" y="-2" type="qcurve" smooth="yes"/>
      <point x="495" y="-51"/>
      <point x="367" y="-128"/>
      <point x="153" y="-128"/>
      <point x="25" y="-51"/>
      <point x="25" y="-2" type="qcurve" smooth="yes"/>
      <point x="25" y="33"/>
      <point x="71" y="92"/>
      <point x="136" y="120" type="qcurve" smooth="no"/>
      <point x="111" y="130"/>
      <point x="88" y="166"/>
      <point x="88" y="184" type="qcurve" smooth="yes"/>
      <point x="88" y="206"/>
      <point x="141" y="239" type="qcurve" smooth="no"/>
      <point x="131" y="247"/>
      <point x="78" y="306"/>
    </contour>
    <contour>
      <point x="170" y="369" type="qcurve" smooth="yes"/>
      <point x="170" y="334"/>
      <point x="214" y="279"/>
      <point x="304" y="279"/>
      <point x="349" y="334"/>
      <point x="349" y="370" type="qcurve" smooth="yes"/>
      <point x="349" y="409"/>
      <point x="304" y="459"/>
      <point x="214" y="459"/>
      <point x="170" y="409"/>
    </contour>
    <contour>
      <point x="117" y="-2" type="qcurve" smooth="yes"/>
      <point x="117" y="-29"/>
      <point x="195" y="-61"/>
      <point x="325" y="-61"/>
      <point x="364" y="-45" type="qcurve" smooth="yes"/>
      <point x="403" y="-29"/>
      <point x="403" y="-2" type="qcurve" smooth="yes"/>
      <point x="403" y="45"/>
      <point x="317" y="77"/>
      <point x="284" y="84" type="qcurve" smooth="yes"/>
      <point x="225" y="97" type="line" smooth="no"/>
      <point x="165" y="79"/>
      <point x="117" y="34"/>
    </contour>
  </outline>
</glyph>
<glyph name="h" format="1">
  <advance width="512"/>
  <unicode hex="0068"/>
  <outline>
    <contour>
      <point x="160" y="-12" type="line" smooth="no"/>
      <point x="74" y="-12" type="line" smooth="no"/>
      <point x="74" y="750" type="line" smooth="no"/>
      <point x="160" y="750" type="line" smooth="no"/>
      <point x="160" y="449" type="line" smooth="no"/>
      <point x="233" y="532"/>
      <point x="305" y="532" type="qcurve" smooth="yes"/>
      <point x="359" y="532"/>
      <point x="474" y="454"/>
      <point x="474" y="339" type="qcurve" smooth="yes"/>
      <point x="474" y="-12" type="line" smooth="no"/>
      <point x="388" y="-12" type="line" smooth="no"/>
      <point x="388" y="339" type="line" smooth="yes"/>
      <point x="388" y="406"/>
      <point x="338" y="451"/>
      <point x="287" y="451" type="qcurve" smooth="yes"/>
      <point x="246" y="451"/>
      <point x="206" y="410" type="qcurve" smooth="yes"/>
      <point x="167" y="370"/>
      <point x="160" y="299" type="qcurve" smooth="no"/>
    </contour>
  </outline>
</glyph>
<glyph name="i" format="1">
  <advance width="512"/>
  <unicode hex="0069"/>
  <outline>
    <contour>
      <point x="306" y="-12" type="line" smooth="no"/>
      <point x="220" y="-12" type="line" smooth="no"/>
      <point x="220" y="534" type="line" smooth="no"/>
      <point x="306" y="534" type="line" smooth="no"/>
    </contour>
    <contour>
      <point x="308" y="642" type="line" smooth="no"/>
      <point x="218" y="642" type="line" smooth="no"/>
      <point x="218" y="738" type="line" smooth="no"/>
      <point x="308" y="738" type="line" smooth="no"/>
    </contour>
  </outline>
</glyph>
<glyph name="j" format="1">
  <advance width="512"/>
  <unicode hex="006a"/>
  <outline>
    <contour>
      <point x="223" y="-28" type="qcurve" smooth="yes"/>
      <point x="253" y="-28"/>
      <point x="286" y="23"/>
      <point x="286" y="82" type="qcurve" smooth="yes"/>
      <point x="286" y="534" type="line" smooth="no"/>
      <point x="372" y="534" type="line" smooth="no"/>
      <point x="372" y="82" type="line" smooth="yes"/>
      <point x="372" y="-33"/>
      <point x="280" y="-120"/>
      <point x="223" y="-120" type="qcurve" smooth="yes"/>
      <point x="165" y="-120"/>
      <point x="81" y="-39"/>
      <point x="81" y="38" type="qcurve" smooth="no"/>
      <point x="171" y="38" type="line" smooth="no"/>
      <point x="171" y="-5"/>
      <point x="202" y="-28"/>
    </contour>
    <contour>
      <point x="374" y="642" type="line" smooth="no"/>
      <point x="284" y="642" type="line" smooth="no"/>
      <point x="284" y="738" type="line" smooth="no"/>
      <point x="374" y="738" type="line" smooth="no"/>
    </contour>
  </outline>
</glyph>
<glyph name="k" format="1">
  <advance width="512"/>
  <unicode hex="006b"/>
  <outline>
    <contour>
      <point x="160" y="-12" type="line" smooth="no"/>
      <point x="74" y="-12" type="line" smooth="no"/>
      <point x="74" y="750" type="line" smooth="no"/>
      <point x="160" y="750" type="line" smooth="no"/>
      <point x="160" y="243" type="line" smooth="no"/>
      <point x="364" y="518" type="line" smooth="no"/>
      <point x="458" y="518" type="line" smooth="no"/>
      <point x="289" y="299" type="line" smooth="no"/>
      <point x="498" y="-12" type="line" smooth="no"/>
      <point x="394" y="-12" type="line" smooth="no"/>
      <point x="236" y="229" type="line" smooth="no"/>
      <point x="160" y="131" type="line" smooth="no"/>
    </contour>
  </outline>
</glyph>
<glyph name="m" format="1">
  <advance width="512"/>
  <unicode hex="006d"/>
  <outline>
    <contour>
      <point x="94" y="-12" type="line" smooth="no"/>
      <point x="8" y="-12" type="line" smooth="no"/>
      <point x="8" y="534" type="line" smooth="no"/>
      <point x="94" y="534" type="line" smooth="no"/>
      <point x="94" y="461" type="line" smooth="no"/>
      <point x="137" y="532"/>
      <point x="221" y="532"/>
      <point x="280" y="481"/>
      <point x="290" y="441" type="qcurve" smooth="no"/>
      <point x="296" y="454"/>
      <point x="343" y="532"/>
      <point x="427" y="532"/>
      <point x="506" y="464"/>
      <point x="506" y="339" type="qcurve" smooth="yes"/>
      <point x="506" y="-12" type="line" smooth="no"/>
      <point x="420" y="-12" type="line" smooth="no"/>
      <point x="420" y="339" type="line" smooth="yes"/>
      <point x="420" y="406"/>
      <point x="394" y="451"/>
      <point x="373" y="451" type="qcurve" smooth="yes"/>
      <point x="346" y="451"/>
      <point x="305" y="373"/>
      <point x="300" y="313" type="qcurve" smooth="no"/>
      <point x="300" y="-12" type="line" smooth="no"/>
      <point x="214" y="-12" type="line" smooth="no"/>
      <point x="214" y="339" type="line" smooth="yes"/>
      <point x="214" y="406"/>
      <point x="188" y="451"/>
      <point x="167" y="451" type="qcurve" smooth="yes"/>
      <point x="140" y="451"/>
      <point x="99" y="373"/>
      <point x="94" y="313" type="qcurve" smooth="no"/>
    </contour>
  </outline>
</glyph>
<glyph name="n" format="1">
  <advance width="512"/>
  <unicode hex="006e"/>
  <outline>
    <contour>
      <point x="160" y="-12" type="line" smooth="no"/>
      <point x="74" y="-12" type="line" smooth="no"/>
      <point x="74" y="534" type="line" smooth="no"/>
      <point x="160" y="534" type="line" smooth="no"/>
      <point x="160" y="449" type="line" smooth="no"/>
      <point x="233" y="532"/>
      <point x="305" y="532" type="qcurve" smooth="yes"/>
      <point x="359" y="532"/>
      <point x="474" y="454"/>
      <point x="474" y="339" type="qcurve" smooth="yes"/>
      <point x="474" y="-12" type="line" smooth="no"/>
      <point x="388" y="-12" type="line" smooth="no"/>
      <point x="388" y="339" type="line" smooth="yes"/>
      <point x="388" y="406"/>
      <point x="338" y="451"/>
      <point x="287" y="451" type="qcurve" smooth="yes"/>
      <point x="246" y="451"/>
      <point x="203" y="406" type="qcurve" smooth="yes"/>
      <point x="160" y="360"/>
      <point x="160" y="259" type="qcurve" smooth="yes"/>
    </contour>
  </outline>
</glyph>
<glyph name="o" format="1">
  <advance width="512"/>
  <unicode hex="006f"/>
  <outline>
    <contour>
      <point x="30" y="266" type="qcurve" smooth="yes"/>
      <point x="30" y="368"/>
      <point x="159" y="532"/>
      <point x="359" y="532"/>
      <point x="489" y="368"/>
      <point x="489" y="265" type="qcurve" smooth="yes"/>
      <point x="489" y="154"/>
      <point x="359" y="-10"/>
      <point x="159" y="-10"/>
      <point x="30" y="154"/>
    </contour>
    <contour>
      <point x="122" y="265" type="qcurve" smooth="yes"/>
      <point x="122" y="166"/>
      <point x="206" y="71"/>
      <point x="312" y="71"/>
      <point x="397" y="166"/>
      <point x="397" y="266" type="qcurve" smooth="yes"/>
      <point x="397" y="361"/>
      <point x="312" y="451"/>
      <point x="206" y="451"/>
      <point x="122" y="361"/>
    </contour>
  </outline>
</glyph>
<glyph name="p" format="1">
  <advance width="512"/>
  <unicode hex="0070"/>
  <outline>
    <contour>
      <point x="68" y="-116" type="line" smooth="no"/>
      <point x="68" y="534" type="line" smooth="no"/>
      <point x="154" y="534" type="line" smooth="no"/>
      <point x="154" y="468" type="line" smooth="no"/>
      <point x="211" y="532"/>
      <point x="279" y="532" type="qcurve" smooth="yes"/>
      <point x="358" y="532"/>
      <point x="473" y="396"/>
      <point x="473" y="286" type="qcurve" smooth="yes"/>
      <point x="473" y="180"/>
      <point x="360" y="50"/>
      <point x="277" y="46" type="qcurve" smooth="no"/>
      <point x="209" y="46"/>
      <point x="154" y="82" type="qcurve" smooth="no"/>
      <point x="154" y="-116" type="line" smooth="no"/>
    </contour>
    <contour>
      <point x="277" y="127" type="qcurve" smooth="no"/>
      <point x="321" y="131"/>
      <point x="381" y="204"/>
      <point x="381" y="286" type="qcurve" smooth="yes"/>
      <point x="381" y="366"/>
      <point x="319" y="451"/>
      <point x="277" y="451" type="qcurve" smooth="yes"/>
      <point x="220" y="451"/>
      <point x="160" y="367"/>
      <point x="154" y="340" type="qcurve" smooth="no"/>
      <point x="154" y="193" type="line" smooth="no"/>
      <point x="166" y="156"/>
      <point x="201" y="142" type="qcurve" smooth="yes"/>
      <point x="236" y="127"/>
    </contour>
  </outline>
</glyph>
<glyph name="q" format="1">
  <advance width="512"/>
  <unicode hex="0071"/>
  <outline>
    <contour>
      <point x="450" y="-116" type="line" smooth="no"/>
      <point x="364" y="-116" type="line" smooth="no"/>
      <point x="364" y="534" type="line" smooth="no"/>
      <point x="450" y="534" type="line" smooth="no"/>
    </contour>
    <contour>
      <point x="235" y="532" type="qcurve" smooth="yes"/>
      <point x="303" y="532"/>
      <point x="421" y="415"/>
      <point x="427" y="303" type="qcurve" smooth="no"/>
      <point x="366" y="287" type="line" smooth="no"/>
      <point x="366" y="352"/>
      <point x="294" y="451"/>
      <point x="237" y="451" type="qcurve" smooth="yes"/>
      <point x="195" y="451"/>
      <point x="137" y="346"/>
      <point x="137" y="286" type="qcurve" smooth="yes"/>
      <point x="137" y="200"/>
      <point x="203" y="131"/>
      <point x="257" y="127" type="qcurve" smooth="no"/>
      <point x="298" y="127"/>
      <point x="358" y="159"/>
      <point x="368" y="208" type="qcurve" smooth="no"/>
      <point x="434" y="181" type="line" smooth="no"/>
      <point x="416" y="116"/>
      <point x="370" y="81" type="qcurve" smooth="yes"/>
      <point x="325" y="46"/>
      <point x="257" y="46" type="qcurve" smooth="no"/>
      <point x="164" y="50"/>
      <point x="104" y="113" type="qcurve" smooth="yes"/>
      <point x="45" y="176"/>
      <point x="45" y="286" type="qcurve" smooth="yes"/>
      <point x="45" y="378"/>
      <point x="146" y="532"/>
    </contour>
  </outline>
</glyph>
<glyph name="r" format="1">
  <advance width="512"/>
  <unicode hex="0072"/>
  <outline>
    <contour>
      <point x="192" y="-12" type="line" smooth="no"/>
      <point x="106" y="-12" type="line" smooth="no"/>
      <point x="106" y="534" type="line" smooth="no"/>
      <point x="192" y="534" type="line" smooth="no"/>
      <point x="192" y="436" type="line" smooth="no"/>
      <point x="206" y="457"/>
      <point x="305" y="550"/>
      <point x="408" y="532" type="qcurve" smooth="no"/>
      <point x="408" y="433" type="line" smooth="no"/>
      <point x="318" y="445"/>
      <point x="192" y="360"/>
      <point x="192" y="259" type="qcurve" smooth="yes"/>
    </contour>
  </outline>
</glyph>
<glyph name="s" format="1">
  <advance width="512"/>
  <unicode hex="0073"/>
  <outline>
    <contour>
      <point x="31" y="170" type="qcurve" smooth="no"/>
      <point x="123" y="170" type="line" smooth="no"/>
      <point x="123" y="112"/>
      <point x="158" y="92" type="qcurve" smooth="yes"/>
      <point x="194" y="71"/>
      <point x="257" y="71" type="qcurve" smooth="yes"/>
      <point x="324" y="71"/>
      <point x="391" y="110"/>
      <point x="391" y="144" type="qcurve" smooth="yes"/>
      <point x="391" y="193"/>
      <point x="315" y="234"/>
      <point x="141" y="251"/>
      <point x="57" y="335"/>
      <point x="57" y="388" type="qcurve" smooth="yes"/>
      <point x="57" y="440"/>
      <point x="171" y="532"/>
      <point x="257" y="532" type="qcurve" smooth="yes"/>
      <point x="347" y="532"/>
      <point x="459" y="452"/>
      <point x="459" y="388" type="qcurve" smooth="no"/>
      <point x="367" y="388" type="line" smooth="no"/>
      <point x="367" y="422"/>
      <point x="302" y="451"/>
      <point x="212" y="451"/>
      <point x="149" y="418"/>
      <point x="149" y="388" type="qcurve" smooth="yes"/>
      <point x="149" y="343"/>
      <point x="205" y="313"/>
      <point x="368" y="297"/>
      <point x="483" y="227"/>
      <point x="483" y="144" type="qcurve" smooth="yes"/>
      <point x="483" y="80"/>
      <point x="361" y="-10"/>
      <point x="257" y="-10" type="qcurve" smooth="yes"/>
      <point x="149" y="-10"/>
      <point x="31" y="84"/>
    </contour>
  </outline>
</glyph>
<glyph name="t" format="1">
  <advance width="512"/>
  <unicode hex="0074"/>
  <outline>
    <contour>
      <point x="182" y="704" type="line" smooth="no"/>
      <point x="265" y="756" type="line" smooth="no"/>
      <point x="268" y="756" type="line" smooth="no"/>
      <point x="268" y="550" type="line" smooth="no"/>
      <point x="392" y="550" type="line" smooth="no"/>
      <point x="392" y="476" type="line" smooth="no"/>
      <point x="268" y="476" type="line" smooth="no"/>
      <point x="268" y="94" type="line" smooth="yes"/>
      <point x="268" y="70"/>
      <point x="292" y="70" type="qcurve" smooth="yes"/>
      <point x="372" y="70" type="line" smooth="no"/>
      <point x="372" y="-12" type="line" smooth="no"/>
      <point x="280" y="-12" type="line" smooth="yes"/>
      <point x="182" y="-12"/>
      <point x="182" y="94" type="qcurve" smooth="yes"/>
      <point x="182" y="476" type="line" smooth="no"/>
      <point x="84" y="476" type="line" smooth="no"/>
      <point x="84" y="550" type="line" smooth="no"/>
      <point x="182" y="550" type="line" smooth="no"/>
    </contour>
  </outline>
</glyph>
<glyph name="u" format="1">
  <advance width="512"/>
  <unicode hex="0075"/>
  <outline>
    <contour>
      <point x="376" y="534" type="line" smooth="no"/>
      <point x="462" y="534" type="line" smooth="no"/>
      <point x="462" y="-12" type="line" smooth="no"/>
      <point x="376" y="-12" type="line" smooth="no"/>
      <point x="376" y="73" type="line" smooth="no"/>
      <point x="303" y="-10"/>
      <point x="231" y="-10" type="qcurve" smooth="yes"/>
      <point x="177" y="-10"/>
      <point x="120" y="29" type="qcurve" smooth="yes"/>
      <point x="62" y="68"/>
      <point x="62" y="183" type="qcurve" smooth="yes"/>
      <point x="62" y="534" type="line" smooth="no"/>
      <point x="148" y="534" type="line" smooth="no"/>
      <point x="148" y="183" type="line" smooth="yes"/>
      <point x="148" y="116"/>
      <point x="173" y="94" type="qcurve" smooth="yes"/>
      <point x="198" y="71"/>
      <point x="249" y="71" type="qcurve" smooth="yes"/>
      <point x="290" y="71"/>
      <point x="376" y="162"/>
      <point x="376" y="263" type="qcurve" smooth="yes"/>
    </contour>
  </outline>
</glyph>
<glyph name="v" format="1">
  <advance width="512"/>
  <unicode hex="0076"/>
  <outline>
    <contour>
      <point x="494" y="534" type="line" smooth="no"/>
      <point x="306" y="-12" type="line" smooth="no"/>
      <point x="206" y="-12" type="line" smooth="no"/>
      <point x="18" y="534" type="line" smooth="no"/>
      <point x="106" y="534" type="line" smooth="no"/>
      <point x="253" y="106" type="line" smooth="no"/>
      <point x="259" y="106" type="line" smooth="no"/>
      <point x="406" y="534" type="line" smooth="no"/>
    </contour>
  </outline>
</glyph>
<glyph name="w" format="1">
  <advance width="512"/>
  <unicode hex="0077"/>
  <outline>
    <contour>
      <point x="1" y="534" type="line" smooth="no"/>
      <point x="85" y="534" type="line" smooth="no"/>
      <point x="151" y="202" type="line" smooth="no"/>
      <point x="215" y="534" type="line" smooth="no"/>
      <point x="299" y="534" type="line" smooth="no"/>
      <point x="363" y="202" type="line" smooth="no"/>
      <point x="429" y="534" type="line" smooth="no"/>
      <point x="513" y="534" type="line" smooth="no"/>
      <point x="405" y="-12" type="line" smooth="no"/>
      <point x="321" y="-12" type="line" smooth="no"/>
      <point x="257" y="318" type="line" smooth="no"/>
      <point x="193" y="-12" type="line" smooth="no"/>
      <point x="109" y="-12" type="line" smooth="no"/>
    </contour>
  </outline>
</glyph>
<glyph name="x" format="1">
  <advance width="512"/>
  <unicode hex="0078"/>
  <outline>
    <contour>
      <point x="502" y="-12" type="line" smooth="no"/>
      <point x="414" y="-12" type="line" smooth="no"/>
      <point x="252" y="211" type="line" smooth="no"/>
      <point x="106" y="-12" type="line" smooth="no"/>
      <point x="18" y="-12" type="line" smooth="no"/>
      <point x="206" y="275" type="line" smooth="no"/>
      <point x="18" y="534" type="line" smooth="no"/>
      <point x="106" y="534" type="line" smooth="no"/>
      <point x="260" y="322" type="line" smooth="no"/>
      <point x="406" y="534" type="line" smooth="no"/>
      <point x="494" y="534" type="line" smooth="no"/>
      <point x="305" y="260" type="line" smooth="no"/>
    </contour>
  </outline>
</glyph>
<glyph name="y" format="1">
  <advance width="512"/>
  <unicode hex="0079"/>
  <outline>
    <contour>
      <point x="156" y="-20" type="qcurve" smooth="no"/>
      <point x="199" y="76" type="line" smooth="no"/>
      <point x="26" y="534" type="line" smooth="no"/>
      <point x="116" y="534" type="line" smooth="no"/>
      <point x="248" y="183" type="line" smooth="no"/>
      <point x="408" y="534" type="line" smooth="no"/>
      <point x="502" y="534" type="line" smooth="no"/>
      <point x="242" y="-36" type="line" smooth="no"/>
      <point x="193" y="-156"/>
      <point x="60" y="-120" type="qcurve" smooth="no"/>
      <point x="60" y="-40" type="line" smooth="no"/>
      <point x="131" y="-66"/>
    </contour>
  </outline>
</glyph>
<glyph name="z" format="1">
  <advance width="512"/>
  <unicode hex="007a"/>
  <outline>
    <contour>
      <point x="60" y="534" type="line" smooth="no"/>
      <point x="452" y="534" type="line" smooth="no"/>
      <point x="452" y="444" type="line" smooth="no"/>
      <point x="156" y="78" type="line" smooth="no"/>
      <point x="44" y="78" type="line" smooth="no"/>
      <point x="340" y="444" type="line" smooth="no"/>
      <point x="60" y="444" type="line" smooth="no"/>
    </contour>
    <contour>
      <point x="44" y="78" type="line" smooth="no"/>
      <point x="476" y="78" type="line" smooth="no"/>
      <point x="476" y="-12" type="line" smooth="no"/>
      <point x="44" y="-12" type="line" smooth="no"/>
    </contour>
  </outline>
</glyph>
<glyph name="braceleft" format="1">
  <advance width="512"/>
  <unicode hex="007b"/>
  <outline>
    <contour>
      <point x="436" y="-121" type="line" smooth="no"/>
      <point x="370" y="-121"/>
      <point x="309" y="-86" type="qcurve" smooth="yes"/>
      <point x="248" y="-51"/>
      <point x="248" y="42" type="qcurve" smooth="yes"/>
      <point x="248" y="197" type="line" smooth="yes"/>
      <point x="248" y="273"/>
      <point x="219" y="326"/>
      <point x="160" y="326" type="qcurve" smooth="no"/>
      <point x="160" y="408" type="line" smooth="no"/>
      <point x="219" y="408"/>
      <point x="248" y="461"/>
      <point x="248" y="537" type="qcurve" smooth="yes"/>
      <point x="248" y="692" type="line" smooth="yes"/>
      <point x="248" y="785"/>
      <point x="370" y="855"/>
      <point x="436" y="855" type="qcurve" smooth="no"/>
      <point x="436" y="804" type="line" smooth="no"/>
      <point x="396" y="804"/>
      <point x="330" y="770"/>
      <point x="330" y="690" type="qcurve" smooth="yes"/>
      <point x="330" y="535" type="line" smooth="yes"/>
      <point x="330" y="441"/>
      <point x="263" y="367"/>
      <point x="231" y="367" type="qcurve" smooth="no"/>
      <point x="263" y="367"/>
      <point x="330" y="293"/>
      <point x="330" y="199" type="qcurve" smooth="yes"/>
      <point x="330" y="44" type="line" smooth="yes"/>
      <point x="330" y="-36"/>
      <point x="396" y="-70"/>
      <point x="436" y="-70" type="qcurve" smooth="no"/>
    </contour>
  </outline>
</glyph>
<glyph name="bar" format="1">
  <advance width="512"/>
  <unicode hex="007c"/>
  <outline>
    <contour>
      <point x="218" y="-136" type="line" smooth="no"/>
      <point x="218" y="874" type="line" smooth="no"/>
      <point x="290" y="874" type="line" smooth="no"/>
      <point x="290" y="-136" type="line" smooth="no"/>
    </contour>
  </outline>
</glyph>
<glyph name="braceright" format="1">
  <advance width="512"/>
  <unicode hex="007d"/>
  <outline>
    <contour>
      <point x="92" y="-121" type="qcurve" smooth="no"/>
      <point x="92" y="-70" type="line" smooth="no"/>
      <point x="132" y="-70"/>
      <point x="198" y="-36"/>
      <point x="198" y="44" type="qcurve" smooth="yes"/>
      <point x="198" y="199" type="line" smooth="yes"/>
      <point x="198" y="293"/>
      <point x="265" y="367"/>
      <point x="297" y="367" type="qcurve" smooth="no"/>
      <point x="265" y="367"/>
      <point x="198" y="441"/>
      <point x="198" y="535" type="qcurve" smooth="yes"/>
      <point x="198" y="690" type="line" smooth="yes"/>
      <point x="198" y="770"/>
      <point x="132" y="804"/>
      <point x="92" y="804" type="qcurve" smooth="no"/>
      <point x="92" y="855" type="line" smooth="no"/>
      <point x="158" y="855"/>
      <point x="280" y="785"/>
      <point x="280" y="692" type="qcurve" smooth="yes"/>
      <point x="280" y="537" type="line" smooth="yes"/>
      <point x="280" y="461"/>
      <point x="309" y="408"/>
      <point x="368" y="408" type="qcurve" smooth="no"/>
      <point x="368" y="326" type="line" smooth="no"/>
      <point x="309" y="326"/>
      <point x="280" y="273"/>
      <point x="280" y="197" type="qcurve" smooth="yes"/>
      <point x="280" y="42" type="line" smooth="yes"/>
      <point x="280" y="-51"/>
      <point x="158" y="-121"/>
    </contour>
  </outline>
</glyph>
<glyph name="asciitilde" format="1">
  <advance width="512"/>
  <unicode hex="007e"/>
  <outline>
    <contour>
      <point x="454" y="666" type="line" smooth="no"/>
      <point x="387" y="607"/>
      <point x="343" y="607" type="qcurve" smooth="yes"/>
      <point x="301" y="607"/>
      <point x="270" y="634" type="qcurve" smooth="yes"/>
      <point x="214" y="682" type="line" smooth="yes"/>
      <point x="189" y="703"/>
      <point x="155" y="703" type="qcurve" smooth="yes"/>
      <point x="119" y="703"/>
      <point x="44" y="635" type="qcurve" smooth="no"/>
      <point x="44" y="713" type="line" smooth="no"/>
      <point x="111" y="772"/>
      <point x="155" y="772" type="qcurve" smooth="yes"/>
      <point x="197" y="772"/>
      <point x="228" y="745" type="qcurve" smooth="yes"/>
      <point x="284" y="697" type="line" smooth="yes"/>
      <point x="309" y="676"/>
      <point x="343" y="676" type="qcurve" smooth="yes"/>
      <point x="379" y="676"/>
      <point x="454" y="744" type="qcurve" smooth="no"/>
    </contour>
  </outline>
</glyph>
<glyph name="exclamdown" format="1">
  <advance width="512"/>
  <unicode hex="00a1"/>
  <outline>
    <contour>
      <point x="193" y="-20" type="line" smooth="no"/>
      <point x="193" y="44"/>
      <point x="209" y="252" type="qcurve" smooth="yes"/>
      <point x="225" y="460"/>
      <point x="225" y="546" type="qcurve" smooth="no"/>
      <point x="285" y="546" type="line" smooth="no"/>
      <point x="285" y="460"/>
      <point x="301" y="252" type="qcurve" smooth="yes"/>
      <point x="317" y="44"/>
      <point x="317" y="-20" type="qcurve" smooth="no"/>
    </contour>
    <contour>
      <point x="310" y="792" type="line" smooth="no"/>
      <point x="310" y="678" type="line" smooth="no"/>
      <point x="202" y="678" type="line" smooth="no"/>
      <point x="202" y="792" type="line" smooth="no"/>
    </contour>
  </outline>
</glyph>
<glyph name="cent" format="1">
  <advance width="512"/>
  <unicode hex="00a2"/>
  <outline>
    <contour>
      <point x="53" y="412" type="qcurve" smooth="yes"/>
      <point x="53" y="513"/>
      <point x="108" y="590" type="qcurve" smooth="yes"/>
      <point x="164" y="668"/>
      <point x="255" y="668" type="qcurve" smooth="yes"/>
      <point x="275" y="668"/>
      <point x="292" y="665" type="qcurve" smooth="no"/>
      <point x="311" y="740" type="line" smooth="no"/>
      <point x="352" y="730" type="line" smooth="no"/>
      <point x="333" y="656" type="line" smooth="no"/>
      <point x="370" y="642"/>
      <point x="408" y="601" type="qcurve" smooth="yes"/>
      <point x="446" y="560"/>
      <point x="451" y="483" type="qcurve" smooth="no"/>
      <point x="372" y="483" type="line" smooth="no"/>
      <point x="363" y="542"/>
      <point x="346" y="559" type="qcurve" smooth="yes"/>
      <point x="330" y="576"/>
      <point x="315" y="582" type="qcurve" smooth="no"/>
      <point x="231" y="237" type="line" smooth="no"/>
      <point x="244" y="234"/>
      <point x="258" y="234" type="qcurve" smooth="yes"/>
      <point x="308" y="234"/>
      <point x="335" y="253" type="qcurve" smooth="yes"/>
      <point x="361" y="272"/>
      <point x="377" y="329" type="qcurve" smooth="no"/>
      <point x="459" y="329" type="line" smooth="no"/>
      <point x="448" y="252"/>
      <point x="396" y="205" type="qcurve" smooth="yes"/>
      <point x="343" y="158"/>
      <point x="258" y="158" type="qcurve" smooth="yes"/>
      <point x="234" y="158"/>
      <point x="213" y="163" type="qcurve" smooth="no"/>
      <point x="184" y="45" type="line" smooth="no"/>
      <point x="143" y="55" type="line" smooth="no"/>
      <point x="173" y="178" type="line" smooth="no"/>
      <point x="137" y="197"/>
      <point x="95" y="254" type="qcurve" smooth="yes"/>
      <point x="53" y="312"/>
    </contour>
    <contour>
      <point x="255" y="591" type="qcurve" smooth="yes"/>
      <point x="204" y="591"/>
      <point x="168" y="549" type="qcurve" smooth="yes"/>
      <point x="131" y="507"/>
      <point x="131" y="411" type="qcurve" smooth="yes"/>
      <point x="131" y="323"/>
      <point x="156" y="294" type="qcurve" smooth="yes"/>
      <point x="181" y="265"/>
      <point x="193" y="256" type="qcurve" smooth="no"/>
      <point x="275" y="590" type="line" smooth="no"/>
      <point x="266" y="591"/>
    </contour>
  </outline>
</glyph>
<glyph name="sterling" format="1">
  <advance width="512"/>
  <unicode hex="00a3"/>
  <outline>
    <contour>
      <point x="354" y="75" type="qcurve" smooth="yes"/>
      <point x="381" y="75"/>
      <point x="401" y="94" type="qcurve" smooth="yes"/>
      <point x="421" y="113"/>
      <point x="421" y="234" type="qcurve" smooth="no"/>
      <point x="485" y="210" type="line" smooth="no"/>
      <point x="485" y="69"/>
      <point x="449" y="34" type="qcurve" smooth="yes"/>
      <point x="412" y="-2"/>
      <point x="351" y="-2" type="qcurve" smooth="yes"/>
      <point x="306" y="-2"/>
      <point x="263" y="37"/>
      <point x="247" y="53" type="qcurve" smooth="no"/>
      <point x="205" y="-2"/>
      <point x="134" y="-2" type="qcurve" smooth="yes"/>
      <point x="88" y="-2"/>
      <point x="58" y="26" type="qcurve" smooth="yes"/>
      <point x="27" y="54"/>
      <point x="27" y="103" type="qcurve" smooth="yes"/>
      <point x="27" y="157"/>
      <point x="57" y="186" type="qcurve" smooth="yes"/>
      <point x="87" y="214"/>
      <point x="127" y="214" type="qcurve" smooth="yes"/>
      <point x="168" y="214"/>
      <point x="192" y="196" type="qcurve" smooth="yes"/>
      <point x="216" y="177"/>
      <point x="231" y="163" type="qcurve" smooth="no"/>
      <point x="234" y="179"/>
      <point x="234" y="195" type="qcurve" smooth="yes"/>
      <point x="234" y="264"/>
      <point x="222" y="304" type="qcurve" smooth="yes"/>
      <point x="209" y="345"/>
      <point x="200" y="371" type="qcurve" smooth="no"/>
      <point x="96" y="371" type="line" smooth="no"/>
      <point x="96" y="432" type="line" smooth="no"/>
      <point x="176" y="432" type="line" smooth="no"/>
      <point x="154" y="485"/>
      <point x="154" y="547" type="qcurve" smooth="yes"/>
      <point x="154" y="630"/>
      <point x="187" y="690" type="qcurve" smooth="yes"/>
      <point x="220" y="749"/>
      <point x="294" y="749" type="qcurve" smooth="yes"/>
      <point x="354" y="749"/>
      <point x="390" y="706" type="qcurve" smooth="no"/>
      <point x="425" y="662"/>
      <point x="425" y="604" type="qcurve" smooth="no"/>
      <point x="361" y="604" type="line" smooth="no"/>
      <point x="361" y="634"/>
      <point x="345" y="652" type="qcurve" smooth="yes"/>
      <point x="330" y="670"/>
      <point x="294" y="670" type="qcurve" smooth="yes"/>
      <point x="254" y="670"/>
      <point x="235" y="636" type="qcurve" smooth="yes"/>
      <point x="216" y="603"/>
      <point x="216" y="547" type="qcurve" smooth="yes"/>
      <point x="216" y="492"/>
      <point x="240" y="432" type="qcurve" smooth="no"/>
      <point x="366" y="432" type="line" smooth="no"/>
      <point x="366" y="371" type="line" smooth="no"/>
      <point x="263" y="371" type="line" smooth="no"/>
      <point x="285" y="309" type="line" smooth="yes"/>
      <point x="298" y="270"/>
      <point x="298" y="201" type="qcurve" smooth="yes"/>
      <point x="298" y="154"/>
      <point x="280" y="110" type="qcurve" smooth="no"/>
      <point x="292" y="98"/>
      <point x="306" y="86" type="qcurve" smooth="no"/>
      <point x="321" y="75"/>
    </contour>
    <contour>
      <point x="127" y="145" type="qcurve" smooth="yes"/>
      <point x="105" y="145"/>
      <point x="88" y="121"/>
      <point x="88" y="103" type="qcurve" smooth="yes"/>
      <point x="88" y="80"/>
      <point x="111" y="61"/>
      <point x="134" y="61" type="qcurve" smooth="yes"/>
      <point x="180" y="61"/>
      <point x="206" y="101" type="qcurve" smooth="no"/>
      <point x="191" y="116"/>
      <point x="175" y="130" type="qcurve" smooth="yes"/>
      <point x="158" y="145"/>
    </contour>
  </outline>
</glyph>
<glyph name="currency" format="1">
  <advance width="1024"/>
  <unicode hex="00a4"/>
  <outline>
    <contour>
      <point x="285" y="353" type="qcurve" smooth="yes"/>
      <point x="285" y="254"/>
      <point x="359" y="191" type="qcurve" smooth="yes"/>
      <point x="418" y="141"/>
      <point x="497" y="141" type="qcurve" smooth="yes"/>
      <point x="595" y="141"/>
      <point x="659" y="214" type="qcurve" smooth="no"/>
      <point x="710" y="274"/>
      <point x="710" y="353" type="qcurve" smooth="yes"/>
      <point x="710" y="449"/>
      <point x="637" y="513" type="qcurve" smooth="no"/>
      <point x="607" y="535" type="line" smooth="no"/>
      <point x="556" y="565"/>
      <point x="497" y="565" type="qcurve" smooth="yes"/>
      <point x="398" y="565"/>
      <point x="335" y="491" type="qcurve" smooth="yes"/>
      <point x="285" y="432"/>
    </contour>
    <contour>
      <point x="199" y="352" type="qcurve" smooth="no"/>
      <point x="199" y="440"/>
      <point x="244" y="512" type="qcurve" smooth="yes"/>
      <point x="254" y="528"/>
      <point x="256" y="532" type="qcurve" smooth="no"/>
      <point x="140" y="649" type="line" smooth="no"/>
      <point x="204" y="714" type="line" smooth="no"/>
      <point x="322" y="597" type="line" smooth="no"/>
      <point x="376" y="626" type="line" smooth="no"/>
      <point x="429" y="650"/>
      <point x="497" y="650" type="qcurve" smooth="yes"/>
      <point x="583" y="650"/>
      <point x="657" y="605" type="qcurve" smooth="yes"/>
      <point x="672" y="596"/>
      <point x="676" y="594" type="qcurve" smooth="no"/>
      <point x="795" y="715" type="line" smooth="no"/>
      <point x="861" y="648" type="line" smooth="no"/>
      <point x="743" y="530" type="line" smooth="no"/>
      <point x="771" y="479"/>
      <point x="776" y="467" type="qcurve" smooth="yes"/>
      <point x="796" y="416"/>
      <point x="795" y="352" type="qcurve" smooth="no"/>
      <point x="795" y="267"/>
      <point x="749" y="193" type="qcurve" smooth="no"/>
      <point x="739" y="176" type="line" smooth="no"/>
      <point x="860" y="56" type="line" smooth="no"/>
      <point x="796" y="-7" type="line" smooth="no"/>
      <point x="677" y="111" type="line" smooth="no"/>
      <point x="626" y="81"/>
      <point x="616" y="77" type="qcurve" smooth="yes"/>
      <point x="563" y="55"/>
      <point x="497" y="54" type="qcurve" smooth="no"/>
      <point x="410" y="55"/>
      <point x="337" y="99" type="qcurve" smooth="yes"/>
      <point x="324" y="107"/>
      <point x="321" y="109" type="qcurve" smooth="no"/>
      <point x="204" y="-8" type="line" smooth="no"/>
      <point x="139" y="59" type="line" smooth="no"/>
      <point x="255" y="173" type="line" smooth="no"/>
      <point x="225" y="227" type="line" smooth="no"/>
      <point x="200" y="281"/>
    </contour>
  </outline>
</glyph>
<glyph name="yen" format="1">
  <advance width="512"/>
  <unicode hex="00a5"/>
  <outline>
    <contour>
      <point x="300" y="221" type="line" smooth="no"/>
      <point x="300" y="-12" type="line" smooth="no"/>
      <point x="214" y="-12" type="line" smooth="no"/>
      <point x="214" y="221" type="line" smooth="no"/>
      <point x="28" y="221" type="line" smooth="no"/>
      <point x="28" y="293" type="line" smooth="no"/>
      <point x="211" y="293" type="line" smooth="no"/>
      <point x="150" y="431" type="line" smooth="no"/>
      <point x="28" y="431" type="line" smooth="no"/>
      <point x="28" y="503" type="line" smooth="no"/>
      <point x="118" y="503" type="line" smooth="no"/>
      <point x="12" y="744" type="line" smooth="no"/>
      <point x="100" y="744" type="line" smooth="no"/>
      <point x="206" y="503" type="line" smooth="no"/>
      <point x="308" y="503" type="line" smooth="no"/>
      <point x="414" y="744" type="line" smooth="no"/>
      <point x="502" y="744" type="line" smooth="no"/>
      <point x="396" y="503" type="line" smooth="no"/>
      <point x="490" y="503" type="line" smooth="no"/>
      <point x="490" y="431" type="line" smooth="no"/>
      <point x="364" y="431" type="line" smooth="no"/>
      <point x="303" y="293" type="line" smooth="no"/>
      <point x="490" y="293" type="line" smooth="no"/>
      <point x="490" y="221" type="line" smooth="no"/>
    </contour>
    <contour>
      <point x="276" y="431" type="line" smooth="no"/>
      <point x="238" y="431" type="line" smooth="no"/>
      <point x="257" y="388" type="line" smooth="no"/>
    </contour>
  </outline>
</glyph>
<glyph name="brokenbar" format="1">
  <advance width="512"/>
  <unicode hex="00a6"/>
  <outline>
    <contour>
      <point x="218" y="-136" type="line" smooth="no"/>
      <point x="218" y="874" type="line" smooth="no"/>
      <point x="290" y="874" type="line" smooth="no"/>
      <point x="290" y="-136" type="line" smooth="no"/>
    </contour>
  </outline>
</glyph>
<glyph name="section" format="1">
  <advance width="1024"/>
  <unicode hex="00a7"/>
  <outline>
    <contour>
      <point x="713" y="75" type="qcurve" smooth="yes"/>
      <point x="713" y="12"/>
      <point x="594" y="-92"/>
      <point x="480" y="-92" type="qcurve" smooth="yes"/>
      <point x="399" y="-92"/>
      <point x="338" y="-61" type="qcurve" smooth="yes"/>
      <point x="276" y="-30"/>
      <point x="250" y="56" type="qcurve" smooth="no"/>
      <point x="350" y="56" type="line" smooth="no"/>
      <point x="362" y="8"/>
      <point x="434" y="-19"/>
      <point x="480" y="-19" type="qcurve" smooth="yes"/>
      <point x="531" y="-19"/>
      <point x="615" y="20"/>
      <point x="615" y="74" type="qcurve" smooth="yes"/>
      <point x="615" y="115"/>
      <point x="553" y="160"/>
      <point x="361" y="256"/>
      <point x="264" y="328"/>
      <point x="264" y="400" type="qcurve" smooth="yes"/>
      <point x="264" y="449"/>
      <point x="310" y="496"/>
      <point x="329" y="507" type="qcurve" smooth="no"/>
      <point x="310" y="520"/>
      <point x="280" y="545" type="qcurve" smooth="yes"/>
      <point x="249" y="570"/>
      <point x="249" y="643" type="qcurve" smooth="yes"/>
      <point x="249" y="706"/>
      <point x="368" y="810"/>
      <point x="482" y="810" type="qcurve" smooth="yes"/>
      <point x="563" y="810"/>
      <point x="686" y="748"/>
      <point x="712" y="662" type="qcurve" smooth="no"/>
      <point x="612" y="662" type="line" smooth="no"/>
      <point x="600" y="710"/>
      <point x="528" y="737"/>
      <point x="482" y="737" type="qcurve" smooth="yes"/>
      <point x="431" y="737"/>
      <point x="347" y="698"/>
      <point x="347" y="644" type="qcurve" smooth="yes"/>
      <point x="347" y="603"/>
      <point x="409" y="558"/>
      <point x="601" y="462"/>
      <point x="698" y="390"/>
      <point x="698" y="318" type="qcurve" smooth="yes"/>
      <point x="698" y="269"/>
      <point x="652" y="222"/>
      <point x="633" y="211" type="qcurve" smooth="no"/>
      <point x="652" y="198"/>
      <point x="713" y="148"/>
    </contour>
    <contour>
      <point x="362" y="401" type="qcurve" smooth="yes"/>
      <point x="362" y="371"/>
      <point x="395" y="332"/>
      <point x="535" y="266"/>
      <point x="559" y="253" type="qcurve" smooth="no"/>
      <point x="575" y="261"/>
      <point x="600" y="283"/>
      <point x="600" y="317" type="qcurve" smooth="yes"/>
      <point x="600" y="347"/>
      <point x="567" y="386"/>
      <point x="427" y="452"/>
      <point x="403" y="465" type="qcurve" smooth="no"/>
      <point x="387" y="457"/>
      <point x="362" y="435"/>
    </contour>
  </outline>
</glyph>
<glyph name="dieresis" format="1">
  <advance width="1024"/>
  <unicode hex="00a8"/>
  <outline>
    <contour>
      <point x="316" y="690" type="line" smooth="no"/>
      <point x="316" y="810" type="line" smooth="no"/>
      <point x="436" y="810" type="line" smooth="no"/>
      <point x="436" y="690" type="line" smooth="no"/>
    </contour>
    <contour>
      <point x="564" y="690" type="line" smooth="no"/>
      <point x="564" y="810" type="line" smooth="no"/>
      <point x="684" y="810" type="line" smooth="no"/>
      <point x="684" y="690" type="line" smooth="no"/>
    </contour>
  </outline>
</glyph>
<glyph name="copyright" format="1">
  <advance width="512"/>
  <unicode hex="00a9"/>
  <outline>
    <contour>
      <point x="85" y="557" type="qcurve" smooth="yes"/>
      <point x="85" y="624"/>
      <point x="135" y="675" type="qcurve" smooth="yes"/>
      <point x="185" y="726"/>
      <point x="258" y="726" type="qcurve" smooth="yes"/>
      <point x="320" y="726"/>
      <point x="361" y="693" type="qcurve" smooth="yes"/>
      <point x="402" y="661"/>
      <point x="411" y="610" type="qcurve" smooth="no"/>
      <point x="363" y="610" type="line" smooth="no"/>
      <point x="355" y="646"/>
      <point x="329" y="668" type="qcurve" smooth="yes"/>
      <point x="302" y="690"/>
      <point x="258" y="690" type="qcurve" smooth="yes"/>
      <point x="210" y="690"/>
      <point x="171" y="655" type="qcurve" smooth="yes"/>
      <point x="132" y="621"/>
      <point x="132" y="556" type="qcurve" smooth="yes"/>
      <point x="132" y="490"/>
      <point x="171" y="455" type="qcurve" smooth="yes"/>
      <point x="210" y="419"/>
      <point x="258" y="419" type="qcurve" smooth="yes"/>
      <point x="302" y="419"/>
      <point x="332" y="444" type="qcurve" smooth="no"/>
      <point x="363" y="468"/>
      <point x="370" y="510" type="qcurve" smooth="no"/>
      <point x="418" y="510" type="line" smooth="no"/>
      <point x="411" y="459"/>
      <point x="373" y="421" type="qcurve" smooth="yes"/>
      <point x="335" y="383"/>
      <point x="258" y="383" type="qcurve" smooth="yes"/>
      <point x="185" y="383"/>
      <point x="135" y="434" type="qcurve" smooth="yes"/>
      <point x="85" y="485"/>
    </contour>
    <contour>
      <point x="-51" y="550" type="qcurve" smooth="yes"/>
      <point x="-51" y="676"/>
      <point x="39" y="767" type="qcurve" smooth="yes"/>
      <point x="129" y="858"/>
      <point x="256" y="858" type="qcurve" smooth="yes"/>
      <point x="382" y="858"/>
      <point x="473" y="767" type="qcurve" smooth="yes"/>
      <point x="563" y="676"/>
      <point x="563" y="550" type="qcurve" smooth="yes"/>
      <point x="563" y="424"/>
      <point x="473" y="333" type="qcurve" smooth="no"/>
      <point x="382" y="243"/>
      <point x="256" y="243" type="qcurve" smooth="yes"/>
      <point x="129" y="243"/>
      <point x="39" y="333" type="qcurve" smooth="yes"/>
      <point x="-51" y="424"/>
    </contour>
    <contour>
      <point x="-20" y="550" type="qcurve" smooth="yes"/>
      <point x="-20" y="433"/>
      <point x="60" y="354" type="qcurve" smooth="yes"/>
      <point x="140" y="275"/>
      <point x="256" y="275" type="qcurve" smooth="yes"/>
      <point x="372" y="275"/>
      <point x="452" y="354" type="qcurve" smooth="yes"/>
      <point x="532" y="433"/>
      <point x="532" y="550" type="qcurve" smooth="yes"/>
      <point x="532" y="666"/>
      <point x="452" y="746" type="qcurve" smooth="yes"/>
      <point x="372" y="826"/>
      <point x="256" y="826" type="qcurve" smooth="yes"/>
      <point x="140" y="826"/>
      <point x="60" y="746" type="qcurve" smooth="yes"/>
      <point x="-20" y="666"/>
    </contour>
  </outline>
</glyph>
<glyph name="ordfeminine" format="1">
  <advance width="512"/>
  <unicode hex="00aa"/>
  <outline>
    <contour>
      <point x="2" y="505" type="line" smooth="no"/>
      <point x="278" y="505" type="line" smooth="no"/>
      <point x="278" y="470" type="line" smooth="no"/>
      <point x="2" y="470" type="line" smooth="no"/>
    </contour>
    <contour>
      <point x="143" y="806" type="qcurve" smooth="yes"/>
      <point x="191" y="806"/>
      <point x="220" y="783" type="qcurve" smooth="yes"/>
      <point x="249" y="760"/>
      <point x="249" y="716" type="qcurve" smooth="yes"/>
      <point x="249" y="594" type="line" smooth="yes"/>
      <point x="249" y="563"/>
      <point x="262" y="537" type="qcurve" smooth="no"/>
      <point x="209" y="537" type="line" smooth="no"/>
      <point x="205" y="554"/>
      <point x="204" y="568" type="qcurve" smooth="no"/>
      <point x="189" y="553"/>
      <point x="166" y="546" type="qcurve" smooth="yes"/>
      <point x="143" y="538"/>
      <point x="121" y="537" type="qcurve" smooth="no"/>
      <point x="79" y="537"/>
      <point x="55" y="557" type="qcurve" smooth="yes"/>
      <point x="30" y="577"/>
      <point x="30" y="609" type="qcurve" smooth="yes"/>
      <point x="30" y="633"/>
      <point x="46" y="656" type="qcurve" smooth="yes"/>
      <point x="62" y="679"/>
      <point x="96" y="693" type="qcurve" smooth="yes"/>
      <point x="130" y="707"/>
      <point x="202" y="720" type="qcurve" smooth="no"/>
      <point x="202" y="730" type="line" smooth="yes"/>
      <point x="202" y="748"/>
      <point x="187" y="762" type="qcurve" smooth="yes"/>
      <point x="173" y="776"/>
      <point x="143" y="776" type="qcurve" smooth="yes"/>
      <point x="119" y="776"/>
      <point x="106" y="764" type="qcurve" smooth="yes"/>
      <point x="94" y="753"/>
      <point x="89" y="733" type="qcurve" smooth="no"/>
      <point x="41" y="733" type="line" smooth="no"/>
      <point x="45" y="766"/>
      <point x="73" y="786" type="qcurve" smooth="yes"/>
      <point x="101" y="806"/>
    </contour>
    <contour>
      <point x="202" y="688" type="line" smooth="no"/>
      <point x="151" y="679"/>
      <point x="124" y="669" type="qcurve" smooth="yes"/>
      <point x="97" y="659"/>
      <point x="89" y="645" type="qcurve" smooth="yes"/>
      <point x="81" y="631"/>
      <point x="81" y="610" type="qcurve" smooth="yes"/>
      <point x="81" y="591"/>
      <point x="92" y="582" type="qcurve" smooth="yes"/>
      <point x="102" y="573"/>
      <point x="122" y="573" type="qcurve" smooth="yes"/>
      <point x="141" y="573"/>
      <point x="162" y="581" type="qcurve" smooth="yes"/>
      <point x="184" y="589"/>
      <point x="202" y="622" type="qcurve" smooth="no"/>
    </contour>
  </outline>
</glyph>
<glyph name="guillemotleft" format="1">
  <advance width="512"/>
  <unicode hex="00ab"/>
  <outline>
    <contour>
      <point x="465" y="111" type="line" smooth="no"/>
      <point x="438" y="82" type="line" smooth="no"/>
      <point x="175" y="348" type="line" smooth="yes"/>
      <point x="164" y="360"/>
      <point x="175" y="372" type="qcurve" smooth="yes"/>
      <point x="438" y="638" type="line" smooth="no"/>
      <point x="465" y="609" type="line" smooth="no"/>
      <point x="219" y="361" type="line" smooth="no"/>
    </contour>
    <contour>
      <point x="343" y="111" type="line" smooth="no"/>
      <point x="315" y="82" type="line" smooth="no"/>
      <point x="52" y="348" type="line" smooth="yes"/>
      <point x="41" y="360"/>
      <point x="52" y="372" type="qcurve" smooth="yes"/>
      <point x="315" y="638" type="line" smooth="no"/>
      <point x="343" y="609" type="line" smooth="no"/>
      <point x="97" y="361" type="line" smooth="no"/>
    </contour>
  </outline>
</glyph>
<glyph name="logicalnot" format="1">
  <advance width="502"/>
  <unicode hex="00ac"/>
  <outline>
    <contour>
      <point x="42" y="324" type="line" smooth="no"/>
      <point x="450" y="324" type="line" smooth="no"/>
      <point x="450" y="-113" type="line" smooth="no"/>
      <point x="420" y="-113" type="line" smooth="no"/>
      <point x="420" y="259" type="line" smooth="no"/>
      <point x="42" y="259" type="line" smooth="no"/>
    </contour>
  </outline>
</glyph>
<glyph name="uni00AD" format="1">
  <advance width="512"/>
  <unicode hex="00ad"/>
  <outline>
    <contour>
      <point x="32" y="431" type="line" smooth="no"/>
      <point x="486" y="431" type="line" smooth="no"/>
      <point x="486" y="359" type="line" smooth="no"/>
      <point x="32" y="359" type="line" smooth="no"/>
    </contour>
  </outline>
</glyph>
<glyph name="registered" format="1">
  <advance width="512"/>
  <unicode hex="00ae"/>
  <outline>
    <contour>
      <point x="204" y="382" type="line" smooth="no"/>
      <point x="161" y="382" type="line" smooth="no"/>
      <point x="161" y="723" type="line" smooth="no"/>
      <point x="279" y="723" type="line" smooth="yes"/>
      <point x="351" y="723"/>
      <point x="380" y="699" type="qcurve" smooth="yes"/>
      <point x="408" y="675"/>
      <point x="408" y="632" type="qcurve" smooth="yes"/>
      <point x="408" y="589"/>
      <point x="384" y="569" type="qcurve" smooth="yes"/>
      <point x="360" y="548"/>
      <point x="320" y="543" type="qcurve" smooth="no"/>
      <point x="423" y="382" type="line" smooth="no"/>
      <point x="364" y="382" type="line" smooth="no"/>
      <point x="275" y="541" type="line" smooth="no"/>
      <point x="204" y="541" type="line" smooth="no"/>
    </contour>
    <contour>
      <point x="362" y="632" type="qcurve" smooth="yes"/>
      <point x="362" y="655"/>
      <point x="346" y="669" type="qcurve" smooth="yes"/>
      <point x="330" y="683"/>
      <point x="279" y="683" type="qcurve" smooth="yes"/>
      <point x="204" y="683" type="line" smooth="no"/>
      <point x="204" y="581" type="line" smooth="no"/>
      <point x="279" y="581" type="line" smooth="yes"/>
      <point x="330" y="581"/>
      <point x="346" y="595" type="qcurve" smooth="yes"/>
      <point x="362" y="609"/>
    </contour>
    <contour>
      <point x="-51" y="550" type="qcurve" smooth="yes"/>
      <point x="-51" y="676"/>
      <point x="39" y="767" type="qcurve" smooth="yes"/>
      <point x="129" y="858"/>
      <point x="256" y="858" type="qcurve" smooth="yes"/>
      <point x="382" y="858"/>
      <point x="473" y="767" type="qcurve" smooth="yes"/>
      <point x="563" y="676"/>
      <point x="563" y="550" type="qcurve" smooth="yes"/>
      <point x="563" y="424"/>
      <point x="473" y="333" type="qcurve" smooth="no"/>
      <point x="382" y="243"/>
      <point x="256" y="243" type="qcurve" smooth="yes"/>
      <point x="129" y="243"/>
      <point x="39" y="333" type="qcurve" smooth="yes"/>
      <point x="-51" y="424"/>
    </contour>
    <contour>
      <point x="-20" y="550" type="qcurve" smooth="yes"/>
      <point x="-20" y="433"/>
      <point x="60" y="354" type="qcurve" smooth="yes"/>
      <point x="140" y="275"/>
      <point x="256" y="275" type="qcurve" smooth="yes"/>
      <point x="372" y="275"/>
      <point x="452" y="354" type="qcurve" smooth="yes"/>
      <point x="532" y="433"/>
      <point x="532" y="550" type="qcurve" smooth="yes"/>
      <point x="532" y="666"/>
      <point x="452" y="746" type="qcurve" smooth="yes"/>
      <point x="372" y="826"/>
      <point x="256" y="826" type="qcurve" smooth="yes"/>
      <point x="140" y="826"/>
      <point x="60" y="746" type="qcurve" smooth="yes"/>
      <point x="-20" y="666"/>
    </contour>
  </outline>
</glyph>
<glyph name="macron" format="1">
  <advance width="512"/>
  <unicode hex="00af"/>
  <outline>
    <contour>
      <point x="4" y="880" type="line" smooth="no"/>
      <point x="505" y="880" type="line" smooth="no"/>
      <point x="505" y="809" type="line" smooth="no"/>
      <point x="4" y="809" type="line" smooth="no"/>
    </contour>
  </outline>
</glyph>
<glyph name="degree" format="1">
  <advance width="1024"/>
  <unicode hex="00b0"/>
  <outline>
    <contour>
      <point x="44" y="698" type="qcurve" smooth="yes"/>
      <point x="44" y="748"/>
      <point x="115" y="820"/>
      <point x="166" y="820" type="qcurve" smooth="yes"/>
      <point x="216" y="820"/>
      <point x="288" y="748"/>
      <point x="288" y="698" type="qcurve" smooth="yes"/>
      <point x="288" y="647"/>
      <point x="216" y="576"/>
      <point x="166" y="576" type="qcurve" smooth="yes"/>
      <point x="115" y="576"/>
      <point x="44" y="647"/>
    </contour>
    <contour>
      <point x="85" y="697" type="qcurve" smooth="yes"/>
      <point x="85" y="662"/>
      <point x="131" y="616"/>
      <point x="166" y="616" type="qcurve" smooth="yes"/>
      <point x="200" y="616"/>
      <point x="247" y="662"/>
      <point x="247" y="697" type="qcurve" smooth="yes"/>
      <point x="247" y="731"/>
      <point x="200" y="778"/>
      <point x="166" y="778" type="qcurve" smooth="yes"/>
      <point x="131" y="778"/>
      <point x="85" y="731"/>
    </contour>
  </outline>
</glyph>
<glyph name="plusminus" format="1">
  <advance width="1024"/>
  <unicode hex="00b1"/>
  <outline>
    <contour>
      <point x="471" y="785" type="line" smooth="no"/>
      <point x="545" y="785" type="line" smooth="no"/>
      <point x="545" y="498" type="line" smooth="no"/>
      <point x="865" y="498" type="line" smooth="no"/>
      <point x="865" y="425" type="line" smooth="no"/>
      <point x="545" y="425" type="line" smooth="no"/>
      <point x="545" y="137" type="line" smooth="no"/>
      <point x="471" y="137" type="line" smooth="no"/>
      <point x="471" y="425" type="line" smooth="no"/>
      <point x="151" y="425" type="line" smooth="no"/>
      <point x="151" y="498" type="line" smooth="no"/>
      <point x="471" y="498" type="line" smooth="no"/>
    </contour>
    <contour>
      <point x="151" y="77" type="line" smooth="no"/>
      <point x="865" y="77" type="line" smooth="no"/>
      <point x="865" y="4" type="line" smooth="no"/>
      <point x="151" y="4" type="line" smooth="no"/>
    </contour>
  </outline>
</glyph>
<glyph name="uni00B2" format="1">
  <advance width="512"/>
  <unicode hex="00b2"/>
  <outline>
    <contour>
      <point x="144" y="820" type="qcurve" smooth="yes"/>
      <point x="192" y="820"/>
      <point x="222" y="796" type="qcurve" smooth="yes"/>
      <point x="252" y="773"/>
      <point x="252" y="728" type="qcurve" smooth="yes"/>
      <point x="252" y="687"/>
      <point x="205" y="642" type="qcurve" smooth="no"/>
      <point x="72" y="522" type="line" smooth="no"/>
      <point x="249" y="522" type="line" smooth="no"/>
      <point x="241" y="482" type="line" smooth="no"/>
      <point x="25" y="482" type="line" smooth="no"/>
      <point x="25" y="528" type="line" smooth="no"/>
      <point x="158" y="650" type="line" smooth="no"/>
      <point x="202" y="686"/>
      <point x="202" y="729" type="qcurve" smooth="yes"/>
      <point x="202" y="764"/>
      <point x="184" y="774" type="qcurve" smooth="yes"/>
      <point x="167" y="784"/>
      <point x="144" y="784" type="qcurve" smooth="yes"/>
      <point x="120" y="784"/>
      <point x="101" y="775" type="qcurve" smooth="yes"/>
      <point x="82" y="766"/>
      <point x="82" y="725" type="qcurve" smooth="no"/>
      <point x="35" y="725" type="line" smooth="no"/>
      <point x="35" y="776"/>
      <point x="67" y="798" type="qcurve" smooth="yes"/>
      <point x="100" y="820"/>
    </contour>
  </outline>
</glyph>
<glyph name="uni00B3" format="1">
  <advance width="512"/>
  <unicode hex="00b3"/>
  <outline>
    <contour>
      <point x="144" y="820" type="qcurve" smooth="yes"/>
      <point x="190" y="820"/>
      <point x="221" y="793" type="qcurve" smooth="yes"/>
      <point x="252" y="765"/>
      <point x="252" y="732" type="qcurve" smooth="yes"/>
      <point x="252" y="711"/>
      <point x="235" y="689" type="qcurve" smooth="yes"/>
      <point x="218" y="666"/>
      <point x="194" y="661" type="qcurve" smooth="no"/>
      <point x="218" y="656"/>
      <point x="242" y="633" type="qcurve" smooth="yes"/>
      <point x="266" y="609"/>
      <point x="266" y="574" type="qcurve" smooth="yes"/>
      <point x="266" y="538"/>
      <point x="233" y="508" type="qcurve" smooth="yes"/>
      <point x="201" y="479"/>
      <point x="144" y="479" type="qcurve" smooth="yes"/>
      <point x="93" y="479"/>
      <point x="59" y="502" type="qcurve" smooth="no"/>
      <point x="26" y="526"/>
      <point x="26" y="574" type="qcurve" smooth="no"/>
      <point x="73" y="574" type="line" smooth="no"/>
      <point x="73" y="536"/>
      <point x="93" y="526" type="qcurve" smooth="yes"/>
      <point x="113" y="516"/>
      <point x="144" y="516" type="qcurve" smooth="yes"/>
      <point x="175" y="516"/>
      <point x="195" y="529" type="qcurve" smooth="yes"/>
      <point x="215" y="543"/>
      <point x="215" y="574" type="qcurve" smooth="yes"/>
      <point x="215" y="608"/>
      <point x="188" y="627" type="qcurve" smooth="yes"/>
      <point x="161" y="646"/>
      <point x="125" y="646" type="qcurve" smooth="no"/>
      <point x="125" y="674" type="line" smooth="no"/>
      <point x="162" y="674"/>
      <point x="182" y="694" type="qcurve" smooth="yes"/>
      <point x="202" y="713"/>
      <point x="202" y="732" type="qcurve" smooth="yes"/>
      <point x="202" y="756"/>
      <point x="184" y="770" type="qcurve" smooth="yes"/>
      <point x="167" y="784"/>
      <point x="144" y="784" type="qcurve" smooth="yes"/>
      <point x="120" y="784"/>
      <point x="101" y="773" type="qcurve" smooth="yes"/>
      <point x="82" y="763"/>
      <point x="82" y="725" type="qcurve" smooth="no"/>
      <point x="35" y="725" type="line" smooth="no"/>
      <point x="35" y="777"/>
      <point x="68" y="799" type="qcurve" smooth="no"/>
      <point x="102" y="820"/>
    </contour>
  </outline>
</glyph>
<glyph name="acute" format="1">
  <advance width="1024"/>
  <unicode hex="00b4"/>
  <outline>
    <contour>
      <point x="668" y="816" type="line" smooth="no"/>
      <point x="494" y="640" type="line" smooth="no"/>
      <point x="414" y="640" type="line" smooth="no"/>
      <point x="532" y="816" type="line" smooth="no"/>
    </contour>
  </outline>
</glyph>
<glyph name="uni00B5" format="1">
  <advance width="512"/>
  <unicode hex="00b5"/>
  <outline>
    <contour>
      <point x="370" y="357" type="line" smooth="no"/>
      <point x="368" y="247"/>
      <point x="424" y="173" type="qcurve" smooth="yes"/>
      <point x="449" y="140"/>
      <point x="470" y="137" type="qcurve" smooth="no"/>
      <point x="470" y="54" type="line" smooth="no"/>
      <point x="436" y="51"/>
      <point x="397" y="96" type="qcurve" smooth="no"/>
      <point x="368" y="131"/>
      <point x="354" y="178" type="qcurve" smooth="no"/>
      <point x="311" y="93"/>
      <point x="265" y="75" type="qcurve" smooth="yes"/>
      <point x="248" y="69"/>
      <point x="229" y="69" type="qcurve" smooth="yes"/>
      <point x="173" y="69"/>
      <point x="139" y="115" type="qcurve" smooth="yes"/>
      <point x="131" y="127" type="line" smooth="no"/>
      <point x="131" y="28" type="line" smooth="yes"/>
      <point x="131" y="-79"/>
      <point x="121" y="-143" type="qcurve" smooth="no"/>
      <point x="42" y="-143" type="line" smooth="no"/>
      <point x="58" y="-27"/>
      <point x="58" y="40" type="qcurve" smooth="yes"/>
      <point x="58" y="524" type="line" smooth="no"/>
      <point x="131" y="524" type="line" smooth="no"/>
      <point x="131" y="332" type="line" smooth="yes"/>
      <point x="131" y="203"/>
      <point x="183" y="159" type="qcurve" smooth="yes"/>
      <point x="199" y="145"/>
      <point x="217" y="145" type="qcurve" smooth="yes"/>
      <point x="268" y="145"/>
      <point x="287" y="204" type="qcurve" smooth="yes"/>
      <point x="295" y="229"/>
      <point x="295" y="264" type="qcurve" smooth="yes"/>
      <point x="295" y="524" type="line" smooth="no"/>
      <point x="370" y="524" type="line" smooth="no"/>
    </contour>
  </outline>
</glyph>
<glyph name="paragraph" format="1">
  <advance width="1024"/>
  <unicode hex="00b6"/>
  <outline>
    <contour>
      <point x="198" y="584" type="qcurve" smooth="yes"/>
      <point x="198" y="660"/>
      <point x="285" y="777"/>
      <point x="370" y="777" type="qcurve" smooth="yes"/>
      <point x="705" y="777" type="line" smooth="no"/>
      <point x="705" y="-16" type="line" smooth="no"/>
      <point x="636" y="-16" type="line" smooth="no"/>
      <point x="636" y="726" type="line" smooth="no"/>
      <point x="445" y="726" type="line" smooth="no"/>
      <point x="445" y="-16" type="line" smooth="no"/>
      <point x="377" y="-16" type="line" smooth="no"/>
      <point x="377" y="391" type="line" smooth="no"/>
      <point x="370" y="391" type="line" smooth="yes"/>
      <point x="285" y="391"/>
      <point x="198" y="507"/>
    </contour>
  </outline>
</glyph>
<glyph name="periodcentered" format="1">
  <advance width="512"/>
  <unicode hex="00b7"/>
  <outline>
    <contour>
      <point x="196" y="324" type="line" smooth="no"/>
      <point x="196" y="440" type="line" smooth="no"/>
      <point x="312" y="440" type="line" smooth="no"/>
      <point x="312" y="324" type="line" smooth="no"/>
    </contour>
  </outline>
</glyph>
<glyph name="cedilla" format="1">
  <advance width="512"/>
  <unicode hex="00b8"/>
  <outline>
    <contour>
      <point x="222" y="14" type="qcurve" smooth="no"/>
      <point x="264" y="14" type="line" smooth="no"/>
      <point x="291" y="-8" type="line" smooth="no"/>
      <point x="306" y="-18"/>
      <point x="318" y="-20" type="qcurve" smooth="yes"/>
      <point x="361" y="-27"/>
      <point x="376" y="-60" type="qcurve" smooth="yes"/>
      <point x="381" y="-70"/>
      <point x="381" y="-80" type="qcurve" smooth="yes"/>
      <point x="381" y="-110"/>
      <point x="340" y="-134" type="qcurve" smooth="yes"/>
      <point x="308" y="-152"/>
      <point x="271" y="-152" type="qcurve" smooth="no"/>
      <point x="234" y="-157"/>
      <point x="193" y="-129" type="qcurve" smooth="yes"/>
      <point x="173" y="-115"/>
      <point x="160" y="-97" type="qcurve" smooth="no"/>
      <point x="214" y="-63" type="line" smooth="no"/>
      <point x="238" y="-83" type="line" smooth="no"/>
      <point x="257" y="-96"/>
      <point x="271" y="-97" type="qcurve" smooth="yes"/>
      <point x="290" y="-98"/>
      <point x="299" y="-94" type="qcurve" smooth="yes"/>
      <point x="311" y="-90"/>
      <point x="312" y="-80" type="qcurve" smooth="yes"/>
      <point x="314" y="-67"/>
      <point x="291" y="-58" type="qcurve" smooth="yes"/>
      <point x="286" y="-56" type="line" smooth="no"/>
      <point x="237" y="-38"/>
      <point x="225" y="5" type="qcurve" smooth="yes"/>
      <point x="223" y="9"/>
    </contour>
  </outline>
</glyph>
<glyph name="uni00B9" format="1">
  <advance width="512"/>
  <unicode hex="00b9"/>
  <outline>
    <contour>
      <point x="169" y="475" type="line" smooth="no"/>
      <point x="122" y="475" type="line" smooth="no"/>
      <point x="122" y="750" type="line" smooth="yes"/>
      <point x="122" y="764"/>
      <point x="102" y="764" type="qcurve" smooth="yes"/>
      <point x="63" y="764" type="line" smooth="no"/>
      <point x="63" y="790" type="line" smooth="no"/>
      <point x="129" y="793"/>
      <point x="141" y="822" type="qcurve" smooth="no"/>
      <point x="169" y="822" type="line" smooth="no"/>
      <point x="169" y="795" type="line" smooth="no"/>
    </contour>
  </outline>
</glyph>
<glyph name="ordmasculine" format="1">
  <advance width="512"/>
  <unicode hex="00ba"/>
  <outline>
    <contour>
      <point x="2" y="505" type="line" smooth="no"/>
      <point x="278" y="505" type="line" smooth="no"/>
      <point x="278" y="470" type="line" smooth="no"/>
      <point x="2" y="470" type="line" smooth="no"/>
    </contour>
    <contour>
      <point x="16" y="674" type="qcurve" smooth="yes"/>
      <point x="16" y="725"/>
      <point x="52" y="765" type="qcurve" smooth="no"/>
      <point x="87" y="806"/>
      <point x="142" y="806" type="qcurve" smooth="yes"/>
      <point x="197" y="806"/>
      <point x="233" y="765" type="qcurve" smooth="yes"/>
      <point x="269" y="725"/>
      <point x="269" y="674" type="qcurve" smooth="yes"/>
      <point x="269" y="619"/>
      <point x="233" y="578" type="qcurve" smooth="yes"/>
      <point x="197" y="537"/>
      <point x="142" y="537" type="qcurve" smooth="yes"/>
      <point x="87" y="537"/>
      <point x="52" y="578" type="qcurve" smooth="yes"/>
      <point x="17" y="619"/>
    </contour>
    <contour>
      <point x="67" y="674" type="qcurve" smooth="yes"/>
      <point x="67" y="625"/>
      <point x="90" y="601" type="qcurve" smooth="yes"/>
      <point x="113" y="578"/>
      <point x="142" y="578" type="qcurve" smooth="yes"/>
      <point x="172" y="578"/>
      <point x="195" y="601" type="qcurve" smooth="yes"/>
      <point x="218" y="625"/>
      <point x="218" y="674" type="qcurve" smooth="yes"/>
      <point x="218" y="721"/>
      <point x="195" y="743" type="qcurve" smooth="yes"/>
      <point x="172" y="766"/>
      <point x="142" y="766" type="qcurve" smooth="yes"/>
      <point x="113" y="766"/>
      <point x="90" y="743" type="qcurve" smooth="yes"/>
      <point x="67" y="721"/>
    </contour>
  </outline>
</glyph>
<glyph name="guillemotright" format="1">
  <advance width="512"/>
  <unicode hex="00bb"/>
  <outline>
    <contour>
      <point x="169" y="111" type="line" smooth="no"/>
      <point x="415" y="361" type="line" smooth="no"/>
      <point x="169" y="609" type="line" smooth="no"/>
      <point x="197" y="638" type="line" smooth="no"/>
      <point x="460" y="372" type="line" smooth="yes"/>
      <point x="471" y="360"/>
      <point x="460" y="348" type="qcurve" smooth="yes"/>
      <point x="197" y="82" type="line" smooth="no"/>
    </contour>
    <contour>
      <point x="47" y="111" type="line" smooth="no"/>
      <point x="293" y="361" type="line" smooth="no"/>
      <point x="47" y="609" type="line" smooth="no"/>
      <point x="74" y="638" type="line" smooth="no"/>
      <point x="337" y="372" type="line" smooth="yes"/>
      <point x="348" y="360"/>
      <point x="337" y="348" type="qcurve" smooth="yes"/>
      <point x="74" y="82" type="line" smooth="no"/>
    </contour>
  </outline>
</glyph>
<glyph name="onequarter" format="1">
  <advance width="512"/>
  <unicode hex="00bc"/>
  <outline>
    <contour>
      <point x="424" y="112" type="line" smooth="no"/>
      <point x="377" y="112" type="line" smooth="no"/>
      <point x="377" y="191" type="line" smooth="no"/>
      <point x="228" y="191" type="line" smooth="no"/>
      <point x="228" y="212" type="line" smooth="no"/>
      <point x="383" y="460" type="line" smooth="no"/>
      <point x="424" y="460" type="line" smooth="no"/>
      <point x="424" y="232" type="line" smooth="no"/>
      <point x="485" y="232" type="line" smooth="no"/>
      <point x="485" y="191" type="line" smooth="no"/>
      <point x="424" y="191" type="line" smooth="no"/>
    </contour>
    <contour>
      <point x="377" y="376" type="line" smooth="no"/>
      <point x="285" y="232" type="line" smooth="no"/>
      <point x="377" y="232" type="line" smooth="no"/>
    </contour>
    <contour>
      <point x="340" y="678" type="line" smooth="no"/>
      <point x="371" y="669" type="line" smooth="no"/>
      <point x="121" y="282" type="line" smooth="no"/>
      <point x="90" y="290" type="line" smooth="no"/>
    </contour>
    <contour>
      <point x="133" y="501" type="line" smooth="no"/>
      <point x="86" y="501" type="line" smooth="no"/>
      <point x="86" y="776" type="line" smooth="yes"/>
      <point x="86" y="790"/>
      <point x="66" y="790" type="qcurve" smooth="yes"/>
      <point x="27" y="790" type="line" smooth="no"/>
      <point x="27" y="816" type="line" smooth="no"/>
      <point x="93" y="819"/>
      <point x="105" y="849" type="qcurve" smooth="no"/>
      <point x="133" y="849" type="line" smooth="no"/>
      <point x="133" y="821" type="line" smooth="no"/>
    </contour>
  </outline>
</glyph>
<glyph name="onehalf" format="1">
  <advance width="512"/>
  <unicode hex="00bd"/>
  <outline>
    <contour>
      <point x="368" y="458" type="qcurve" smooth="yes"/>
      <point x="417" y="458"/>
      <point x="447" y="434" type="qcurve" smooth="yes"/>
      <point x="477" y="410"/>
      <point x="477" y="366" type="qcurve" smooth="yes"/>
      <point x="477" y="324"/>
      <point x="430" y="280" type="qcurve" smooth="no"/>
      <point x="297" y="160" type="line" smooth="no"/>
      <point x="474" y="160" type="line" smooth="no"/>
      <point x="466" y="119" type="line" smooth="no"/>
      <point x="250" y="119" type="line" smooth="no"/>
      <point x="250" y="165" type="line" smooth="no"/>
      <point x="383" y="288" type="line" smooth="no"/>
      <point x="427" y="323"/>
      <point x="427" y="366" type="qcurve" smooth="yes"/>
      <point x="427" y="401"/>
      <point x="409" y="411" type="qcurve" smooth="yes"/>
      <point x="392" y="421"/>
      <point x="368" y="421" type="qcurve" smooth="yes"/>
      <point x="345" y="421"/>
      <point x="326" y="412" type="qcurve" smooth="yes"/>
      <point x="307" y="403"/>
      <point x="307" y="362" type="qcurve" smooth="no"/>
      <point x="260" y="362" type="line" smooth="no"/>
      <point x="260" y="414"/>
      <point x="292" y="436" type="qcurve" smooth="yes"/>
      <point x="324" y="458"/>
    </contour>
    <contour>
      <point x="348" y="678" type="line" smooth="no"/>
      <point x="379" y="669" type="line" smooth="no"/>
      <point x="129" y="282" type="line" smooth="no"/>
      <point x="98" y="290" type="line" smooth="no"/>
    </contour>
    <contour>
      <point x="141" y="501" type="line" smooth="no"/>
      <point x="93" y="501" type="line" smooth="no"/>
      <point x="93" y="776" type="line" smooth="yes"/>
      <point x="93" y="790"/>
      <point x="74" y="790" type="qcurve" smooth="yes"/>
      <point x="35" y="790" type="line" smooth="no"/>
      <point x="35" y="816" type="line" smooth="no"/>
      <point x="101" y="819"/>
      <point x="113" y="849" type="qcurve" smooth="no"/>
      <point x="141" y="849" type="line" smooth="no"/>
      <point x="141" y="821" type="line" smooth="no"/>
    </contour>
  </outline>
</glyph>
<glyph name="threequarters" format="1">
  <advance width="512"/>
  <unicode hex="00be"/>
  <outline>
    <contour>
      <point x="443" y="112" type="line" smooth="no"/>
      <point x="395" y="112" type="line" smooth="no"/>
      <point x="395" y="191" type="line" smooth="no"/>
      <point x="247" y="191" type="line" smooth="no"/>
      <point x="247" y="212" type="line" smooth="no"/>
      <point x="401" y="460" type="line" smooth="no"/>
      <point x="443" y="460" type="line" smooth="no"/>
      <point x="443" y="232" type="line" smooth="no"/>
      <point x="504" y="232" type="line" smooth="no"/>
      <point x="504" y="191" type="line" smooth="no"/>
      <point x="443" y="191" type="line" smooth="no"/>
    </contour>
    <contour>
      <point x="395" y="376" type="line" smooth="no"/>
      <point x="304" y="232" type="line" smooth="no"/>
      <point x="395" y="232" type="line" smooth="no"/>
    </contour>
    <contour>
      <point x="359" y="678" type="line" smooth="no"/>
      <point x="389" y="669" type="line" smooth="no"/>
      <point x="140" y="282" type="line" smooth="no"/>
      <point x="108" y="290" type="line" smooth="no"/>
    </contour>
    <contour>
      <point x="126" y="847" type="qcurve" smooth="yes"/>
      <point x="173" y="847"/>
      <point x="204" y="819" type="qcurve" smooth="yes"/>
      <point x="235" y="792"/>
      <point x="235" y="758" type="qcurve" smooth="yes"/>
      <point x="235" y="737"/>
      <point x="218" y="715" type="qcurve" smooth="yes"/>
      <point x="200" y="693"/>
      <point x="176" y="687" type="qcurve" smooth="no"/>
      <point x="200" y="683"/>
      <point x="224" y="659" type="qcurve" smooth="yes"/>
      <point x="248" y="636"/>
      <point x="248" y="601" type="qcurve" smooth="yes"/>
      <point x="248" y="564"/>
      <point x="216" y="535" type="qcurve" smooth="yes"/>
      <point x="184" y="506"/>
      <point x="126" y="506" type="qcurve" smooth="yes"/>
      <point x="75" y="506"/>
      <point x="42" y="529" type="qcurve" smooth="yes"/>
      <point x="8" y="552"/>
      <point x="8" y="601" type="qcurve" smooth="no"/>
      <point x="56" y="601" type="line" smooth="no"/>
      <point x="56" y="563"/>
      <point x="76" y="552" type="qcurve" smooth="yes"/>
      <point x="96" y="542"/>
      <point x="126" y="542" type="qcurve" smooth="yes"/>
      <point x="158" y="542"/>
      <point x="178" y="556" type="qcurve" smooth="yes"/>
      <point x="197" y="569"/>
      <point x="197" y="600" type="qcurve" smooth="yes"/>
      <point x="197" y="635"/>
      <point x="144" y="672"/>
      <point x="108" y="672" type="qcurve" smooth="no"/>
      <point x="108" y="701" type="line" smooth="no"/>
      <point x="144" y="701"/>
      <point x="164" y="720" type="qcurve" smooth="yes"/>
      <point x="184" y="739"/>
      <point x="184" y="759" type="qcurve" smooth="yes"/>
      <point x="184" y="783"/>
      <point x="167" y="796" type="qcurve" smooth="yes"/>
      <point x="149" y="810"/>
      <point x="126" y="810" type="qcurve" smooth="yes"/>
      <point x="102" y="810"/>
      <point x="83" y="800" type="qcurve" smooth="yes"/>
      <point x="64" y="789"/>
      <point x="64" y="751" type="qcurve" smooth="no"/>
      <point x="17" y="751" type="line" smooth="no"/>
      <point x="17" y="803"/>
      <point x="51" y="825" type="qcurve" smooth="yes"/>
      <point x="84" y="847"/>
    </contour>
  </outline>
</glyph>
<glyph name="questiondown" format="1">
  <advance width="512"/>
  <unicode hex="00bf"/>
  <outline>
    <contour>
      <point x="314" y="792" type="line" smooth="no"/>
      <point x="314" y="678" type="line" smooth="no"/>
      <point x="206" y="678" type="line" smooth="no"/>
      <point x="206" y="792" type="line" smooth="no"/>
    </contour>
    <contour>
      <point x="246" y="-41" type="qcurve" smooth="no"/>
      <point x="201" y="-42"/>
      <point x="160" y="-31" type="qcurve" smooth="no"/>
      <point x="139" y="-24"/>
      <point x="119" y="-15" type="qcurve" smooth="yes"/>
      <point x="60" y="13"/>
      <point x="34" y="54" type="qcurve" smooth="yes"/>
      <point x="9" y="95"/>
      <point x="9" y="141" type="qcurve" smooth="yes"/>
      <point x="9" y="226"/>
      <point x="63" y="271" type="qcurve" smooth="yes"/>
      <point x="117" y="316"/>
      <point x="161" y="344" type="qcurve" smooth="yes"/>
      <point x="205" y="371"/>
      <point x="212" y="408" type="qcurve" smooth="no"/>
      <point x="218" y="446"/>
      <point x="218" y="496" type="qcurve" smooth="yes"/>
      <point x="218" y="555" type="line" smooth="no"/>
      <point x="303" y="555" type="line" smooth="no"/>
      <point x="303" y="496" type="line" smooth="yes"/>
      <point x="303" y="446"/>
      <point x="291" y="398" type="qcurve" smooth="yes"/>
      <point x="279" y="350"/>
      <point x="230" y="312" type="qcurve" smooth="yes"/>
      <point x="180" y="273"/>
      <point x="144" y="240" type="qcurve" smooth="yes"/>
      <point x="109" y="207"/>
      <point x="109" y="142" type="qcurve" smooth="yes"/>
      <point x="109" y="102"/>
      <point x="129" y="78" type="qcurve" smooth="yes"/>
      <point x="149" y="53"/>
      <point x="174" y="42" type="qcurve" smooth="yes"/>
      <point x="199" y="32"/>
      <point x="293" y="32"/>
      <point x="324" y="44" type="qcurve" smooth="yes"/>
      <point x="356" y="56"/>
      <point x="374" y="90" type="qcurve" smooth="yes"/>
      <point x="392" y="124"/>
      <point x="392" y="166" type="qcurve" smooth="yes"/>
      <point x="392" y="212" type="line" smooth="no"/>
      <point x="496" y="212" type="line" smooth="no"/>
      <point x="496" y="166" type="line" smooth="yes"/>
      <point x="496" y="124"/>
      <point x="468" y="72" type="qcurve" smooth="yes"/>
      <point x="439" y="20"/>
      <point x="383" y="-10" type="qcurve" smooth="yes"/>
      <point x="327" y="-41"/>
    </contour>
  </outline>
</glyph>
<glyph name="Atilde" format="1">
  <advance width="512"/>
  <unicode hex="00c3"/>
  <outline>
    <contour>
      <point x="461" y="834" type="line" smooth="no"/>
      <point x="394" y="775"/>
      <point x="350" y="775" type="qcurve" smooth="yes"/>
      <point x="308" y="775"/>
      <point x="277" y="802" type="qcurve" smooth="yes"/>
      <point x="221" y="850" type="line" smooth="yes"/>
      <point x="196" y="871"/>
      <point x="162" y="871" type="qcurve" smooth="yes"/>
      <point x="126" y="871"/>
      <point x="51" y="803" type="qcurve" smooth="no"/>
      <point x="51" y="881" type="line" smooth="no"/>
      <point x="118" y="940"/>
      <point x="162" y="940" type="qcurve" smooth="yes"/>
      <point x="204" y="940"/>
      <point x="235" y="913" type="qcurve" smooth="yes"/>
      <point x="291" y="865" type="line" smooth="yes"/>
      <point x="316" y="844"/>
      <point x="350" y="844" type="qcurve" smooth="yes"/>
      <point x="386" y="844"/>
      <point x="461" y="912" type="qcurve" smooth="no"/>
    </contour>
    <contour>
      <point x="502" y="-12" type="line" smooth="no"/>
      <point x="414" y="-12" type="line" smooth="no"/>
      <point x="357" y="210" type="line" smooth="no"/>
      <point x="155" y="210" type="line" smooth="no"/>
      <point x="98" y="-12" type="line" smooth="no"/>
      <point x="10" y="-12" type="line" smooth="no"/>
      <point x="206" y="750" type="line" smooth="no"/>
      <point x="218" y="750" type="line" smooth="no"/>
      <point x="294" y="750" type="line" smooth="no"/>
      <point x="306" y="750" type="line" smooth="no"/>
    </contour>
    <contour>
      <point x="252" y="586" type="line" smooth="no"/>
      <point x="178" y="300" type="line" smooth="no"/>
      <point x="334" y="300" type="line" smooth="no"/>
      <point x="260" y="586" type="line" smooth="no"/>
    </contour>
  </outline>
</glyph>
<glyph name="Adieresis" format="1">
  <advance width="512"/>
  <unicode hex="00c4"/>
  <outline>
    <contour>
      <point x="60" y="775" type="line" smooth="no"/>
      <point x="60" y="895" type="line" smooth="no"/>
      <point x="180" y="895" type="line" smooth="no"/>
      <point x="180" y="775" type="line" smooth="no"/>
    </contour>
    <contour>
      <point x="308" y="775" type="line" smooth="no"/>
      <point x="308" y="895" type="line" smooth="no"/>
      <point x="428" y="895" type="line" smooth="no"/>
      <point x="428" y="775" type="line" smooth="no"/>
    </contour>
    <contour>
      <point x="502" y="-12" type="line" smooth="no"/>
      <point x="414" y="-12" type="line" smooth="no"/>
      <point x="357" y="210" type="line" smooth="no"/>
      <point x="155" y="210" type="line" smooth="no"/>
      <point x="98" y="-12" type="line" smooth="no"/>
      <point x="10" y="-12" type="line" smooth="no"/>
      <point x="206" y="750" type="line" smooth="no"/>
      <point x="218" y="750" type="line" smooth="no"/>
      <point x="294" y="750" type="line" smooth="no"/>
      <point x="306" y="750" type="line" smooth="no"/>
    </contour>
    <contour>
      <point x="252" y="586" type="line" smooth="no"/>
      <point x="178" y="300" type="line" smooth="no"/>
      <point x="334" y="300" type="line" smooth="no"/>
      <point x="260" y="586" type="line" smooth="no"/>
    </contour>
  </outline>
</glyph>
<glyph name="Aring" format="1">
  <advance width="512"/>
  <unicode hex="00c5"/>
  <outline>
    <contour>
      <point x="134" y="897" type="qcurve" smooth="yes"/>
      <point x="134" y="947"/>
      <point x="170" y="983" type="qcurve" smooth="yes"/>
      <point x="205" y="1019"/>
      <point x="256" y="1019" type="qcurve" smooth="yes"/>
      <point x="306" y="1019"/>
      <point x="342" y="983" type="qcurve" smooth="yes"/>
      <point x="378" y="947"/>
      <point x="378" y="897" type="qcurve" smooth="yes"/>
      <point x="378" y="846"/>
      <point x="342" y="810" type="qcurve" smooth="yes"/>
      <point x="306" y="775"/>
      <point x="256" y="775" type="qcurve" smooth="yes"/>
      <point x="205" y="775"/>
      <point x="170" y="810" type="qcurve" smooth="yes"/>
      <point x="134" y="846"/>
    </contour>
    <contour>
      <point x="175" y="896" type="qcurve" smooth="yes"/>
      <point x="175" y="861"/>
      <point x="221" y="815"/>
      <point x="256" y="815" type="qcurve" smooth="yes"/>
      <point x="290" y="815"/>
      <point x="314" y="838" type="qcurve" smooth="yes"/>
      <point x="337" y="861"/>
      <point x="337" y="896" type="qcurve" smooth="yes"/>
      <point x="337" y="930"/>
      <point x="290" y="977"/>
      <point x="256" y="977" type="qcurve" smooth="yes"/>
      <point x="221" y="977"/>
      <point x="198" y="954" type="qcurve" smooth="yes"/>
      <point x="175" y="930"/>
    </contour>
    <contour>
      <point x="502" y="-12" type="line" smooth="no"/>
      <point x="414" y="-12" type="line" smooth="no"/>
      <point x="357" y="210" type="line" smooth="no"/>
      <point x="155" y="210" type="line" smooth="no"/>
      <point x="98" y="-12" type="line" smooth="no"/>
      <point x="10" y="-12" type="line" smooth="no"/>
      <point x="206" y="750" type="line" smooth="no"/>
      <point x="218" y="750" type="line" smooth="no"/>
      <point x="294" y="750" type="line" smooth="no"/>
      <point x="306" y="750" type="line" smooth="no"/>
    </contour>
    <contour>
      <point x="252" y="586" type="line" smooth="no"/>
      <point x="178" y="300" type="line" smooth="no"/>
      <point x="334" y="300" type="line" smooth="no"/>
      <point x="260" y="586" type="line" smooth="no"/>
    </contour>
  </outline>
</glyph>
<glyph name="AE" format="1">
  <advance width="896"/>
  <unicode hex="00c6"/>
  <outline>
    <contour>
      <point x="439" y="586" type="line" smooth="no"/>
      <point x="423" y="586" type="line" smooth="no"/>
      <point x="275" y="300" type="line" smooth="no"/>
      <point x="439" y="300" type="line" smooth="no"/>
    </contour>
    <contour>
      <point x="439" y="210" type="line" smooth="no"/>
      <point x="228" y="210" type="line" smooth="no"/>
      <point x="115" y="-12" type="line" smooth="no"/>
      <point x="20" y="-12" type="line" smooth="no"/>
      <point x="413" y="750" type="line" smooth="no"/>
      <point x="857" y="750" type="line" smooth="no"/>
      <point x="857" y="660" type="line" smooth="no"/>
      <point x="528" y="660" type="line" smooth="no"/>
      <point x="528" y="432" type="line" smooth="no"/>
      <point x="801" y="432" type="line" smooth="no"/>
      <point x="801" y="342" type="line" smooth="no"/>
      <point x="528" y="342" type="line" smooth="no"/>
      <point x="528" y="78" type="line" smooth="no"/>
      <point x="857" y="78" type="line" smooth="no"/>
      <point x="857" y="-12" type="line" smooth="no"/>
      <point x="439" y="-12" type="line" smooth="no"/>
    </contour>
  </outline>
</glyph>
<glyph name="Ccedilla" format="1">
  <advance width="512"/>
  <unicode hex="00c7"/>
  <outline>
    <contour>
      <point x="229" y="-8" type="qcurve" smooth="no"/>
      <point x="141" y="6"/>
      <point x="82" y="104" type="qcurve" smooth="yes"/>
      <point x="14" y="218"/>
      <point x="14" y="378" type="qcurve" smooth="yes"/>
      <point x="14" y="528"/>
      <point x="82" y="642" type="qcurve" smooth="yes"/>
      <point x="151" y="756"/>
      <point x="259" y="756" type="qcurve" smooth="yes"/>
      <point x="345" y="756"/>
      <point x="412" y="699" type="qcurve" smooth="yes"/>
      <point x="479" y="642"/>
      <point x="493" y="497" type="qcurve" smooth="no"/>
      <point x="397" y="496" type="line" smooth="no"/>
      <point x="387" y="609"/>
      <point x="350" y="642" type="qcurve" smooth="yes"/>
      <point x="312" y="675"/>
      <point x="259" y="675" type="qcurve" smooth="yes"/>
      <point x="198" y="675"/>
      <point x="152" y="598" type="qcurve" smooth="yes"/>
      <point x="106" y="521"/>
      <point x="106" y="377" type="qcurve" smooth="yes"/>
      <point x="106" y="230"/>
      <point x="152" y="150" type="qcurve" smooth="yes"/>
      <point x="198" y="71"/>
      <point x="259" y="71" type="qcurve" smooth="yes"/>
      <point x="318" y="71"/>
      <point x="360" y="110" type="qcurve" smooth="yes"/>
      <point x="401" y="148"/>
      <point x="409" y="273" type="qcurve" smooth="no"/>
      <point x="505" y="273" type="line" smooth="no"/>
      <point x="497" y="128"/>
      <point x="432" y="59" type="qcurve" smooth="yes"/>
      <point x="377" y="1"/>
      <point x="291" y="-8" type="qcurve" smooth="no"/>
      <point x="307" y="-18"/>
      <point x="318" y="-20" type="qcurve" smooth="yes"/>
      <point x="361" y="-27"/>
      <point x="376" y="-60" type="qcurve" smooth="yes"/>
      <point x="381" y="-70"/>
      <point x="381" y="-80" type="qcurve" smooth="yes"/>
      <point x="381" y="-110"/>
      <point x="340" y="-134" type="qcurve" smooth="yes"/>
      <point x="308" y="-152"/>
      <point x="271" y="-152" type="qcurve" smooth="no"/>
      <point x="234" y="-157"/>
      <point x="193" y="-129" type="qcurve" smooth="yes"/>
      <point x="173" y="-115"/>
      <point x="160" y="-97" type="qcurve" smooth="no"/>
      <point x="214" y="-63" type="line" smooth="no"/>
      <point x="238" y="-83" type="line" smooth="no"/>
      <point x="257" y="-96"/>
      <point x="271" y="-97" type="qcurve" smooth="yes"/>
      <point x="290" y="-98"/>
      <point x="299" y="-94" type="qcurve" smooth="yes"/>
      <point x="311" y="-90"/>
      <point x="312" y="-80" type="qcurve" smooth="yes"/>
      <point x="314" y="-67"/>
      <point x="291" y="-58" type="qcurve" smooth="yes"/>
      <point x="286" y="-56" type="line" smooth="no"/>
      <point x="243" y="-40"/>
    </contour>
  </outline>
</glyph>
<glyph name="Eacute" format="1">
  <advance width="512"/>
  <unicode hex="00c9"/>
  <outline>
    <contour>
      <point x="383" y="951" type="line" smooth="no"/>
      <point x="209" y="775" type="line" smooth="no"/>
      <point x="129" y="775" type="line" smooth="no"/>
      <point x="247" y="951" type="line" smooth="no"/>
    </contour>
    <contour>
      <point x="468" y="750" type="line" smooth="no"/>
      <point x="468" y="660" type="line" smooth="no"/>
      <point x="130" y="660" type="line" smooth="no"/>
      <point x="130" y="432" type="line" smooth="no"/>
      <point x="412" y="432" type="line" smooth="no"/>
      <point x="412" y="342" type="line" smooth="no"/>
      <point x="130" y="342" type="line" smooth="no"/>
      <point x="130" y="78" type="line" smooth="no"/>
      <point x="468" y="78" type="line" smooth="no"/>
      <point x="468" y="-12" type="line" smooth="no"/>
      <point x="44" y="-12" type="line" smooth="no"/>
      <point x="44" y="750" type="line" smooth="no"/>
    </contour>
  </outline>
</glyph>
<glyph name="Ecircumflex" format="1">
  <advance width="512"/>
  <unicode hex="00ca"/>
  <outline>
    <contour>
      <point x="236" y="951" type="line" smooth="no"/>
      <point x="276" y="951" type="line" smooth="no"/>
      <point x="415" y="810" type="line" smooth="no"/>
      <point x="364" y="775" type="line" smooth="no"/>
      <point x="256" y="888" type="line" smooth="no"/>
      <point x="148" y="775" type="line" smooth="no"/>
      <point x="97" y="810" type="line" smooth="no"/>
    </contour>
    <contour>
      <point x="468" y="750" type="line" smooth="no"/>
      <point x="468" y="660" type="line" smooth="no"/>
      <point x="130" y="660" type="line" smooth="no"/>
      <point x="130" y="432" type="line" smooth="no"/>
      <point x="412" y="432" type="line" smooth="no"/>
      <point x="412" y="342" type="line" smooth="no"/>
      <point x="130" y="342" type="line" smooth="no"/>
      <point x="130" y="78" type="line" smooth="no"/>
      <point x="468" y="78" type="line" smooth="no"/>
      <point x="468" y="-12" type="line" smooth="no"/>
      <point x="44" y="-12" type="line" smooth="no"/>
      <point x="44" y="750" type="line" smooth="no"/>
    </contour>
  </outline>
</glyph>
<glyph name="Edieresis" format="1">
  <advance width="512"/>
  <unicode hex="00cb"/>
  <outline>
    <contour>
      <point x="60" y="775" type="line" smooth="no"/>
      <point x="60" y="895" type="line" smooth="no"/>
      <point x="180" y="895" type="line" smooth="no"/>
      <point x="180" y="775" type="line" smooth="no"/>
    </contour>
    <contour>
      <point x="308" y="775" type="line" smooth="no"/>
      <point x="308" y="895" type="line" smooth="no"/>
      <point x="428" y="895" type="line" smooth="no"/>
      <point x="428" y="775" type="line" smooth="no"/>
    </contour>
    <contour>
      <point x="468" y="750" type="line" smooth="no"/>
      <point x="468" y="660" type="line" smooth="no"/>
      <point x="130" y="660" type="line" smooth="no"/>
      <point x="130" y="432" type="line" smooth="no"/>
      <point x="412" y="432" type="line" smooth="no"/>
      <point x="412" y="342" type="line" smooth="no"/>
      <point x="130" y="342" type="line" smooth="no"/>
      <point x="130" y="78" type="line" smooth="no"/>
      <point x="468" y="78" type="line" smooth="no"/>
      <point x="468" y="-12" type="line" smooth="no"/>
      <point x="44" y="-12" type="line" smooth="no"/>
      <point x="44" y="750" type="line" smooth="no"/>
    </contour>
  </outline>
</glyph>
<glyph name="Iacute" format="1">
  <advance width="512"/>
  <unicode hex="00cd"/>
  <outline>
    <contour>
      <point x="383" y="951" type="line" smooth="no"/>
      <point x="209" y="775" type="line" smooth="no"/>
      <point x="129" y="775" type="line" smooth="no"/>
      <point x="247" y="951" type="line" smooth="no"/>
    </contour>
    <contour>
      <point x="300" y="-12" type="line" smooth="no"/>
      <point x="214" y="-12" type="line" smooth="no"/>
      <point x="214" y="750" type="line" smooth="no"/>
      <point x="300" y="750" type="line" smooth="no"/>
    </contour>
  </outline>
</glyph>
<glyph name="Icircumflex" format="1">
  <advance width="512"/>
  <unicode hex="00ce"/>
  <outline>
    <contour>
      <point x="236" y="951" type="line" smooth="no"/>
      <point x="276" y="951" type="line" smooth="no"/>
      <point x="415" y="810" type="line" smooth="no"/>
      <point x="364" y="775" type="line" smooth="no"/>
      <point x="256" y="888" type="line" smooth="no"/>
      <point x="148" y="775" type="line" smooth="no"/>
      <point x="97" y="810" type="line" smooth="no"/>
    </contour>
    <contour>
      <point x="300" y="-12" type="line" smooth="no"/>
      <point x="214" y="-12" type="line" smooth="no"/>
      <point x="214" y="750" type="line" smooth="no"/>
      <point x="300" y="750" type="line" smooth="no"/>
    </contour>
  </outline>
</glyph>
<glyph name="Idieresis" format="1">
  <advance width="512"/>
  <unicode hex="00cf"/>
  <outline>
    <contour>
      <point x="60" y="775" type="line" smooth="no"/>
      <point x="60" y="895" type="line" smooth="no"/>
      <point x="180" y="895" type="line" smooth="no"/>
      <point x="180" y="775" type="line" smooth="no"/>
    </contour>
    <contour>
      <point x="308" y="775" type="line" smooth="no"/>
      <point x="308" y="895" type="line" smooth="no"/>
      <point x="428" y="895" type="line" smooth="no"/>
      <point x="428" y="775" type="line" smooth="no"/>
    </contour>
    <contour>
      <point x="300" y="-12" type="line" smooth="no"/>
      <point x="214" y="-12" type="line" smooth="no"/>
      <point x="214" y="750" type="line" smooth="no"/>
      <point x="300" y="750" type="line" smooth="no"/>
    </contour>
  </outline>
</glyph>
<glyph name="Eth" format="1">
  <advance width="512"/>
  <unicode hex="00d0"/>
  <outline>
    <contour>
      <point x="172" y="352" type="line" smooth="no"/>
      <point x="172" y="78" type="line" smooth="no"/>
      <point x="250" y="78" type="line" smooth="yes"/>
      <point x="363" y="78"/>
      <point x="405" y="156" type="qcurve" smooth="yes"/>
      <point x="447" y="235"/>
      <point x="447" y="503"/>
      <point x="405" y="582" type="qcurve" smooth="yes"/>
      <point x="363" y="660"/>
      <point x="250" y="660" type="qcurve" smooth="yes"/>
      <point x="172" y="660" type="line" smooth="no"/>
      <point x="172" y="438" type="line" smooth="no"/>
      <point x="290" y="438" type="line" smooth="no"/>
      <point x="290" y="352" type="line" smooth="no"/>
    </contour>
    <contour>
      <point x="86" y="352" type="line" smooth="no"/>
      <point x="-27" y="352" type="line" smooth="no"/>
      <point x="-27" y="438" type="line" smooth="no"/>
      <point x="86" y="438" type="line" smooth="no"/>
      <point x="86" y="750" type="line" smooth="no"/>
      <point x="250" y="750" type="line" smooth="yes"/>
      <point x="410" y="750"/>
      <point x="539" y="540"/>
      <point x="539" y="198"/>
      <point x="410" y="-12"/>
      <point x="250" y="-12" type="qcurve" smooth="yes"/>
      <point x="86" y="-12" type="line" smooth="no"/>
    </contour>
  </outline>
</glyph>
<glyph name="Ntilde" format="1">
  <advance width="512"/>
  <unicode hex="00d1"/>
  <outline>
    <contour>
      <point x="461" y="834" type="line" smooth="no"/>
      <point x="394" y="775"/>
      <point x="350" y="775" type="qcurve" smooth="yes"/>
      <point x="308" y="775"/>
      <point x="277" y="802" type="qcurve" smooth="yes"/>
      <point x="221" y="850" type="line" smooth="yes"/>
      <point x="196" y="871"/>
      <point x="162" y="871" type="qcurve" smooth="yes"/>
      <point x="126" y="871"/>
      <point x="51" y="803" type="qcurve" smooth="no"/>
      <point x="51" y="881" type="line" smooth="no"/>
      <point x="118" y="940"/>
      <point x="162" y="940" type="qcurve" smooth="yes"/>
      <point x="204" y="940"/>
      <point x="235" y="913" type="qcurve" smooth="yes"/>
      <point x="291" y="865" type="line" smooth="yes"/>
      <point x="316" y="844"/>
      <point x="350" y="844" type="qcurve" smooth="yes"/>
      <point x="386" y="844"/>
      <point x="461" y="912" type="qcurve" smooth="no"/>
    </contour>
    <contour>
      <point x="130" y="-12" type="line" smooth="no"/>
      <point x="44" y="-12" type="line" smooth="no"/>
      <point x="44" y="750" type="line" smooth="no"/>
      <point x="154" y="750" type="line" smooth="no"/>
      <point x="400" y="163" type="line" smooth="no"/>
      <point x="400" y="750" type="line" smooth="no"/>
      <point x="486" y="750" type="line" smooth="no"/>
      <point x="486" y="-12" type="line" smooth="no"/>
      <point x="376" y="-12" type="line" smooth="no"/>
      <point x="130" y="580" type="line" smooth="no"/>
    </contour>
  </outline>
</glyph>
<glyph name="Ocircumflex" format="1">
  <advance width="512"/>
  <unicode hex="00d4"/>
  <outline>
    <contour>
      <point x="236" y="957" type="line" smooth="no"/>
      <point x="276" y="957" type="line" smooth="no"/>
      <point x="415" y="816" type="line" smooth="no"/>
      <point x="364" y="781" type="line" smooth="no"/>
      <point x="256" y="894" type="line" smooth="no"/>
      <point x="148" y="781" type="line" smooth="no"/>
      <point x="97" y="816" type="line" smooth="no"/>
    </contour>
    <contour>
      <point x="14" y="378" type="qcurve" smooth="yes"/>
      <point x="14" y="528"/>
      <point x="151" y="756"/>
      <point x="367" y="756"/>
      <point x="505" y="528"/>
      <point x="505" y="377" type="qcurve" smooth="yes"/>
      <point x="505" y="218"/>
      <point x="367" y="-10"/>
      <point x="151" y="-10"/>
      <point x="14" y="218"/>
    </contour>
    <contour>
      <point x="106" y="377" type="qcurve" smooth="yes"/>
      <point x="106" y="230"/>
      <point x="198" y="71"/>
      <point x="320" y="71"/>
      <point x="413" y="230"/>
      <point x="413" y="378" type="qcurve" smooth="yes"/>
      <point x="413" y="521"/>
      <point x="320" y="675"/>
      <point x="198" y="675"/>
      <point x="106" y="521"/>
    </contour>
  </outline>
</glyph>
<glyph name="Otilde" format="1">
  <advance width="512"/>
  <unicode hex="00d5"/>
  <outline>
    <contour>
      <point x="461" y="840" type="line" smooth="no"/>
      <point x="394" y="781"/>
      <point x="350" y="781" type="qcurve" smooth="yes"/>
      <point x="308" y="781"/>
      <point x="277" y="808" type="qcurve" smooth="yes"/>
      <point x="221" y="856" type="line" smooth="yes"/>
      <point x="196" y="877"/>
      <point x="162" y="877" type="qcurve" smooth="yes"/>
      <point x="126" y="877"/>
      <point x="51" y="809" type="qcurve" smooth="no"/>
      <point x="51" y="887" type="line" smooth="no"/>
      <point x="118" y="946"/>
      <point x="162" y="946" type="qcurve" smooth="yes"/>
      <point x="204" y="946"/>
      <point x="235" y="919" type="qcurve" smooth="yes"/>
      <point x="291" y="871" type="line" smooth="yes"/>
      <point x="316" y="850"/>
      <point x="350" y="850" type="qcurve" smooth="yes"/>
      <point x="386" y="850"/>
      <point x="461" y="918" type="qcurve" smooth="no"/>
    </contour>
    <contour>
      <point x="14" y="378" type="qcurve" smooth="yes"/>
      <point x="14" y="528"/>
      <point x="151" y="756"/>
      <point x="367" y="756"/>
      <point x="505" y="528"/>
      <point x="505" y="377" type="qcurve" smooth="yes"/>
      <point x="505" y="218"/>
      <point x="367" y="-10"/>
      <point x="151" y="-10"/>
      <point x="14" y="218"/>
    </contour>
    <contour>
      <point x="106" y="377" type="qcurve" smooth="yes"/>
      <point x="106" y="230"/>
      <point x="198" y="71"/>
      <point x="320" y="71"/>
      <point x="413" y="230"/>
      <point x="413" y="378" type="qcurve" smooth="yes"/>
      <point x="413" y="521"/>
      <point x="320" y="675"/>
      <point x="198" y="675"/>
      <point x="106" y="521"/>
    </contour>
  </outline>
</glyph>
<glyph name="multiply" format="1">
  <advance width="1024"/>
  <unicode hex="00d7"/>
  <outline>
    <contour>
      <point x="172" y="71" type="line" smooth="no"/>
      <point x="462" y="361" type="line" smooth="no"/>
      <point x="172" y="651" type="line" smooth="no"/>
      <point x="224" y="703" type="line" smooth="no"/>
      <point x="514" y="413" type="line" smooth="no"/>
      <point x="804" y="703" type="line" smooth="no"/>
      <point x="856" y="651" type="line" smooth="no"/>
      <point x="566" y="361" type="line" smooth="no"/>
      <point x="856" y="71" type="line" smooth="no"/>
      <point x="804" y="19" type="line" smooth="no"/>
      <point x="514" y="309" type="line" smooth="no"/>
      <point x="224" y="19" type="line" smooth="no"/>
    </contour>
  </outline>
</glyph>
<glyph name="Oslash" format="1">
  <advance width="512"/>
  <unicode hex="00d8"/>
  <outline>
    <contour>
      <point x="352" y="620" type="line" smooth="no"/>
      <point x="311" y="675"/>
      <point x="259" y="675" type="qcurve" smooth="yes"/>
      <point x="198" y="675"/>
      <point x="152" y="598" type="qcurve" smooth="yes"/>
      <point x="106" y="521"/>
      <point x="106" y="377" type="qcurve" smooth="yes"/>
      <point x="106" y="270"/>
      <point x="130" y="199" type="qcurve" smooth="no"/>
    </contour>
    <contour>
      <point x="386" y="558" type="qcurve" smooth="no"/>
      <point x="162" y="134" type="line" smooth="no"/>
      <point x="205" y="71"/>
      <point x="259" y="71" type="qcurve" smooth="yes"/>
      <point x="320" y="71"/>
      <point x="413" y="230"/>
      <point x="413" y="378" type="qcurve" smooth="yes"/>
      <point x="413" y="487"/>
    </contour>
    <contour>
      <point x="81" y="106" type="line" smooth="no"/>
      <point x="14" y="219"/>
      <point x="14" y="378" type="qcurve" smooth="yes"/>
      <point x="14" y="528"/>
      <point x="82" y="642" type="qcurve" smooth="yes"/>
      <point x="151" y="756"/>
      <point x="259" y="756" type="qcurve" smooth="yes"/>
      <point x="336" y="756"/>
      <point x="393" y="698" type="qcurve" smooth="no"/>
      <point x="454" y="814" type="line" smooth="no"/>
      <point x="510" y="793" type="line" smooth="no"/>
      <point x="433" y="647" type="line" smooth="no"/>
      <point x="436" y="642" type="line" smooth="yes"/>
      <point x="505" y="528"/>
      <point x="505" y="377" type="qcurve" smooth="yes"/>
      <point x="505" y="218"/>
      <point x="367" y="-10"/>
      <point x="259" y="-10" type="qcurve" smooth="yes"/>
      <point x="178" y="-10"/>
      <point x="120" y="54" type="qcurve" smooth="no"/>
      <point x="56" y="-67" type="line" smooth="no"/>
      <point x="-1" y="-50" type="line" smooth="no"/>
    </contour>
  </outline>
</glyph>
<glyph name="Ucircumflex" format="1">
  <advance width="512"/>
  <unicode hex="00db"/>
  <outline>
    <contour>
      <point x="236" y="951" type="line" smooth="no"/>
      <point x="276" y="951" type="line" smooth="no"/>
      <point x="415" y="810" type="line" smooth="no"/>
      <point x="364" y="775" type="line" smooth="no"/>
      <point x="256" y="888" type="line" smooth="no"/>
      <point x="148" y="775" type="line" smooth="no"/>
      <point x="97" y="810" type="line" smooth="no"/>
    </contour>
    <contour>
      <point x="263" y="71" type="qcurve" smooth="yes"/>
      <point x="318" y="71"/>
      <point x="390" y="152"/>
      <point x="390" y="253" type="qcurve" smooth="yes"/>
      <point x="390" y="750" type="line" smooth="no"/>
      <point x="476" y="750" type="line" smooth="no"/>
      <point x="476" y="253" type="line" smooth="yes"/>
      <point x="476" y="104"/>
      <point x="355" y="-10"/>
      <point x="171" y="-10"/>
      <point x="110" y="47" type="qcurve" smooth="yes"/>
      <point x="50" y="104"/>
      <point x="50" y="253" type="qcurve" smooth="yes"/>
      <point x="50" y="750" type="line" smooth="no"/>
      <point x="136" y="750" type="line" smooth="no"/>
      <point x="136" y="253" type="line" smooth="yes"/>
      <point x="136" y="152"/>
      <point x="208" y="71"/>
    </contour>
  </outline>
</glyph>
<glyph name="Udieresis" format="1">
  <advance width="512"/>
  <unicode hex="00dc"/>
  <outline>
    <contour>
      <point x="60" y="775" type="line" smooth="no"/>
      <point x="60" y="895" type="line" smooth="no"/>
      <point x="180" y="895" type="line" smooth="no"/>
      <point x="180" y="775" type="line" smooth="no"/>
    </contour>
    <contour>
      <point x="308" y="775" type="line" smooth="no"/>
      <point x="308" y="895" type="line" smooth="no"/>
      <point x="428" y="895" type="line" smooth="no"/>
      <point x="428" y="775" type="line" smooth="no"/>
    </contour>
    <contour>
      <point x="263" y="71" type="qcurve" smooth="yes"/>
      <point x="318" y="71"/>
      <point x="390" y="152"/>
      <point x="390" y="253" type="qcurve" smooth="yes"/>
      <point x="390" y="750" type="line" smooth="no"/>
      <point x="476" y="750" type="line" smooth="no"/>
      <point x="476" y="253" type="line" smooth="yes"/>
      <point x="476" y="104"/>
      <point x="355" y="-10"/>
      <point x="171" y="-10"/>
      <point x="110" y="47" type="qcurve" smooth="yes"/>
      <point x="50" y="104"/>
      <point x="50" y="253" type="qcurve" smooth="yes"/>
      <point x="50" y="750" type="line" smooth="no"/>
      <point x="136" y="750" type="line" smooth="no"/>
      <point x="136" y="253" type="line" smooth="yes"/>
      <point x="136" y="152"/>
      <point x="208" y="71"/>
    </contour>
  </outline>
</glyph>
<glyph name="Yacute" format="1">
  <advance width="512"/>
  <unicode hex="00dd"/>
  <outline>
    <contour>
      <point x="383" y="945" type="line" smooth="no"/>
      <point x="209" y="769" type="line" smooth="no"/>
      <point x="129" y="769" type="line" smooth="no"/>
      <point x="247" y="945" type="line" smooth="no"/>
    </contour>
    <contour>
      <point x="300" y="-12" type="line" smooth="no"/>
      <point x="214" y="-12" type="line" smooth="no"/>
      <point x="214" y="286" type="line" smooth="no"/>
      <point x="12" y="744" type="line" smooth="no"/>
      <point x="100" y="744" type="line" smooth="no"/>
      <point x="257" y="388" type="line" smooth="no"/>
      <point x="414" y="744" type="line" smooth="no"/>
      <point x="502" y="744" type="line" smooth="no"/>
      <point x="300" y="286" type="line" smooth="no"/>
    </contour>
  </outline>
</glyph>
<glyph name="Thorn" format="1">
  <advance width="512"/>
  <unicode hex="00de"/>
  <outline>
    <contour>
      <point x="152" y="-12" type="line" smooth="no"/>
      <point x="62" y="-12" type="line" smooth="no"/>
      <point x="62" y="766" type="line" smooth="no"/>
      <point x="152" y="766" type="line" smooth="no"/>
      <point x="152" y="595" type="line" smooth="no"/>
      <point x="213" y="595" type="line" smooth="yes"/>
      <point x="444" y="595"/>
      <point x="465" y="427" type="qcurve" smooth="yes"/>
      <point x="467" y="410"/>
      <point x="467" y="391" type="qcurve" smooth="yes"/>
      <point x="467" y="199"/>
      <point x="244" y="188" type="qcurve" smooth="yes"/>
      <point x="229" y="187"/>
      <point x="213" y="187" type="qcurve" smooth="yes"/>
      <point x="152" y="187" type="line" smooth="no"/>
    </contour>
    <contour>
      <point x="376" y="391" type="qcurve" smooth="yes"/>
      <point x="376" y="477"/>
      <point x="292" y="498" type="qcurve" smooth="yes"/>
      <point x="260" y="506"/>
      <point x="213" y="506" type="qcurve" smooth="yes"/>
      <point x="152" y="506" type="line" smooth="no"/>
      <point x="152" y="278" type="line" smooth="no"/>
      <point x="213" y="278" type="line" smooth="yes"/>
      <point x="339" y="278"/>
      <point x="366" y="336" type="qcurve" smooth="yes"/>
      <point x="376" y="358"/>
    </contour>
  </outline>
</glyph>
<glyph name="germandbls" format="1">
  <advance width="512"/>
  <unicode hex="00df"/>
  <outline>
    <contour>
      <point x="236" y="756" type="qcurve" smooth="yes"/>
      <point x="325" y="756"/>
      <point x="383" y="685" type="qcurve" smooth="no"/>
      <point x="403" y="655" type="line" smooth="no"/>
      <point x="427" y="611"/>
      <point x="427" y="560" type="qcurve" smooth="yes"/>
      <point x="427" y="491"/>
      <point x="378" y="443" type="qcurve" smooth="yes"/>
      <point x="355" y="420"/>
      <point x="327" y="413" type="qcurve" smooth="no"/>
      <point x="384" y="399"/>
      <point x="431" y="332" type="qcurve" smooth="yes"/>
      <point x="473" y="271"/>
      <point x="473" y="210" type="qcurve" smooth="yes"/>
      <point x="473" y="38"/>
      <point x="316" y="6" type="qcurve" smooth="yes"/>
      <point x="280" y="-1"/>
      <point x="236" y="-2" type="qcurve" smooth="no"/>
      <point x="177" y="0" type="line" smooth="no"/>
      <point x="177" y="85" type="line" smooth="no"/>
      <point x="236" y="79" type="line" smooth="no"/>
      <point x="381" y="79"/>
      <point x="381" y="209" type="qcurve" smooth="yes"/>
      <point x="381" y="288"/>
      <point x="315" y="340" type="qcurve" smooth="no"/>
      <point x="265" y="378"/>
      <point x="203" y="378" type="qcurve" smooth="no"/>
      <point x="203" y="442" type="line" smooth="no"/>
      <point x="285" y="442"/>
      <point x="319" y="501" type="qcurve" smooth="yes"/>
      <point x="335" y="527"/>
      <point x="335" y="561" type="qcurve" smooth="yes"/>
      <point x="335" y="634"/>
      <point x="284" y="663" type="qcurve" smooth="yes"/>
      <point x="263" y="675"/>
      <point x="236" y="675" type="qcurve" smooth="yes"/>
      <point x="155" y="675"/>
      <point x="134" y="615" type="qcurve" smooth="yes"/>
      <point x="125" y="587"/>
      <point x="125" y="544" type="qcurve" smooth="yes"/>
      <point x="125" y="0" type="line" smooth="no"/>
      <point x="39" y="0" type="line" smooth="no"/>
      <point x="39" y="544" type="line" smooth="yes"/>
      <point x="39" y="705"/>
      <point x="164" y="745" type="qcurve" smooth="yes"/>
      <point x="198" y="756"/>
    </contour>
  </outline>
</glyph>
<glyph name="ae" format="1">
  <advance width="832"/>
  <unicode hex="00e6"/>
  <outline>
    <contour>
      <point x="563" y="451" type="line" smooth="no"/>
      <point x="489" y="451"/>
      <point x="452" y="376" type="qcurve" smooth="yes"/>
      <point x="444" y="359"/>
      <point x="439" y="340" type="qcurve" smooth="no"/>
      <point x="695" y="340" type="line" smooth="no"/>
      <point x="676" y="434"/>
      <point x="599" y="448" type="qcurve" smooth="no"/>
    </contour>
    <contour>
      <point x="406" y="450" type="qcurve" smooth="no"/>
      <point x="472" y="532"/>
      <point x="563" y="532" type="qcurve" smooth="yes"/>
      <point x="715" y="532"/>
      <point x="770" y="406" type="qcurve" smooth="yes"/>
      <point x="795" y="347"/>
      <point x="795" y="266" type="qcurve" smooth="no"/>
      <point x="430" y="266" type="line" smooth="no"/>
      <point x="430" y="137"/>
      <point x="500" y="90" type="qcurve" smooth="yes"/>
      <point x="529" y="71"/>
      <point x="567" y="71" type="qcurve" smooth="yes"/>
      <point x="641" y="71"/>
      <point x="668" y="99" type="qcurve" smooth="yes"/>
      <point x="687" y="119"/>
      <point x="703" y="172" type="qcurve" smooth="no"/>
      <point x="799" y="172" type="line" smooth="no"/>
      <point x="761" y="-10"/>
      <point x="567" y="-10" type="qcurve" smooth="yes"/>
      <point x="458" y="-10"/>
      <point x="389" y="97" type="qcurve" smooth="no"/>
      <point x="344" y="35"/>
      <point x="272" y="5" type="qcurve" smooth="yes"/>
      <point x="233" y="-11"/>
      <point x="197" y="-10" type="qcurve" smooth="no"/>
      <point x="90" y="-10"/>
      <point x="50" y="63" type="qcurve" smooth="yes"/>
      <point x="33" y="95"/>
      <point x="33" y="135" type="qcurve" smooth="yes"/>
      <point x="33" y="237"/>
      <point x="126" y="290" type="qcurve" smooth="yes"/>
      <point x="196" y="329"/>
      <point x="344" y="358" type="qcurve" smooth="no"/>
      <point x="344" y="462"/>
      <point x="254" y="470" type="qcurve" smooth="yes"/>
      <point x="246" y="471"/>
      <point x="237" y="471" type="qcurve" smooth="yes"/>
      <point x="156" y="471"/>
      <point x="139" y="385" type="qcurve" smooth="no"/>
      <point x="51" y="385" type="line" smooth="no"/>
      <point x="62" y="473"/>
      <point x="142" y="512" type="qcurve" smooth="yes"/>
      <point x="184" y="532"/>
      <point x="237" y="532" type="qcurve" smooth="yes"/>
      <point x="358" y="532"/>
    </contour>
    <contour>
      <point x="344" y="161" type="qcurve" smooth="no"/>
      <point x="344" y="295" type="line" smooth="no"/>
      <point x="193" y="262"/>
      <point x="154" y="225" type="qcurve" smooth="yes"/>
      <point x="125" y="197"/>
      <point x="125" y="136" type="qcurve" smooth="yes"/>
      <point x="125" y="61"/>
      <point x="198" y="61" type="qcurve" smooth="no"/>
      <point x="280" y="63"/>
      <point x="322" y="123" type="qcurve" smooth="yes"/>
      <point x="333" y="139"/>
    </contour>
  </outline>
</glyph>
<glyph name="ccedilla" format="1">
  <advance width="512"/>
  <unicode hex="00e7"/>
  <outline>
    <contour>
      <point x="291" y="-8" type="qcurve" smooth="no"/>
      <point x="306" y="-18"/>
      <point x="318" y="-20" type="qcurve" smooth="yes"/>
      <point x="361" y="-27"/>
      <point x="376" y="-60" type="qcurve" smooth="yes"/>
      <point x="381" y="-70"/>
      <point x="381" y="-80" type="qcurve" smooth="yes"/>
      <point x="381" y="-110"/>
      <point x="340" y="-134" type="qcurve" smooth="yes"/>
      <point x="308" y="-152"/>
      <point x="271" y="-152" type="qcurve" smooth="no"/>
      <point x="234" y="-157"/>
      <point x="193" y="-129" type="qcurve" smooth="yes"/>
      <point x="173" y="-115"/>
      <point x="160" y="-97" type="qcurve" smooth="no"/>
      <point x="214" y="-63" type="line" smooth="no"/>
      <point x="238" y="-83" type="line" smooth="no"/>
      <point x="257" y="-96"/>
      <point x="271" y="-97" type="qcurve" smooth="yes"/>
      <point x="290" y="-98"/>
      <point x="299" y="-94" type="qcurve" smooth="yes"/>
      <point x="311" y="-90"/>
      <point x="312" y="-80" type="qcurve" smooth="yes"/>
      <point x="314" y="-67"/>
      <point x="291" y="-58" type="qcurve" smooth="yes"/>
      <point x="286" y="-56" type="line" smooth="yes"/>
      <point x="244" y="-40"/>
      <point x="230" y="-9" type="qcurve" smooth="no"/>
      <point x="144" y="-1"/>
      <point x="84" y="72" type="qcurve" smooth="no"/>
      <point x="15" y="154"/>
      <point x="15" y="260" type="qcurve" smooth="yes"/>
      <point x="15" y="368"/>
      <point x="82" y="450" type="qcurve" smooth="yes"/>
      <point x="150" y="532"/>
      <point x="248" y="532" type="qcurve" smooth="yes"/>
      <point x="354" y="532"/>
      <point x="416" y="475" type="qcurve" smooth="yes"/>
      <point x="478" y="418"/>
      <point x="486" y="336" type="qcurve" smooth="no"/>
      <point x="394" y="336" type="line" smooth="no"/>
      <point x="382" y="399"/>
      <point x="346" y="425" type="qcurve" smooth="yes"/>
      <point x="311" y="451"/>
      <point x="248" y="451" type="qcurve" smooth="yes"/>
      <point x="195" y="451"/>
      <point x="151" y="406" type="qcurve" smooth="yes"/>
      <point x="107" y="361"/>
      <point x="107" y="259" type="qcurve" smooth="yes"/>
      <point x="107" y="166"/>
      <point x="153" y="118" type="qcurve" smooth="yes"/>
      <point x="199" y="71"/>
      <point x="252" y="71" type="qcurve" smooth="yes"/>
      <point x="305" y="71"/>
      <point x="338" y="86" type="qcurve" smooth="yes"/>
      <point x="372" y="102"/>
      <point x="394" y="172" type="qcurve" smooth="no"/>
      <point x="490" y="172" type="line" smooth="no"/>
      <point x="476" y="90"/>
      <point x="414" y="40" type="qcurve" smooth="yes"/>
      <point x="365" y="0"/>
    </contour>
  </outline>
</glyph>
<glyph name="eacute" format="1">
  <advance width="512"/>
  <unicode hex="00e9"/>
  <outline>
    <contour>
      <point x="383" y="810" type="line" smooth="no"/>
      <point x="209" y="634" type="line" smooth="no"/>
      <point x="129" y="634" type="line" smooth="no"/>
      <point x="247" y="810" type="line" smooth="no"/>
    </contour>
    <contour>
      <point x="27" y="260" type="qcurve" smooth="yes"/>
      <point x="27" y="368"/>
      <point x="152" y="532"/>
      <point x="248" y="532" type="qcurve" smooth="yes"/>
      <point x="340" y="532"/>
      <point x="478" y="406"/>
      <point x="478" y="266" type="qcurve" smooth="no"/>
      <point x="386" y="266" type="line" smooth="no"/>
      <point x="119" y="266" type="line" smooth="no"/>
      <point x="119" y="259" type="line" smooth="yes"/>
      <point x="119" y="166"/>
      <point x="203" y="71"/>
      <point x="301" y="71"/>
      <point x="374" y="102"/>
      <point x="386" y="172" type="qcurve" smooth="no"/>
      <point x="482" y="172" type="line" smooth="no"/>
      <point x="472" y="86"/>
      <point x="348" y="-10"/>
      <point x="156" y="-10"/>
      <point x="27" y="154"/>
    </contour>
    <contour>
      <point x="248" y="451" type="qcurve" smooth="yes"/>
      <point x="199" y="451"/>
      <point x="137" y="381"/>
      <point x="127" y="340" type="qcurve" smooth="no"/>
      <point x="378" y="340" type="line" smooth="no"/>
      <point x="368" y="394"/>
      <point x="305" y="451"/>
    </contour>
  </outline>
</glyph>
<glyph name="igrave" format="1">
  <advance width="512"/>
  <unicode hex="00ec"/>
  <outline>
    <contour>
      <point x="129" y="812" type="line" smooth="no"/>
      <point x="265" y="812" type="line" smooth="no"/>
      <point x="383" y="636" type="line" smooth="no"/>
      <point x="303" y="636" type="line" smooth="no"/>
    </contour>
    <contour>
      <point x="299" y="-12" type="line" smooth="no"/>
      <point x="213" y="-12" type="line" smooth="no"/>
      <point x="213" y="534" type="line" smooth="no"/>
      <point x="299" y="534" type="line" smooth="no"/>
    </contour>
  </outline>
</glyph>
<glyph name="iacute" format="1">
  <advance width="512"/>
  <unicode hex="00ed"/>
  <outline>
    <contour>
      <point x="383" y="812" type="line" smooth="no"/>
      <point x="209" y="636" type="line" smooth="no"/>
      <point x="129" y="636" type="line" smooth="no"/>
      <point x="247" y="812" type="line" smooth="no"/>
    </contour>
    <contour>
      <point x="299" y="-12" type="line" smooth="no"/>
      <point x="213" y="-12" type="line" smooth="no"/>
      <point x="213" y="534" type="line" smooth="no"/>
      <point x="299" y="534" type="line" smooth="no"/>
    </contour>
  </outline>
</glyph>
<glyph name="icircumflex" format="1">
  <advance width="512"/>
  <unicode hex="00ee"/>
  <outline>
    <contour>
      <point x="236" y="812" type="line" smooth="no"/>
      <point x="276" y="812" type="line" smooth="no"/>
      <point x="415" y="671" type="line" smooth="no"/>
      <point x="364" y="636" type="line" smooth="no"/>
      <point x="256" y="749" type="line" smooth="no"/>
      <point x="148" y="636" type="line" smooth="no"/>
      <point x="97" y="671" type="line" smooth="no"/>
    </contour>
    <contour>
      <point x="299" y="-12" type="line" smooth="no"/>
      <point x="213" y="-12" type="line" smooth="no"/>
      <point x="213" y="534" type="line" smooth="no"/>
      <point x="299" y="534" type="line" smooth="no"/>
    </contour>
  </outline>
</glyph>
<glyph name="idieresis" format="1">
  <advance width="512"/>
  <unicode hex="00ef"/>
  <outline>
    <contour>
      <point x="60" y="636" type="line" smooth="no"/>
      <point x="60" y="756" type="line" smooth="no"/>
      <point x="180" y="756" type="line" smooth="no"/>
      <point x="180" y="636" type="line" smooth="no"/>
    </contour>
    <contour>
      <point x="308" y="636" type="line" smooth="no"/>
      <point x="308" y="756" type="line" smooth="no"/>
      <point x="428" y="756" type="line" smooth="no"/>
      <point x="428" y="636" type="line" smooth="no"/>
    </contour>
    <contour>
      <point x="299" y="-12" type="line" smooth="no"/>
      <point x="213" y="-12" type="line" smooth="no"/>
      <point x="213" y="534" type="line" smooth="no"/>
      <point x="299" y="534" type="line" smooth="no"/>
    </contour>
  </outline>
</glyph>
<glyph name="eth" format="1">
  <advance width="512"/>
  <unicode hex="00f0"/>
  <outline>
    <contour>
      <point x="237" y="79" type="qcurve" smooth="yes"/>
      <point x="327" y="79"/>
      <point x="355" y="179" type="qcurve" smooth="yes"/>
      <point x="367" y="220"/>
      <point x="371" y="281" type="qcurve" smooth="no"/>
      <point x="353" y="374"/>
      <point x="278" y="392" type="qcurve" smooth="no"/>
      <point x="238" y="397" type="line" smooth="yes"/>
      <point x="227" y="397" type="line" smooth="yes"/>
      <point x="143" y="397"/>
      <point x="121" y="304" type="qcurve" smooth="yes"/>
      <point x="114" y="276"/>
      <point x="114" y="240" type="qcurve" smooth="yes"/>
      <point x="114" y="110"/>
      <point x="191" y="85" type="qcurve" smooth="yes"/>
      <point x="211" y="79"/>
    </contour>
    <contour>
      <point x="354" y="670" type="qcurve" smooth="no"/>
      <point x="452" y="706" type="line" smooth="no"/>
      <point x="497" y="655" type="line" smooth="no"/>
      <point x="394" y="617" type="line" smooth="no"/>
      <point x="463" y="506"/>
      <point x="463" y="376" type="qcurve" smooth="yes"/>
      <point x="463" y="122"/>
      <point x="402" y="70" type="qcurve" smooth="no"/>
      <point x="345" y="19"/>
      <point x="310" y="8" type="qcurve" smooth="yes"/>
      <point x="286" y="0"/>
      <point x="246" y="-2" type="qcurve" smooth="yes"/>
      <point x="237" y="-2" type="line" smooth="yes"/>
      <point x="135" y="-5"/>
      <point x="72" y="80" type="qcurve" smooth="yes"/>
      <point x="22" y="148"/>
      <point x="22" y="240" type="qcurve" smooth="yes"/>
      <point x="22" y="374"/>
      <point x="115" y="441" type="qcurve" smooth="yes"/>
      <point x="168" y="478"/>
      <point x="227" y="478" type="qcurve" smooth="yes"/>
      <point x="290" y="478"/>
      <point x="316" y="466" type="qcurve" smooth="yes"/>
      <point x="343" y="453"/>
      <point x="373" y="420" type="qcurve" smooth="no"/>
      <point x="359" y="527"/>
      <point x="321" y="590" type="qcurve" smooth="no"/>
      <point x="128" y="517" type="line" smooth="no"/>
      <point x="83" y="571" type="line" smooth="no"/>
      <point x="278" y="642" type="line" smooth="no"/>
      <point x="238" y="680"/>
      <point x="178" y="703" type="qcurve" smooth="no"/>
      <point x="232" y="755" type="line" smooth="no"/>
      <point x="300" y="731"/>
    </contour>
  </outline>
</glyph>
<glyph name="ntilde" format="1">
  <advance width="512"/>
  <unicode hex="00f1"/>
  <outline>
    <contour>
      <point x="461" y="666" type="line" smooth="no"/>
      <point x="394" y="607"/>
      <point x="350" y="607" type="qcurve" smooth="yes"/>
      <point x="308" y="607"/>
      <point x="277" y="634" type="qcurve" smooth="yes"/>
      <point x="221" y="682" type="line" smooth="yes"/>
      <point x="196" y="703"/>
      <point x="162" y="703" type="qcurve" smooth="yes"/>
      <point x="126" y="703"/>
      <point x="51" y="635" type="qcurve" smooth="no"/>
      <point x="51" y="713" type="line" smooth="no"/>
      <point x="118" y="772"/>
      <point x="162" y="772" type="qcurve" smooth="yes"/>
      <point x="204" y="772"/>
      <point x="235" y="745" type="qcurve" smooth="yes"/>
      <point x="291" y="697" type="line" smooth="yes"/>
      <point x="316" y="676"/>
      <point x="350" y="676" type="qcurve" smooth="yes"/>
      <point x="386" y="676"/>
      <point x="461" y="744" type="qcurve" smooth="no"/>
    </contour>
    <contour>
      <point x="160" y="-12" type="line" smooth="no"/>
      <point x="74" y="-12" type="line" smooth="no"/>
      <point x="74" y="534" type="line" smooth="no"/>
      <point x="160" y="534" type="line" smooth="no"/>
      <point x="160" y="449" type="line" smooth="no"/>
      <point x="233" y="532"/>
      <point x="305" y="532" type="qcurve" smooth="yes"/>
      <point x="359" y="532"/>
      <point x="474" y="454"/>
      <point x="474" y="339" type="qcurve" smooth="yes"/>
      <point x="474" y="-12" type="line" smooth="no"/>
      <point x="388" y="-12" type="line" smooth="no"/>
      <point x="388" y="339" type="line" smooth="yes"/>
      <point x="388" y="406"/>
      <point x="338" y="451"/>
      <point x="287" y="451" type="qcurve" smooth="yes"/>
      <point x="246" y="451"/>
      <point x="203" y="406" type="qcurve" smooth="yes"/>
      <point x="160" y="360"/>
      <point x="160" y="259" type="qcurve" smooth="yes"/>
    </contour>
  </outline>
</glyph>
<glyph name="ograve" format="1">
  <advance width="512"/>
  <unicode hex="00f2"/>
  <outline>
    <contour>
      <point x="129" y="810" type="line" smooth="no"/>
      <point x="265" y="810" type="line" smooth="no"/>
      <point x="383" y="634" type="line" smooth="no"/>
      <point x="303" y="634" type="line" smooth="no"/>
    </contour>
    <contour>
      <point x="30" y="266" type="qcurve" smooth="yes"/>
      <point x="30" y="368"/>
      <point x="159" y="532"/>
      <point x="359" y="532"/>
      <point x="489" y="368"/>
      <point x="489" y="265" type="qcurve" smooth="yes"/>
      <point x="489" y="154"/>
      <point x="359" y="-10"/>
      <point x="159" y="-10"/>
      <point x="30" y="154"/>
    </contour>
    <contour>
      <point x="122" y="265" type="qcurve" smooth="yes"/>
      <point x="122" y="166"/>
      <point x="206" y="71"/>
      <point x="312" y="71"/>
      <point x="397" y="166"/>
      <point x="397" y="266" type="qcurve" smooth="yes"/>
      <point x="397" y="361"/>
      <point x="312" y="451"/>
      <point x="206" y="451"/>
      <point x="122" y="361"/>
    </contour>
  </outline>
</glyph>
<glyph name="otilde" format="1">
  <advance width="512"/>
  <unicode hex="00f5"/>
  <outline>
    <contour>
      <point x="461" y="666" type="line" smooth="no"/>
      <point x="394" y="607"/>
      <point x="350" y="607" type="qcurve" smooth="yes"/>
      <point x="308" y="607"/>
      <point x="277" y="634" type="qcurve" smooth="yes"/>
      <point x="221" y="682" type="line" smooth="yes"/>
      <point x="196" y="703"/>
      <point x="162" y="703" type="qcurve" smooth="yes"/>
      <point x="126" y="703"/>
      <point x="51" y="635" type="qcurve" smooth="no"/>
      <point x="51" y="713" type="line" smooth="no"/>
      <point x="118" y="772"/>
      <point x="162" y="772" type="qcurve" smooth="yes"/>
      <point x="204" y="772"/>
      <point x="235" y="745" type="qcurve" smooth="yes"/>
      <point x="291" y="697" type="line" smooth="yes"/>
      <point x="316" y="676"/>
      <point x="350" y="676" type="qcurve" smooth="yes"/>
      <point x="386" y="676"/>
      <point x="461" y="744" type="qcurve" smooth="no"/>
    </contour>
    <contour>
      <point x="30" y="266" type="qcurve" smooth="yes"/>
      <point x="30" y="368"/>
      <point x="159" y="532"/>
      <point x="359" y="532"/>
      <point x="489" y="368"/>
      <point x="489" y="265" type="qcurve" smooth="yes"/>
      <point x="489" y="154"/>
      <point x="359" y="-10"/>
      <point x="159" y="-10"/>
      <point x="30" y="154"/>
    </contour>
    <contour>
      <point x="122" y="265" type="qcurve" smooth="yes"/>
      <point x="122" y="166"/>
      <point x="206" y="71"/>
      <point x="312" y="71"/>
      <point x="397" y="166"/>
      <point x="397" y="266" type="qcurve" smooth="yes"/>
      <point x="397" y="361"/>
      <point x="312" y="451"/>
      <point x="206" y="451"/>
      <point x="122" y="361"/>
    </contour>
  </outline>
</glyph>
<glyph name="odieresis" format="1">
  <advance width="512"/>
  <unicode hex="00f6"/>
  <outline>
    <contour>
      <point x="60" y="634" type="line" smooth="no"/>
      <point x="60" y="754" type="line" smooth="no"/>
      <point x="180" y="754" type="line" smooth="no"/>
      <point x="180" y="634" type="line" smooth="no"/>
    </contour>
    <contour>
      <point x="308" y="634" type="line" smooth="no"/>
      <point x="308" y="754" type="line" smooth="no"/>
      <point x="428" y="754" type="line" smooth="no"/>
      <point x="428" y="634" type="line" smooth="no"/>
    </contour>
    <contour>
      <point x="30" y="266" type="qcurve" smooth="yes"/>
      <point x="30" y="368"/>
      <point x="159" y="532"/>
      <point x="359" y="532"/>
      <point x="489" y="368"/>
      <point x="489" y="265" type="qcurve" smooth="yes"/>
      <point x="489" y="154"/>
      <point x="359" y="-10"/>
      <point x="159" y="-10"/>
      <point x="30" y="154"/>
    </contour>
    <contour>
      <point x="122" y="265" type="qcurve" smooth="yes"/>
      <point x="122" y="166"/>
      <point x="206" y="71"/>
      <point x="312" y="71"/>
      <point x="397" y="166"/>
      <point x="397" y="266" type="qcurve" smooth="yes"/>
      <point x="397" y="361"/>
      <point x="312" y="451"/>
      <point x="206" y="451"/>
      <point x="122" y="361"/>
    </contour>
  </outline>
</glyph>
<glyph name="oslash" format="1">
  <advance width="512"/>
  <unicode hex="00f8"/>
  <outline>
    <contour>
      <point x="314" y="436" type="line" smooth="no"/>
      <point x="286" y="451"/>
      <point x="256" y="451" type="qcurve" smooth="yes"/>
      <point x="202" y="451"/>
      <point x="118" y="361"/>
      <point x="118" y="265" type="qcurve" smooth="yes"/>
      <point x="118" y="184"/>
      <point x="146" y="138" type="qcurve" smooth="no"/>
    </contour>
    <contour>
      <point x="102" y="59" type="line" smooth="no"/>
      <point x="96" y="65"/>
      <point x="91" y="72" type="qcurve" smooth="yes"/>
      <point x="26" y="154"/>
      <point x="26" y="266" type="qcurve" smooth="yes"/>
      <point x="26" y="368"/>
      <point x="91" y="450" type="qcurve" smooth="yes"/>
      <point x="155" y="532"/>
      <point x="256" y="532" type="qcurve" smooth="yes"/>
      <point x="310" y="532"/>
      <point x="354" y="508" type="qcurve" smooth="no"/>
      <point x="412" y="610" type="line" smooth="no"/>
      <point x="457" y="595" type="line" smooth="no"/>
      <point x="392" y="480" type="line" smooth="no"/>
      <point x="407" y="467"/>
      <point x="420" y="450" type="qcurve" smooth="yes"/>
      <point x="486" y="368"/>
      <point x="486" y="265" type="qcurve" smooth="yes"/>
      <point x="486" y="154"/>
      <point x="420" y="72" type="qcurve" smooth="no"/>
      <point x="356" y="-10"/>
      <point x="256" y="-10" type="qcurve" smooth="yes"/>
      <point x="188" y="-10"/>
      <point x="137" y="27" type="qcurve" smooth="no"/>
      <point x="94" y="-50" type="line" smooth="no"/>
      <point x="48" y="-38" type="line" smooth="no"/>
    </contour>
    <contour>
      <point x="351" y="406" type="qcurve" smooth="no"/>
      <point x="179" y="101" type="line" smooth="no"/>
      <point x="214" y="71"/>
      <point x="256" y="71" type="qcurve" smooth="yes"/>
      <point x="309" y="71"/>
      <point x="351" y="118" type="qcurve" smooth="yes"/>
      <point x="394" y="166"/>
      <point x="394" y="266" type="qcurve" smooth="yes"/>
      <point x="394" y="361"/>
    </contour>
  </outline>
</glyph>
<glyph name="udieresis" format="1">
  <advance width="512"/>
  <unicode hex="00fc"/>
  <outline>
    <contour>
      <point x="60" y="636" type="line" smooth="no"/>
      <point x="60" y="756" type="line" smooth="no"/>
      <point x="180" y="756" type="line" smooth="no"/>
      <point x="180" y="636" type="line" smooth="no"/>
    </contour>
    <contour>
      <point x="308" y="636" type="line" smooth="no"/>
      <point x="308" y="756" type="line" smooth="no"/>
      <point x="428" y="756" type="line" smooth="no"/>
      <point x="428" y="636" type="line" smooth="no"/>
    </contour>
    <contour>
      <point x="376" y="534" type="line" smooth="no"/>
      <point x="462" y="534" type="line" smooth="no"/>
      <point x="462" y="-12" type="line" smooth="no"/>
      <point x="376" y="-12" type="line" smooth="no"/>
      <point x="376" y="73" type="line" smooth="no"/>
      <point x="303" y="-10"/>
      <point x="231" y="-10" type="qcurve" smooth="yes"/>
      <point x="177" y="-10"/>
      <point x="120" y="29" type="qcurve" smooth="yes"/>
      <point x="62" y="68"/>
      <point x="62" y="183" type="qcurve" smooth="yes"/>
      <point x="62" y="534" type="line" smooth="no"/>
      <point x="148" y="534" type="line" smooth="no"/>
      <point x="148" y="183" type="line" smooth="yes"/>
      <point x="148" y="116"/>
      <point x="173" y="94" type="qcurve" smooth="yes"/>
      <point x="198" y="71"/>
      <point x="249" y="71" type="qcurve" smooth="yes"/>
      <point x="290" y="71"/>
      <point x="376" y="162"/>
      <point x="376" y="263" type="qcurve" smooth="yes"/>
    </contour>
  </outline>
</glyph>
<glyph name="thorn" format="1">
  <advance width="512"/>
  <unicode hex="00fe"/>
  <outline>
    <contour>
      <point x="68" y="-116" type="line" smooth="no"/>
      <point x="68" y="716" type="line" smooth="no"/>
      <point x="159" y="716" type="line" smooth="no"/>
      <point x="159" y="468" type="line" smooth="no"/>
      <point x="217" y="532"/>
      <point x="284" y="532" type="qcurve" smooth="yes"/>
      <point x="375" y="532"/>
      <point x="431" y="450" type="qcurve" smooth="yes"/>
      <point x="478" y="382"/>
      <point x="478" y="286" type="qcurve" smooth="yes"/>
      <point x="478" y="162"/>
      <point x="401" y="93" type="qcurve" smooth="yes"/>
      <point x="351" y="49"/>
      <point x="283" y="46" type="qcurve" smooth="no"/>
      <point x="213" y="46"/>
      <point x="159" y="82" type="qcurve" smooth="no"/>
      <point x="159" y="-116" type="line" smooth="no"/>
    </contour>
    <contour>
      <point x="283" y="127" type="qcurve" smooth="no"/>
      <point x="386" y="136"/>
      <point x="386" y="286" type="qcurve" smooth="yes"/>
      <point x="386" y="391"/>
      <point x="333" y="434" type="qcurve" smooth="no"/>
      <point x="313" y="445" type="line" smooth="no"/>
      <point x="298" y="451"/>
      <point x="283" y="451" type="qcurve" smooth="yes"/>
      <point x="225" y="451"/>
      <point x="165" y="367"/>
      <point x="159" y="340" type="qcurve" smooth="no"/>
      <point x="159" y="193" type="line" smooth="no"/>
      <point x="180" y="127"/>
    </contour>
  </outline>
</glyph>
<glyph name="ydieresis" format="1">
  <advance width="512"/>
  <unicode hex="00ff"/>
  <outline>
    <contour>
      <point x="60" y="636" type="line" smooth="no"/>
      <point x="60" y="756" type="line" smooth="no"/>
      <point x="180" y="756" type="line" smooth="no"/>
      <point x="180" y="636" type="line" smooth="no"/>
    </contour>
    <contour>
      <point x="308" y="636" type="line" smooth="no"/>
      <point x="308" y="756" type="line" smooth="no"/>
      <point x="428" y="756" type="line" smooth="no"/>
      <point x="428" y="636" type="line" smooth="no"/>
    </contour>
    <contour>
      <point x="156" y="-20" type="qcurve" smooth="no"/>
      <point x="199" y="76" type="line" smooth="no"/>
      <point x="26" y="534" type="line" smooth="no"/>
      <point x="116" y="534" type="line" smooth="no"/>
      <point x="248" y="183" type="line" smooth="no"/>
      <point x="408" y="534" type="line" smooth="no"/>
      <point x="502" y="534" type="line" smooth="no"/>
      <point x="242" y="-36" type="line" smooth="no"/>
      <point x="193" y="-156"/>
      <point x="60" y="-120" type="qcurve" smooth="no"/>
      <point x="60" y="-40" type="line" smooth="no"/>
      <point x="131" y="-66"/>
    </contour>
  </outline>
</glyph>
<glyph name="dotlessi" format="1">
  <advance width="512"/>
  <unicode hex="0131"/>
  <outline>
    <contour>
      <point x="299" y="-12" type="line" smooth="no"/>
      <point x="213" y="-12" type="line" smooth="no"/>
      <point x="213" y="534" type="line" smooth="no"/>
      <point x="299" y="534" type="line" smooth="no"/>
    </contour>
  </outline>
</glyph>
